<?xml version="1.0" standalone="no"?>
<!DOCTYPE svg PUBLIC "-//W3C//DTD SVG 1.1//EN" "http://www.w3.org/Graphics/SVG/1.1/DTD/svg11.dtd" >
<svg xmlns="http://www.w3.org/2000/svg" xmlns:xlink="http://www.w3.org/1999/xlink" version="1.1">
<metadata></metadata>
<defs>
<font id="florencesans_scbold_italic" horiz-adv-x="972" >
<font-face units-per-em="2048" ascent="1638" descent="-410" />
<missing-glyph horiz-adv-x="847" />
<glyph horiz-adv-x="0" />
<glyph unicode="&#xd;" horiz-adv-x="1024" />
<glyph unicode=" "  horiz-adv-x="847" />
<glyph unicode="&#x09;" horiz-adv-x="847" />
<glyph unicode="&#xa0;" horiz-adv-x="847" />
<glyph unicode="!" horiz-adv-x="530" d="M152 125q-12 -61 18.5 -104.5t89.5 -43.5t108.5 43.5t63.5 104.5t-18.5 104t-91.5 43q-57 0 -106.5 -43t-63.5 -104zM272 373h144l264 1081h-211z" />
<glyph unicode="&#x22;" horiz-adv-x="937" d="M416 1010q-4 -63 49 -64q31 0 49 16.5t31 47.5l188 516h-287zM823 1010q0 -31 11.5 -47.5t39.5 -16.5q55 0 78 64l189 516h-287z" />
<glyph unicode="#" horiz-adv-x="1177" d="M250 588h184l-65 -215h178l63 215h164l-65 -215h178l65 215h226l39 186h-211l51 172h196l39 187h-182l66 215h-179l-61 -215h-166l66 215h-179l-63 -215h-229l-39 -187h213l-52 -172h-196zM666 774l51 172h164l-54 -172h-161z" />
<glyph unicode="$" horiz-adv-x="1382" d="M209.5 216.5q21.5 -85.5 89.5 -144.5q96 -92 276 -121l-32 -152h211l32 152q186 29 330 121q180 118 223 315q43 215 -84 320q-88 63 -286 102l96 446q78 -14 125 -59q63 -53 39 -168h211q43 207 -72 326q-47 51 -112.5 82.5t-143.5 46.5l33 151h-211l-33 -151 q-86 -14 -165 -46t-146 -83q-170 -121 -207 -303q-23 -104 -4.5 -182t72.5 -132q41 -37 106.5 -65.5t161.5 -46.5l-96 -453q-96 16 -150 59q-74 53 -51 177h-211q-23 -106 -1.5 -191.5zM594 1051q10 45 35.5 80.5t70.5 64.5q66 45 152 59l-86 -409q-90 22 -129 57 q-66 51 -43 148zM834 172l90 418q102 -23 149 -53q76 -50 53 -150q-37 -178 -292 -215z" />
<glyph unicode="%" horiz-adv-x="1740" d="M147 -23h226l1523 1477h-225zM362 1110q-37 -154 48 -268q41 -57 100 -84t133 -27q147 0 276 110.5t164 268.5q33 156 -51 268q-82 113 -227 113q-152 0 -283 -113q-129 -115 -160 -268zM539 1110q18 80 84 137q68 57 143 58q74 0 117 -56q40 -55 24 -139 q-18 -82 -83.5 -137t-141.5 -55t-119 55q-43 61 -24 137zM961 322q-35 -158 49 -269q80 -111 229 -110q150 0 279 110q130 113 165 269q33 154 -51 268q-82 113 -231 112q-150 0 -277 -112q-131 -113 -163 -268zM1139 322q18 86 82 139q66 55 141 55q76 0 121 -55 q40 -59 22 -139q-8 -41 -29.5 -75t-52.5 -63q-66 -55 -143 -55q-76 0 -119 55q-41 57 -22 138z" />
<glyph unicode="&#x26;" horiz-adv-x="1337" d="M205 222q16 -81 63 -146q51 -66 120 -99.5t161 -33.5q197 0 385 129l35 -95h254l-107 267q16 23 37 50.5t43 61.5h-4l119 185l-172 90l-109 -170l-137 334q72 41 120 73.5t72 55.5q102 100 127 227q33 139 -45 242v-2q-76 100 -211 100t-249 -100q-117 -98 -148 -240 q-8 -41 -7 -84t13 -86q4 -10 15.5 -40t33.5 -83q-162 -96 -241 -176q-127 -123 -164 -283q-20 -96 -4 -177zM422 403q10 47 35.5 87t70.5 75q23 23 64 49.5t98 61.5l166 -416q-63 -49 -129.5 -72.5t-132.5 -23.5q-92 0 -141 69q-53 72 -31 170zM772 1153q10 47 49 82t86 35 q49 0 78 -35t19 -86q-12 -68 -93 -111l-94 -57l-39 102l-2 -2q-14 31 -4 72z" />
<glyph unicode="'" horiz-adv-x="530" d="M416 1010q-4 -63 49 -64q31 0 49 16.5t31 47.5l188 516h-287z" />
<glyph unicode="(" horiz-adv-x="665" d="M223 391.5q-6 -108.5 4 -203.5q12 -94 47 -190t91 -199h147q-78 233 -86 412q-6 176 43 416q27 121 60.5 223t72.5 190q82 176 264 414h-147q-199 -199 -305 -389q-49 -92 -89 -201.5t-67 -236.5q-29 -127 -35 -235.5z" />
<glyph unicode=")" horiz-adv-x="665" d="M70 -201h145q199 201 303 389q53 94 90 203t66 236q27 127 36 235.5t-5 202.5q-25 193 -138 389h-145q39 -119 60.5 -221.5t25.5 -192.5q4 -88 -8.5 -190t-36.5 -223q-27 -121 -59.5 -223.5t-73.5 -192.5q-84 -182 -260 -412z" />
<glyph unicode="*" horiz-adv-x="950" d="M301 858l55 -162l203 111l-47 -219h176l47 219l156 -111l123 162l-158 109l205 110l-55 162l-203 -113l47 222h-176l-47 -222l-156 113l-123 -162l156 -110z" />
<glyph unicode="+" d="M221 444h273l-62 -286h176l62 286h272l39 187h-272l61 287h-176l-62 -287h-272z" />
<glyph unicode="," horiz-adv-x="530" d="M150 -244q-4 -66 49 -65q53 0 80 65l186 516h-287z" />
<glyph unicode="-" d="M221 444h721l39 187h-721z" />
<glyph unicode="." horiz-adv-x="530" d="M152 125q-12 -61 18.5 -104.5t89.5 -43.5t108.5 43.5t63.5 104.5t-18.5 104t-91.5 43q-57 0 -106.5 -43t-63.5 -104z" />
<glyph unicode="/" horiz-adv-x="892" d="M55 -113l181 -75l868 1556l-180 74z" />
<glyph unicode="0" horiz-adv-x="1366" d="M236 717q-63 -297 40 -522q119 -252 394 -252q274 0 501 252q197 221 263 522q63 297 -39 522q-123 252 -396 252q-272 0 -501 -252q-100 -111 -165 -242t-97 -280zM446 717q23 106 66 198.5t111 171.5q141 180 329 181q184 0 254 -181q62 -159 19 -370 q-47 -217 -176 -371q-145 -182 -330 -182q-188 0 -254 182q-66 158 -19 371z" />
<glyph unicode="1" horiz-adv-x="1366" d="M565 1053l107 -144l280 244l-250 -1176h211l316 1477h-197z" />
<glyph unicode="2" horiz-adv-x="1366" d="M147 -23h1061l47 224h-786q51 55 127 110.5t182 112.5q166 92 266.5 150.5t133.5 82.5q106 80 168.5 173.5t85.5 201.5q49 215 -99 344q-127 115 -334 115q-201 0 -378 -107q-199 -121 -250 -356h209q27 131 145 191q98 49 217 49q68 0 121 -11.5t90 -39.5 q94 -63 70 -185q-33 -162 -279 -309h2q-117 -68 -232.5 -134.5t-232.5 -131.5q-272 -193 -334 -480z" />
<glyph unicode="3" horiz-adv-x="1366" d="M184 229q49 -156 185 -223q121 -63 278 -63q227 0 408 118q211 136 260 369q29 129 -11 223.5t-145 153.5q186 92 230 287q43 201 -101 307q-119 90 -311 90q-158 0 -293 -59q-170 -76 -254 -234l180 -76q41 74 118 110t200 36q113 0 182 -33q86 -47 68 -141 q-18 -80 -129 -133q-96 -43 -195 -43h-123l-49 -224h125q137 0 223 -65q100 -76 74 -199q-27 -131 -156 -205q-111 -61 -254 -61q-252 0 -301 178z" />
<glyph unicode="4" horiz-adv-x="1366" d="M174 264h750l-62 -287h209l62 287h170l49 223h-170l204 967h-176l-991 -981zM465 487l639 623l-133 -623h-506z" />
<glyph unicode="5" horiz-adv-x="1366" d="M199 342q31 -199 155 -299q129 -100 301 -100q229 0 430 159q207 160 256 400q49 238 -86 399q-133 160 -360 160q-166 0 -317 -84l53 256h694l49 221h-907l-156 -731l174 -78q72 92 168.5 142.5t192.5 50.5q143 0 225 -95q90 -96 59 -241q-16 -72 -57 -133.5 t-104.5 -108.5t-128 -71.5t-135.5 -24.5q-111 0 -189 57q-76 57 -100 176z" />
<glyph unicode="6" horiz-adv-x="1366" d="M250 717q-63 -293 43 -522q117 -252 391 -252q233 0 430 157q207 164 260 406q51 233 -88 403q-135 158 -362 158q-221 0 -394 -149q57 125 146 215q135 135 291 135q168 0 247 -164l195 133q-127 254 -395 254q-272 0 -500 -252q-199 -221 -264 -522zM465 504 q31 143 149.5 241.5t262.5 98.5q141 0 229 -94q86 -99 57 -246q-35 -150 -159 -242q-129 -98 -271 -98q-125 0 -211 104q-86 102 -57 236z" />
<glyph unicode="7" horiz-adv-x="1366" d="M266 -23h252l969 1272l45 205h-961l-49 -221h709z" />
<glyph unicode="8" horiz-adv-x="1366" d="M209 430q-47 -233 100 -369q133 -119 361 -118q229 0 411 118q209 138 258 369q53 258 -157 377q184 88 229 287q43 203 -100 307q-119 90 -312 90q-195 0 -350 -90q-186 -104 -229 -307q-43 -199 106 -287q-262 -119 -317 -377zM420 430q25 123 160 199q117 66 249 65 q139 0 224 -65q102 -74 75 -199q-29 -133 -157 -205q-111 -61 -252 -61q-145 0 -227 61q-100 72 -72 205zM629 1094q18 94 125 141q41 16 90 24.5t108 8.5q113 0 183 -33q85 -47 67 -141q-18 -80 -129 -133q-96 -43 -194 -43t-179 43q-90 53 -71 133z" />
<glyph unicode="9" horiz-adv-x="1366" d="M262 197q127 -254 391 -254q276 0 502 252q198 223 264 522q33 150 22 280.5t-63 241.5q-121 252 -395 252q-227 0 -428 -158q-207 -164 -260 -405q-49 -236 88 -404q135 -158 362 -157q221 0 394 147q-63 -127 -144 -213q-137 -137 -293 -137q-168 0 -247 166zM508 930 q31 150 158 241q127 96 270 97q129 0 213 -103q41 -53 55 -110t-2 -125q-31 -143 -149 -244q-119 -96 -260 -96q-139 0 -230 96q-86 98 -55 244z" />
<glyph unicode=":" horiz-adv-x="530" d="M152 125q-12 -61 18.5 -104.5t89.5 -43.5t108.5 43.5t63.5 104.5t-18.5 104t-91.5 43q-57 0 -106.5 -43t-63.5 -104zM289 770q-12 -61 19.5 -104t88.5 -43q59 0 108.5 43t61.5 104q14 61 -16.5 104.5t-89.5 43.5t-108.5 -43.5t-63.5 -104.5z" />
<glyph unicode=";" horiz-adv-x="530" d="M150 -244q-4 -66 49 -65q53 0 80 65l186 516h-287zM289 770q-12 -61 19.5 -104t88.5 -43q59 0 108.5 43t61.5 104q14 61 -16.5 104.5t-89.5 43.5t-108.5 -43.5t-63.5 -104.5z" />
<glyph unicode="&#x3c;" horiz-adv-x="937" d="M221 453l512 -408l131 158l-422 334l566 335l-66 158l-684 -407z" />
<glyph unicode="=" d="M186 283h723l39 186h-723zM254 606h723l39 187h-723z" />
<glyph unicode="&#x3e;" horiz-adv-x="937" d="M162 203l61 -158l686 408l35 170l-510 407l-129 -158l418 -335z" />
<glyph unicode="?" horiz-adv-x="905" d="M221 125q-14 -61 16.5 -104.5t90.5 -43.5q59 0 108.5 43.5t63.5 104.5t-17.5 104t-91.5 43q-59 0 -108.5 -43t-61.5 -104zM342 373h139q20 59 37 112.5t27 83.5q41 131 145 201q94 59 189 113q106 86 143 256q27 141 -43 245q-74 106 -209 107q-137 0 -256 -107 q-117 -104 -152 -268h211q16 59 59.5 105.5t90.5 46.5t71.5 -38t14.5 -91q-18 -90 -111 -158q-47 -35 -86 -63.5t-86 -63.5q-125 -109 -151 -240q-4 -14 -19 -131q-4 -20 -7 -52t-7 -58z" />
<glyph unicode="@" horiz-adv-x="2062" d="M239.5 536q-83.5 -393 125.5 -671q205 -281 579 -281q63 0 134 11.5t151 35.5l-6 160q-131 -39 -242 -39q-309 0 -481 232q-170 227 -99 553q68 326 334 555q272 231 578 231q309 0 479 -229q168 -229 100 -557q-16 -72 -48 -137.5t-81 -123.5q-109 -129 -235 -129 q-51 0 -72.5 45.5t-9.5 100.5q0 4 1 7t5 13l190 650h-167l-33 -109q-72 135 -248 135t-344 -151q-160 -154 -199 -340q-37 -168 41 -291q78 -121 238 -121q184 0 336 139q-6 -88 39 -157q57 -90 176 -91q199 0 370 185q156 168 201 375q84 397 -125 673q-207 281 -577 281 q-373 0 -701 -281q-326 -281 -409.5 -674zM819 415q-6 44 4 97q20 119 129 211q106 88 219 88q100 0 154 -72q51 -72 31 -176q-25 -125 -131 -213v2q-102 -88 -219 -88q-100 0 -154 72q-27 35 -33 79z" />
<glyph unicode="A" horiz-adv-x="1296" d="M27 -23h223l182 324h559l41 -324h225l-194 1477h-211zM555 522l328 588l78 -588h-406z" />
<glyph unicode="B" horiz-adv-x="1312" d="M121 -23h633q170 0 336 119q163 123 202 307q10 47 10 88q0 160 -151 234q197 98 240 305q10 47 10 91q0 124 -82 218q-111 115 -283 115h-600zM379 201l86 405h424q90 0 149 -55q47 -46 47 -109q0 -19 -4 -39q-23 -94 -106 -147q-80 -55 -172 -55h-424zM512 827l86 406 h389q90 0 152 -55q45 -46 45 -108q0 -19 -4 -40q-18 -86 -105 -147q-84 -55 -174 -56h-389z" />
<glyph unicode="C" horiz-adv-x="1454" d="M226 421q22 -136 108 -253q170 -225 473 -225q299 0 567 227l8 31l-108 137q-205 -174 -420 -174q-217 0 -336 162q-86 115 -87 265q0 60 15 126q49 227 236 391q190 160 405 160t349 -172l182 151q-180 244 -481 244t-570 -229q-264 -227 -331 -545q-20 -95 -20 -182 q1 -59 10 -114z" />
<glyph unicode="D" horiz-adv-x="1468" d="M121 -23h530q291 0 541 218q256 219 319 522q19 89 19 170q0 201 -117 352q-158 215 -446 215h-531zM379 201l219 1032h322q203 0 313 -152q79 -104 79 -242q0 -58 -14 -122q-47 -219 -219 -367q-173 -149 -376 -149h-3h-321z" />
<glyph unicode="E" horiz-adv-x="1245" d="M121 -23h993l49 224h-784l86 405h614l45 221h-612l86 406h784l48 221h-994z" />
<glyph unicode="F" horiz-adv-x="1185" d="M121 -23h211l133 629h614l45 221h-612l86 406h784l48 221h-994z" />
<glyph unicode="G" horiz-adv-x="1546" d="M226 421q22 -136 108 -253q170 -225 473 -225q92 0 185 24.5t182.5 69.5t171 109.5t149.5 144.5l6 12l111 524h-637l-47 -221h426l-51 -241q-199 -201 -449 -201q-217 0 -336 162q-86 115 -86 265q0 60 14 126q49 227 236 391q190 160 405 160q123 0 223.5 -62.5 t157.5 -175.5l201 127q-78 160 -218 247t-314 87q-301 0 -570 -229q-264 -227 -331 -545q-20 -95 -20 -182q0 -59 10 -114z" />
<glyph unicode="H" horiz-adv-x="1382" d="M121 -23h211l133 629h709l-136 -629h213l316 1477h-213l-133 -627h-709l135 627h-211z" />
<glyph unicode="I" horiz-adv-x="462" d="M121 -23h211l315 1477h-211z" />
<glyph unicode="J" horiz-adv-x="1071" d="M102 211q45 -123 143.5 -195.5t225.5 -72.5q195 0 369 149q176 152 219 357l215 1005h-557l-49 -221h346l-166 -784q-25 -121 -123 -201q-90 -84 -205 -84q-150 0 -209 151z" />
<glyph unicode="K" horiz-adv-x="1239" d="M121 -23h211l119 553l202 177l295 -730h252l-358 889l684 588h-295l-715 -614l131 614h-211z" />
<glyph unicode="L" horiz-adv-x="1015" d="M121 -23h823l49 224h-614l268 1253h-211z" />
<glyph unicode="M" horiz-adv-x="1648" d="M121 -23h211l235 1108l148 -1108h209l616 1104l-235 -1104h211l315 1477h-305l-633 -1132l-152 1132h-305z" />
<glyph unicode="N" horiz-adv-x="1382" d="M121 -23h211l227 1065l492 -1065h200l316 1477h-213l-228 -1063l-489 1063h-201z" />
<glyph unicode="O" horiz-adv-x="1638" d="M226 421q24 -136 110 -251q168 -227 471 -227q299 0 567 227q264 228 332 547q20 92 19 177q0 207 -117 370q-170 227 -471 227q-303 0 -570 -227q-264 -231 -331 -547q-19 -93 -19 -179q-1 -60 9 -117zM446 717q49 227 236 391q190 160 405 160q217 0 338 -160 q85 -116 85 -267q0 -59 -13 -124q-25 -115 -85 -212t-152 -179q-190 -162 -406 -162q-217 0 -336 162q-86 115 -86 265q0 60 14 126z" />
<glyph unicode="P" horiz-adv-x="1239" d="M121 -23h211l133 629h389q172 0 336 117q164 127 201 307q10 47 10 91q0 124 -82 218q-111 115 -283 115h-600zM512 827l86 406h389q90 0 152 -55q45 -46 45 -108q0 -19 -4 -40q-18 -86 -105 -147q-84 -55 -174 -56h-389z" />
<glyph unicode="Q" horiz-adv-x="1638" d="M236 717q-19 -90 -19 -174q0 -186 94 -340q137 -213 391 -252l-69 -332h211l69 332q137 20 260 83.5t238 168.5q234 217 295 514q20 92 20 177q0 207 -118 370q-170 227 -471 227q-303 0 -570 -227q-264 -231 -331 -547zM446 717q49 227 236 391q190 160 405 160 q217 0 338 -160q85 -116 85 -267q0 -59 -13 -124q-23 -104 -74 -192.5t-129 -166.5q-74 -72 -157.5 -117.5t-173.5 -64.5l43 203h-211l-43 -203q-170 37 -254 182q-65 108 -65 238q0 58 13 121z" />
<glyph unicode="R" horiz-adv-x="1306" d="M121 -23h211l133 629h186q164 0 211 -117l205 -512h252l-215 537q-16 43 -33.5 73.5t-34.5 49.5q55 23 106.5 54.5t98.5 78.5q119 117 150 260q10 47 10 91q0 124 -82 218q-111 115 -283 115h-600zM512 827l86 406h389q90 0 152 -55q45 -46 45 -108q0 -19 -4 -40 q-18 -86 -105 -147q-84 -55 -174 -56h-389z" />
<glyph unicode="S" horiz-adv-x="1347" d="M195 408q-10 -50 -10 -96q0 -164 128 -263q137 -106 349 -106q205 0 393 104q221 127 268 340q11 52 11 98q0 189 -183 269q-53 10 -100 22t-99 25q-53 12 -103 23.5t-99 23.5q-175 42 -175 160q0 20 5 43q20 106 143 168h-2q100 49 221 49q123 0 201 -51q76 -44 76 -133 q0 -26 -7 -56h213q11 53 11 101q0 156 -113 253q-133 109 -332 109q-201 0 -377 -109q-207 -127 -247 -331q-12 -57 -12 -107q0 -192 182 -270q51 -12 99 -23.5t101 -21.5h-2q51 -12 101.5 -23.5t101.5 -21.5q176 -43 176 -160q0 -18 -4 -37q-10 -59 -51 -103t-107 -73 q-111 -47 -243 -47q-133 0 -224 47q-84 46 -85 138q0 27 8 59h-213z" />
<glyph unicode="T" horiz-adv-x="1210" d="M319 1233h443l-268 -1256h213l266 1256h442l49 221h-1097z" />
<glyph unicode="U" horiz-adv-x="1347" d="M223 537q-15 -71 -15 -136q0 -160 93 -282q131 -176 361 -176q233 0 434 176q205 172 258 418l196 917h-211l-196 -917q-35 -158 -162 -265q-124 -108 -269 -108h-3q-145 0 -230 108q-55 76 -54 172q0 44 11 93l195 917h-211z" />
<glyph unicode="V" horiz-adv-x="1296" d="M342 1454l195 -1477h211l825 1477h-225l-633 -1132l-150 1132h-223z" />
<glyph unicode="W" horiz-adv-x="1861" d="M344 1454l86 -1477h207l514 1051l59 -1051h209l719 1477h-219l-512 -1048l-61 1048h-207l-514 -1048l-60 1048h-221z" />
<glyph unicode="X" horiz-adv-x="1310" d="M25 -23h260l481 545l248 -545h260l-336 740l651 737h-260l-479 -543l-250 543h-260l338 -737z" />
<glyph unicode="Y" horiz-adv-x="1294" d="M332 1454l354 -774l-149 -703h211l149 703l686 774h-262l-481 -543l-246 543h-262z" />
<glyph unicode="Z" horiz-adv-x="1347" d="M104 -23h1131l47 224h-833l1056 1046l45 207h-1130l-49 -221h833l-1054 -1047z" />
<glyph unicode="[" horiz-adv-x="700" d="M82 -201h450l48 221h-238l256 1213h240l47 221h-449z" />
<glyph unicode="\" horiz-adv-x="892" d="M369 1368l209 -1556l213 75l-209 1555z" />
<glyph unicode="]" horiz-adv-x="700" d="M82 -201h450l353 1655h-449l-49 -221h238l-256 -1213h-238z" />
<glyph unicode="^" horiz-adv-x="983" d="M258 662l148 -78l317 497l102 -497l181 78l-146 686h-164z" />
<glyph unicode="_" horiz-adv-x="935" d="M0 -23h936v187h-936v-187z" />
<glyph unicode="`" horiz-adv-x="565" d="M412 1454l149 -258h146l-70 258h-225z" />
<glyph unicode="a" horiz-adv-x="1169" d="M23 -23h204l164 291h502l37 -291h207l-176 1334h-193zM506 473l289 520l71 -520h-360z" />
<glyph unicode="b" horiz-adv-x="1185" d="M109 -23h571q160 0 303 109q147 106 184 276q9 42 9 79q0 145 -134 212q172 88 213 273q9 43 9 82q0 112 -74 198q-98 104 -254 105h-543zM348 182l74 361h379q80 0 133 -49q43 -39 43 -97q0 -17 -4 -35q-8 -41 -33 -73.5t-59 -55.5q-72 -51 -156 -51h-377zM467 748 l76 360h348q82 0 133 -51q42 -39 42 -98q0 -16 -3 -33q-8 -39 -32.5 -72t-61.5 -57q-72 -49 -154 -49h-348z" />
<glyph unicode="c" horiz-adv-x="1310" d="M213 645q-18 -83 -18 -159q0 -188 108 -334q154 -205 424 -205q276 0 512 205l8 30l-96 125q-94 -78 -188.5 -117.5t-192.5 -39.5q-197 0 -301 145q-76 99 -76 229q0 57 15 121q43 205 210 348q164 145 363 146q195 0 311 -158l168 143q-158 219 -436 219 q-137 0 -266 -51t-248 -155q-238 -205 -297 -492z" />
<glyph unicode="d" horiz-adv-x="1325" d="M109 -23h481q258 0 485 197q230 199 291 471q16 76 16 147q0 55 -10 106q-22 118 -96 216q-139 197 -402 197h-481zM348 182l195 926h286q182 0 281 -135q72 -97 72 -224q0 -50 -11 -104q-43 -190 -200 -328q-158 -135 -336 -135h-287z" />
<glyph unicode="e" horiz-adv-x="1124" d="M109 -23h899l45 205h-705l74 361h553l45 205h-553l76 360h704l45 203h-899z" />
<glyph unicode="f" horiz-adv-x="1071" d="M109 -23h194l119 566h553l45 205h-553l76 360h704l45 203h-899z" />
<glyph unicode="g" horiz-adv-x="1396" d="M213 645q-18 -83 -18 -159q0 -189 108 -334q154 -205 424 -205q170 0 335 83t288 230l4 12l102 476h-577l-45 -205h385l-45 -213q-178 -180 -404 -180q-197 0 -301 145q-76 99 -76 229q0 58 15 121q43 205 210 348q164 145 363 146q111 0 201 -56.5t141 -158.5l182 116 q-70 143 -195.5 223t-285.5 80q-137 0 -266 -51t-248 -155l2 2q-119 -102 -194.5 -225t-104.5 -269z" />
<glyph unicode="h" horiz-adv-x="1247" d="M109 -23h194l119 566h633l-119 -566h194l285 1334h-194l-121 -563h-633l121 563h-195z" />
<glyph unicode="i" horiz-adv-x="421" d="M109 -23h194l285 1334h-195z" />
<glyph unicode="j" horiz-adv-x="968" d="M92 193q39 -113 129 -179.5t205 -66.5q176 0 334 133q157 141 196 323l195 908h-506l-45 -203h311l-147 -705q-20 -100 -111 -180h2q-89 -73 -183 -73h-3q-135 0 -186 137z" />
<glyph unicode="k" horiz-adv-x="1118" d="M109 -23h194l105 498l184 158l260 -656h233l-325 803l622 531h-272l-641 -549l119 549h-195z" />
<glyph unicode="l" horiz-adv-x="919" d="M109 -23h745l45 205h-551l240 1129h-195z" />
<glyph unicode="m" horiz-adv-x="1486" d="M109 -23h194l211 990l129 -990h191l548 986l-208 -986h194l287 1334h-281l-567 -1016l-135 1016h-279z" />
<glyph unicode="n" horiz-adv-x="1247" d="M109 -23h194l205 955l438 -955h184l285 1334h-194l-203 -953l-440 953h-185z" />
<glyph unicode="o" horiz-adv-x="1478" d="M213 645q-18 -84 -18 -160q0 -189 108 -335v2q154 -205 424 -205q276 0 512 203q240 204 301 495q18 83 18 159q0 189 -108 335q-149 204 -423 204h-3q-274 0 -512 -204q-121 -104 -195.5 -226t-103.5 -268zM408 645q43 205 210 348q164 145 363 146q193 0 301 -146 q76 -103 76 -238q0 -53 -12 -110q-23 -104 -75 -190t-138 -160q-168 -145 -363 -145q-197 0 -301 145q-76 99 -76 229q0 58 15 121z" />
<glyph unicode="p" horiz-adv-x="1118" d="M109 -23h194l119 566h348q160 0 303 108q147 109 182 275q9 43 9 82q0 112 -74 198q-98 104 -254 105h-543zM467 748l76 360h348q82 0 133 -51q42 -39 42 -98q0 -16 -3 -33q-8 -39 -32.5 -72t-61.5 -57q-72 -49 -154 -49h-348z" />
<glyph unicode="q" horiz-adv-x="1478" d="M213 645q-17 -84 -17 -161q0 -169 83 -304q63 -94 150 -151.5t204 -73.5l-66 -299h195l63 299q244 33 449 225q211 203 266 465q18 83 18 159q0 189 -108 335q-149 204 -423 204h-3q-274 0 -512 -204q-121 -104 -195.5 -226t-103.5 -268zM408 645q43 205 210 348 q164 145 363 146q193 0 301 -146q76 -103 76 -238q0 -52 -12 -110q-39 -184 -181 -321q-135 -131 -297 -162l41 182h-194l-39 -182q-147 31 -225 162q-57 91 -57 204q0 56 14 117z" />
<glyph unicode="r" horiz-adv-x="1179" d="M109 -23h194l119 566h164q147 0 190 -105l185 -461h233l-197 488q-16 37 -31.5 64.5t-29.5 43.5q51 20 98 49t88 70q104 98 133 234q9 43 9 82q0 112 -74 198q-98 104 -254 105h-543zM467 748l76 360h348q82 0 133 -51q42 -39 42 -98q0 -16 -3 -33q-8 -39 -32.5 -72 t-61.5 -57q-72 -49 -154 -49h-348z" />
<glyph unicode="s" horiz-adv-x="1216" d="M178 369q-11 -51 -11 -97q0 -147 116 -231q121 -94 315 -94q182 0 354 92q203 121 242 309q10 48 10 90q0 170 -166 242q-47 10 -91 21.5t-91 21.5t-90 21.5t-88 21.5q-159 38 -158 148q0 15 2 30q20 96 131 152h-2q88 43 201 43q104 0 180 -45q66 -44 66 -121 q0 -23 -6 -49h192q11 52 11 98q0 138 -101 223q-123 98 -299 98q-182 0 -342 -98q-184 -119 -223 -301q-11 -51 -11 -96q0 -171 166 -244q47 -10 89 -19.5t90 -19.5h-2q45 -10 91 -21.5t93 -21.5h-2q159 -37 159 -140q0 -16 -4 -34q-20 -102 -141 -155q-92 -43 -217 -43 q-121 0 -201 43q-75 40 -75 125q0 24 6 51h-193z" />
<glyph unicode="t" horiz-adv-x="1095" d="M287 1108h399l-240 -1131h193l242 1131h397l45 203h-991z" />
<glyph unicode="u" horiz-adv-x="1216" d="M201 483q-14 -65 -14 -124q0 -146 83 -255l2 2q114 -159 323 -159h3q209 0 395 159l-2 -2q94 78 151.5 173t80.5 206l176 828h-193l-178 -828q-29 -141 -143 -235q-115 -98 -244 -98q-135 0 -205 98q-51 67 -52 158q0 37 9 77l178 828h-192z" />
<glyph unicode="v" horiz-adv-x="1169" d="M307 1311l176 -1334h193l745 1334h-207l-567 -1016l-135 1016h-205z" />
<glyph unicode="w" horiz-adv-x="1681" d="M309 1311l78 -1334h191l456 941l58 -941h188l649 1334h-203l-456 -940l-56 940h-190l-459 -940l-55 940h-201z" />
<glyph unicode="x" horiz-adv-x="1181" d="M20 -23h240l432 488l221 -488h240l-303 668l588 666h-240l-430 -488l-223 488h-240l303 -666z" />
<glyph unicode="y" horiz-adv-x="1167" d="M297 1311l319 -701l-135 -633h195l133 633l621 701h-240l-430 -488l-223 488h-240z" />
<glyph unicode="z" horiz-adv-x="1216" d="M92 -23h1022l45 205h-749l948 940l41 189h-1020l-45 -203h747l-946 -940z" />
<glyph unicode="{" horiz-adv-x="821" d="M236 516h71q41 0 64.5 -22.5t15.5 -63.5l-65 -305q-23 -121 43 -221q63 -104 182 -105h104l49 221h-90q-35 0 -60.5 33t-14.5 72l59 287q16 72 -14 151q-10 23 -20.5 38t-24.5 26q18 10 35.5 26.5t35.5 38.5q63 74 80 150l62 286q8 39 45.5 72t72.5 33h90l50 221h-107 q-117 0 -227 -102q-115 -104 -135 -224l-66 -305q-10 -41 -43 -63.5t-74 -22.5h-71z" />
<glyph unicode="|" horiz-adv-x="462" d="M82 -201h211l354 1655h-211z" />
<glyph unicode="}" horiz-adv-x="821" d="M82 -201h106q111 0 226 105q55 51 91 106.5t46 114.5l65 305q8 41 42 63.5t75 22.5h72l47 221h-72q-41 0 -65.5 22.5t-14.5 63.5l66 305q23 121 -45 224q-63 102 -180 102h-105l-49 -221h90q35 0 60.5 -32t15.5 -73l-59 -286q-18 -72 14 -150q10 -23 19.5 -39t23.5 -26 q-35 -20 -72 -64q-63 -80 -78 -151l-61 -287q-4 -18 -16.5 -37.5t-30 -34t-35.5 -24t-37 -9.5h-90z" />
<glyph unicode="~" horiz-adv-x="980" d="M221 475l150 -69q47 84 82 83q47 0 135 -40q92 -45 153 -46q135 0 234 172l-6 27l-131 64q-49 -86 -84 -86q-45 0 -133 43q-96 43 -156 43q-131 0 -244 -191z" />
<glyph unicode="&#xa1;" horiz-adv-x="530" d="M117 -201h211l196 1082h-143zM365 1128q-12 -61 18.5 -104t89.5 -43t108.5 43t63.5 104t-17.5 104.5t-90.5 43.5t-108.5 -43t-63.5 -105z" />
<glyph unicode="&#xa2;" horiz-adv-x="1269" d="M229.5 329.5q14.5 -96.5 63.5 -179.5q51 -80 119.5 -129.5t162.5 -67.5l-38 -191h211l38 191q219 37 392 225l2 29l-140 108q-96 -100 -202 -133l149 711q92 -35 152 -133l200 121q-53 98 -128.5 159.5t-174.5 81.5l41 189h-211l-43 -189q-201 -41 -364 -198 q-86 -84 -141.5 -180.5t-77.5 -206.5q-25 -111 -10.5 -207.5zM443 412.5q-7 58.5 8 124.5q29 135 127 233q82 86 198 123l-151 -711q-101 35 -146 123q-29 49 -36 107.5z" />
<glyph unicode="&#xa3;" horiz-adv-x="1275" d="M213 606h170l-133 -629h889l49 224h-680l86 405h340l47 221h-342l35 158q12 59 43 109.5t78 91.5q98 82 206 82q147 0 209 -150l209 105q-43 123 -141 195.5t-227 72.5q-195 0 -371 -152q-172 -147 -215 -354l-35 -158h-170z" />
<glyph unicode="&#xa4;" horiz-adv-x="1591" d="M217 463h209q31 -233 184 -373q160 -147 400 -147q199 0 407 114l60 277q-113 -86 -215.5 -128t-202.5 -42q-158 0 -266 90q-100 82 -136 209h611l102 186h-731q2 33 12 68q4 16 7.5 33.5t9.5 33.5h778l104 187h-784q84 123 223 209q150 88 303 88q197 0 336 -158 l125 223q-170 158 -414 158q-236 0 -462 -150q-215 -139 -342 -370h-144l-106 -187h170q-4 -16 -7.5 -33.5t-7.5 -33.5q-4 -18 -7 -34.5t-7 -33.5h-104z" />
<glyph unicode="&#xa5;" horiz-adv-x="1464" d="M262 283h426l-65 -306h208l66 306h428l39 186h-426l29 137h426l39 187h-351l586 661h-260l-481 -543l-248 543h-260l301 -661h-350l-39 -187h426l-29 -137h-426z" />
<glyph unicode="&#xa6;" horiz-adv-x="462" d="M82 -201h211l158 742h-211zM279 713h210l158 741h-211z" />
<glyph unicode="&#xa7;" horiz-adv-x="1142" d="M166 193q-41 -195 92 -293q113 -82 274 -82q164 0 312 82q174 98 209 270q37 164 -58 252q131 88 162 231q43 213 -123 291h2q-14 10 -311 72q-147 33 -129 123q16 68 94 100q68 29 150 29q84 0 141 -29q63 -33 51 -98l-6 -25h213q41 188 -84 289q-109 86 -266 86 q-164 0 -301 -86q-168 -100 -203 -266q-33 -168 57 -250q-129 -90 -159 -236q-45 -215 123 -291q12 -6 88.5 -23t218.5 -48q147 -33 129 -121q-27 -131 -262 -131q-47 0 -84 7t-66 17h2q-74 37 -59 101l6 29h-213zM494 653q14 70 92 105q63 31 149 30q43 0 78 -7t68 -23 q77 -39 65 -105q-14 -66 -96 -102q-35 -12 -72 -20.5t-78 -8.5t-76.5 8.5t-68.5 22.5q-76 39 -61 100z" />
<glyph unicode="&#xa8;" horiz-adv-x="802" d="M409.5 1343.5q-10.5 -47.5 14.5 -79t70 -31.5q43 0 81 31.5t48 78.5t-13.5 79t-68.5 32t-83 -31.5t-48.5 -79zM751.5 1343.5q-10.5 -47.5 13 -79t69.5 -31.5q45 0 82 31.5t47 78.5t-13.5 79t-68.5 32q-43 0 -81 -31.5t-48.5 -79z" />
<glyph unicode="&#xa9;" horiz-adv-x="1366" d="M246 565q-51 -246 76 -415q123 -172 356 -173q227 0 428 173q203 173 254 415q53 244 -78 414q-129 172 -356 172q-225 0 -430 -174q-98 -86 -162 -188.5t-88 -223.5zM379 565q41 184 190 314q150 131 328 131q174 0 270 -131q99 -132 58 -314q-37 -184 -191 -315 q-152 -129 -325 -129q-180 0 -273 129q-96 131 -57 315zM437.5 411.5q11.5 -69.5 56.5 -128.5q86 -117 241 -117q152 0 293 119l6 30l-59 74q-53 -47 -106.5 -68.5t-106.5 -21.5q-106 0 -160 78q-29 37 -38 85t3 103q25 113 113 187q88 78 194 77q53 0 97.5 -21.5 t79.5 -68.5l106 90q-94 133 -254 134q-156 0 -293 -119q-135 -117 -168 -279q-16 -84 -4.5 -153.5z" />
<glyph unicode="&#xaa;" horiz-adv-x="1110" d="M344 1030q-37 -184 49 -313q84 -137 258 -137t316 129l-23 -103h168l182 848h-170l-22 -102q-88 131 -258 131q-174 0 -318 -137q-141 -129 -182 -316zM512 1030q25 111 117 195q98 80 205 80q106 0 161 -82q64 -82 39 -193q-25 -117 -119 -194q-90 -80 -198 -80 q-106 0 -170 82q-59 84 -35 192z" />
<glyph unicode="&#xab;" horiz-adv-x="1431" d="M199 342l448 -373l133 156l-360 301l487 301l-65 156l-606 -373zM762 342l446 -373l131 156l-358 301l487 301l-65 156l-606 -373z" />
<glyph unicode="&#xac;" d="M221 444h545l-41 -180h178l78 367h-721z" />
<glyph unicode="&#xad;" d="M221 444h721l39 187h-721z" />
<glyph unicode="&#xae;" horiz-adv-x="1366" d="M246 565q-51 -246 76 -415q123 -172 356 -173q227 0 428 173q203 173 254 415q53 244 -78 414q-129 172 -356 172q-225 0 -430 -174q-98 -86 -162 -188.5t-88 -223.5zM379 565q41 184 190 314q8 6 15.5 12l17.5 14l-145 -684q-6 6 -11.5 13.5t-9.5 15.5q-96 131 -57 315z M498 184h77l66 314h82q78 0 100 -54l105 -260h14q-113 -63 -233 -63q-127 0 -211 63zM662 944q115 66 235 66q174 0 270 -131q99 -132 58 -314q-37 -174 -178 -303l-82 207l-2 -2q-8 16 -15.5 30.5t-11.5 24.5q63 27 109.5 81t62.5 120q20 98 -39 158q-57 63 -147 63h-260z M670 631l39 180h184q41 0 69.5 -23.5t18.5 -64.5t-48 -66.5t-79 -25.5h-184z" />
<glyph unicode="&#xaf;" horiz-adv-x="802" d="M393 1268h553l41 186h-551z" />
<glyph unicode="&#xb0;" horiz-adv-x="665" d="M387 1150q8 -40 29.5 -68.5t56.5 -46t78 -17.5t84 17.5t75.5 46t59.5 68.5t35 87q18 92 -28 154.5t-134 62.5q-43 0 -85 -17.5t-75.5 -46t-59.5 -68.5t-34 -85q-10 -47 -2 -87zM498 1237q8 43 44 72.5t76 29.5q41 0 63.5 -29.5t12.5 -72.5t-45 -73.5t-76 -30.5 t-63.5 30.5t-11.5 73.5z" />
<glyph unicode="&#xb1;" d="M121 -23h721l41 187h-721zM258 623h272l-61 -287h178l62 287h272l39 186h-272l61 287h-178l-62 -287h-272z" />
<glyph unicode="&#xb2;" horiz-adv-x="802" d="M272 694h551l29 133h-383q27 23 58.5 46.5t76.5 46.5q84 47 134 75.5t69 42.5q111 82 131 195q25 113 -49 180q-68 59 -174 60q-104 0 -195 -54q-109 -66 -135 -198h127q14 70 66 96q49 23 102 22q70 0 100 -24q47 -31 33 -82q-14 -76 -133 -146h2l-231 -133 q-143 -100 -179 -260z" />
<glyph unicode="&#xb3;" horiz-adv-x="813" d="M295 836q55 -158 242 -158q115 0 215 59q106 74 135 195q25 123 -68 188q84 49 105 144q23 106 -58 161q-57 47 -157 48q-203 0 -291 -162l106 -45q43 74 156 73q133 0 115 -75q-6 -33 -56 -58q-45 -20 -92 -20h-72l-28 -133h71q70 0 105 -29q47 -33 37 -92 q-12 -59 -72 -94q-53 -29 -123 -29q-117 0 -145 94z" />
<glyph unicode="&#xb4;" horiz-adv-x="565" d="M367 1196h145l260 258h-227z" />
<glyph unicode="&#xb5;" horiz-adv-x="1177" d="M45 -381h211l94 438q68 -115 228 -114q154 0 274 114l-16 -80h211l237 1119h-211l-141 -666q-25 -113 -113 -188q-43 -37 -92 -57.5t-102 -20.5q-104 0 -162 78q-59 78 -35 188l141 666h-211z" />
<glyph unicode="&#xb6;" horiz-adv-x="1468" d="M343 860q17 -78 75 -137q104 -115 262 -117l-209 -987h211l342 1614h164l-342 -1614h211l342 1614h205l49 221h-772q-174 0 -332 -115q-166 -125 -205 -309q-18 -92 -1 -170z" />
<glyph unicode="&#xb7;" horiz-adv-x="530" d="M240 537q-14 -61 17.5 -103.5t90.5 -42.5t108.5 42.5t63.5 103.5q12 63 -19.5 105t-90.5 42q-57 0 -106.5 -42t-63.5 -105z" />
<glyph unicode="&#xb8;" horiz-adv-x="565" d="M37 -381h166q66 0 121 48t69 118q10 53 -10.5 96t-60.5 60l49 116h-109l-86 -204h76q29 0 42 -19.5t7 -48.5t-28.5 -48.5t-51.5 -19.5h-131z" />
<glyph unicode="&#xb9;" horiz-adv-x="559" d="M383 1243l66 -88l126 113l-122 -574h127l161 760h-110z" />
<glyph unicode="&#xba;" horiz-adv-x="1110" d="M339 858q13 -80 64 -147q98 -131 277 -131q172 0 328 131q157 139 194 319q39 182 -59 318q-102 135 -273 135q-178 0 -331 -135q-156 -133 -195 -318q-18 -92 -5 -172zM512 1030q25 111 117 195q98 80 205 80q106 0 161 -82q64 -82 39 -193q-25 -117 -119 -194 q-90 -80 -198 -80q-106 0 -168 80q-59 86 -37 194z" />
<glyph unicode="&#xbb;" horiz-adv-x="1431" d="M145 125l64 -156l608 373l35 168l-446 373l-134 -156l361 -301zM707 125l63 -156l610 373l35 168l-448 373l-133 -156l362 -301z" />
<glyph unicode="&#xbc;" d="M264 659h723l25 115h-721zM270 92h297l-24 -115h108l27 115h67l25 115h-68l82 387h-90l-401 -401zM432 207l203 201l-41 -201h-162zM625 1280l57 -72l98 84l-98 -454h111l131 616h-95z" />
<glyph unicode="&#xbd;" d="M258 -23h449l24 115h-299q16 16 41 32.5t55 35.5q131 70 162 92q47 35 72.5 74t36.5 86q18 90 -41 149q-53 47 -140 47q-86 0 -159 -43q-86 -51 -111 -168h109q12 57 51 78q37 18 84 19q25 0 44 -4.5t30 -14.5q18 -10 23 -26.5t1 -36.5q-8 -29 -32.5 -56.5t-71.5 -56.5h2 q-47 -27 -93 -53.5t-94 -52.5q-113 -80 -143 -216zM264 659h723l25 115h-721zM625 1280l57 -72l98 84l-98 -454h111l131 616h-95z" />
<glyph unicode="&#xbe;" d="M264 659h723l25 115h-721zM270 92h297l-24 -115h108l27 115h67l25 115h-68l82 387h-90l-401 -401zM432 207l203 201l-41 -201h-162zM457 956q37 -133 196 -133q92 0 170 51q93 58 113 158q23 100 -53 150q66 43 84 114q18 86 -43 136q-53 37 -133 36q-162 0 -240 -137 l94 -39q33 61 121 62q102 0 90 -58q-6 -23 -41 -41q-37 -16 -74 -16h-61l-25 -115h62q23 0 44 -5t38 -19q39 -29 26 -68q-6 -49 -53 -71q-39 -23 -94 -23q-90 0 -113 78z" />
<glyph unicode="&#xbf;" horiz-adv-x="905" d="M150 117q-29 -147 43 -248q74 -106 210 -107q137 0 252 107q119 104 150 248l-17 20h-192q-6 -31 -21.5 -57.5t-35 -48t-43 -33.5t-45.5 -12q-49 0 -74 38.5t-15 92.5q18 88 113 157q47 35 85 63t85 62q125 106 154 240q2 8 6 40t10 91q4 20 7 53t7 58h-139 q-20 -59 -35.5 -113.5t-25.5 -83.5q-45 -133 -150 -201q-45 -29 -91 -56.5t-93 -55.5q-109 -84 -145 -254zM671.5 1128.5q-14.5 -61.5 17.5 -104.5t91 -43t108.5 43t63.5 104q12 61 -19.5 104.5t-90.5 43.5t-107.5 -43t-63 -104.5z" />
<glyph unicode="&#xc0;" horiz-adv-x="1296" d="M27 -23h223l182 324h559l41 -324h225l-194 1477h-211zM555 522l328 588l78 -588h-406zM766 1812l149 -258h146l-68 258h-227z" />
<glyph unicode="&#xc1;" horiz-adv-x="1296" d="M27 -23h223l182 324h559l41 -324h225l-194 1477h-211zM555 522l328 588l78 -588h-406zM891 1554h147l258 258h-227z" />
<glyph unicode="&#xc2;" horiz-adv-x="1296" d="M27 -23h223l182 324h559l41 -324h225l-194 1477h-211zM555 522l328 588l78 -588h-406zM733 1554h152l116 117l66 -117h154l-109 258h-160z" />
<glyph unicode="&#xc3;" horiz-adv-x="1296" d="M27 -23h223l182 324h559l41 -324h225l-194 1477h-211zM555 522l328 588l78 -588h-406zM709 1628l118 -74q49 96 68 97q39 0 92 -45q37 -25 64.5 -38.5t50.5 -13.5q106 0 192 175l-6 26l-102 66q-49 -96 -66 -97q-35 0 -96 43q-68 51 -113 52q-109 0 -202 -191z" />
<glyph unicode="&#xc4;" horiz-adv-x="1296" d="M27 -23h223l182 324h559l41 -324h225l-194 1477h-211zM555 522l328 588l78 -588h-406zM727 1667q-10 -47 13.5 -80t68.5 -33q43 0 81 33t48 80t-13.5 79t-68.5 32t-82 -32t-47 -79zM1067 1667q-10 -47 13.5 -80t68.5 -33t83 33t48 80t-14.5 79t-69.5 32q-43 0 -81 -32 t-48 -79z" />
<glyph unicode="&#xc5;" horiz-adv-x="1296" d="M27 -23h223l182 324h559l41 -324h225l-186 1409q90 61 115 173q18 90 -31 153q-47 66 -131 66q-82 0 -160 -66q-76 -63 -94 -153q-25 -115 41 -175zM555 522l328 588l78 -588h-406zM880.5 1559q10.5 43 44 73.5t74.5 30.5t64.5 -30.5t13.5 -73.5t-45 -74t-76 -31 t-63.5 31t-12 74z" />
<glyph unicode="&#xc6;" horiz-adv-x="1982" d="M27 -23h223l182 324h559l41 -324h817l49 224h-614l86 405h445l47 221h-445l86 406h613l49 221h-824l-172 -807l-106 807h-211zM555 522l328 588l78 -588h-406z" />
<glyph unicode="&#xc7;" horiz-adv-x="1454" d="M236 717q-61 -297 79 -518q135 -213 394 -250l-58 -131h76q29 0 44 -20.5t9 -49.5t-29.5 -48t-52.5 -19h-133l-49 -97h164q66 0 121 48.5t69 115.5q12 53 -9 96t-62 62l16 37q299 6 559 227l8 31l-108 137q-205 -174 -420 -174q-217 0 -336 162q-121 162 -72 391 q49 227 236 391q190 160 405 160t349 -172l182 151q-180 244 -481 244t-570 -229q-264 -227 -331 -545z" />
<glyph unicode="&#xc8;" horiz-adv-x="1245" d="M121 -23h993l49 224h-784l86 405h614l45 221h-612l86 406h784l48 221h-994zM741 1812l150 -258h145l-67 258h-228z" />
<glyph unicode="&#xc9;" horiz-adv-x="1245" d="M121 -23h993l49 224h-784l86 405h614l45 221h-612l86 406h784l48 221h-994zM866 1554h148l260 258h-227z" />
<glyph unicode="&#xca;" horiz-adv-x="1245" d="M121 -23h993l49 224h-784l86 405h614l45 221h-612l86 406h784l48 221h-994zM709 1554h151l119 117l65 -117h152l-109 258h-159z" />
<glyph unicode="&#xcb;" horiz-adv-x="1245" d="M121 -23h993l49 224h-784l86 405h614l45 221h-612l86 406h784l48 221h-994zM702.5 1667q-10.5 -47 12 -80t67.5 -33t83 33t48 80t-13 79t-69 32q-47 0 -82.5 -32t-46 -79zM1042.5 1667q-10.5 -47 12 -80t69.5 -33q43 0 81 33t48 80t-13 79t-69 32q-47 0 -82.5 -32 t-46 -79z" />
<glyph unicode="&#xcc;" horiz-adv-x="462" d="M121 -23h211l315 1477h-211zM350 1812l150 -258h145l-67 258h-228z" />
<glyph unicode="&#xcd;" horiz-adv-x="462" d="M121 -23h211l315 1477h-211zM477 1554h146l258 258h-228z" />
<glyph unicode="&#xce;" horiz-adv-x="462" d="M121 -23h211l315 1477h-211zM317 1554h152l117 117l65 -117h154l-109 258h-159z" />
<glyph unicode="&#xcf;" horiz-adv-x="462" d="M121 -23h211l315 1477h-211zM309 1667q-10 -47 13.5 -80t68.5 -33t83 33t48 80t-14.5 79t-69.5 32t-82 -32t-47 -79zM651.5 1667q-10.5 -47 12 -80t67.5 -33t83 33t48 80t-14.5 79t-67.5 32q-45 0 -81.5 -32t-47 -79z" />
<glyph unicode="&#xd0;" horiz-adv-x="1595" d="M221 641h170l-141 -664h530q289 0 539 218q256 219 319 522q66 307 -96 520q-156 217 -446 217h-531l-135 -627h-170zM508 201l92 440h340l41 186h-342l86 406h322q205 0 315 -151.5t65 -364.5q-47 -219 -219 -367q-174 -150 -381 -149h-319z" />
<glyph unicode="&#xd1;" horiz-adv-x="1382" d="M121 -23h211l227 1065l492 -1065h200l316 1477h-213l-228 -1063l-489 1063h-201zM754 1628l118 -74q49 96 66 97q41 0 94 -45q37 -25 64.5 -38.5t50.5 -13.5q104 0 190 175l-4 26l-104 66q-45 -96 -64 -97q-39 0 -96 43q-70 51 -115 52q-106 0 -200 -191z" />
<glyph unicode="&#xd2;" horiz-adv-x="1638" d="M226.5 421q23.5 -136 109.5 -251q168 -227 471 -227q299 0 567 227q264 228 332 547q68 317 -98 547q-170 227 -471 227q-303 0 -570 -227q-264 -231 -331 -547q-33 -160 -9.5 -296zM446 717q49 227 236 391q190 160 405 160q217 0 338 -160q119 -162 72 -391 q-25 -115 -85 -212t-152 -179q-190 -162 -406 -162q-217 0 -336 162q-121 162 -72 391zM938 1812l149 -258h146l-68 258h-227z" />
<glyph unicode="&#xd3;" horiz-adv-x="1638" d="M226.5 421q23.5 -136 109.5 -251q168 -227 471 -227q299 0 567 227q264 228 332 547q68 317 -98 547q-170 227 -471 227q-303 0 -570 -227q-264 -231 -331 -547q-33 -160 -9.5 -296zM446 717q49 227 236 391q190 160 405 160q217 0 338 -160q119 -162 72 -391 q-25 -115 -85 -212t-152 -179q-190 -162 -406 -162q-217 0 -336 162q-121 162 -72 391zM1063 1554h147l258 258h-227z" />
<glyph unicode="&#xd4;" horiz-adv-x="1638" d="M226.5 421q23.5 -136 109.5 -251q168 -227 471 -227q299 0 567 227q264 228 332 547q68 317 -98 547q-170 227 -471 227q-303 0 -570 -227q-264 -231 -331 -547q-33 -160 -9.5 -296zM446 717q49 227 236 391q190 160 405 160q217 0 338 -160q119 -162 72 -391 q-25 -115 -85 -212t-152 -179q-190 -162 -406 -162q-217 0 -336 162q-121 162 -72 391zM905 1554h152l117 117l65 -117h154l-109 258h-160z" />
<glyph unicode="&#xd5;" horiz-adv-x="1638" d="M226.5 421q23.5 -136 109.5 -251q168 -227 471 -227q299 0 567 227q264 228 332 547q68 317 -98 547q-170 227 -471 227q-303 0 -570 -227q-264 -231 -331 -547q-33 -160 -9.5 -296zM446 717q49 227 236 391q190 160 405 160q217 0 338 -160q119 -162 72 -391 q-25 -115 -85 -212t-152 -179q-190 -162 -406 -162q-217 0 -336 162q-121 162 -72 391zM881 1628l118 -74q49 96 68 97q39 0 92 -45q37 -25 64.5 -38.5t50.5 -13.5q106 0 192 175l-6 26l-104 66q-45 -96 -64 -97q-35 0 -96 43q-68 51 -113 52q-109 0 -202 -191z" />
<glyph unicode="&#xd6;" horiz-adv-x="1638" d="M226.5 421q23.5 -136 109.5 -251q168 -227 471 -227q299 0 567 227q264 228 332 547q68 317 -98 547q-170 227 -471 227q-303 0 -570 -227q-264 -231 -331 -547q-33 -160 -9.5 -296zM446 717q49 227 236 391q190 160 405 160q217 0 338 -160q119 -162 72 -391 q-25 -115 -85 -212t-152 -179q-190 -162 -406 -162q-217 0 -336 162q-121 162 -72 391zM897 1667q-10 -47 13.5 -80t68.5 -33t83 33t48 80t-14.5 79t-69.5 32t-82 -32t-47 -79zM1239 1667q-10 -47 12.5 -80t67.5 -33t83 33t48 80t-14.5 79t-67.5 32q-45 0 -82 -32t-47 -79z " />
<glyph unicode="&#xd7;" horiz-adv-x="966" d="M178 285l98 -131l293 254l187 -254l153 131l-186 252l293 254l-96 131l-295 -254l-187 254l-151 -131l186 -254z" />
<glyph unicode="&#xd8;" horiz-adv-x="1638" d="M45 55l61 -84l240 189q168 -217 461 -217q299 0 567 227q264 227 332 547q55 264 -51 469l243 192l-63 84l-238 -188q-172 217 -460 217q-303 0 -570 -227q-264 -231 -331 -547q-55 -264 51 -471zM446 717q49 227 236 391q190 160 405 160q207 0 324 -142l-934 -733 q-70 138 -31 324zM530 305l936 733q68 -141 31 -321q-25 -115 -85 -212t-152 -179q-190 -162 -406 -162q-102 0 -183 34.5t-141 106.5z" />
<glyph unicode="&#xd9;" horiz-adv-x="1347" d="M223 537q-53 -246 78 -418q131 -176 361 -176q233 0 434 176q205 172 258 418l196 917h-211l-196 -917q-35 -158 -162 -265q-125 -109 -272 -108q-145 0 -230 108q-80 111 -43 265l195 917h-211zM795 1812l147 -258h145l-67 258h-225z" />
<glyph unicode="&#xda;" horiz-adv-x="1347" d="M223 537q-53 -246 78 -418q131 -176 361 -176q233 0 434 176q205 172 258 418l196 917h-211l-196 -917q-35 -158 -162 -265q-125 -109 -272 -108q-145 0 -230 108q-80 111 -43 265l195 917h-211zM920 1554h145l260 258h-229z" />
<glyph unicode="&#xdb;" horiz-adv-x="1347" d="M223 537q-53 -246 78 -418q131 -176 361 -176q233 0 434 176q205 172 258 418l196 917h-211l-196 -917q-35 -158 -162 -265q-125 -109 -272 -108q-145 0 -230 108q-80 111 -43 265l195 917h-211zM760 1554h151l117 117l68 -117h151l-108 258h-158z" />
<glyph unicode="&#xdc;" horiz-adv-x="1347" d="M223 537q-53 -246 78 -418q131 -176 361 -176q233 0 434 176q205 172 258 418l196 917h-211l-196 -917q-35 -158 -162 -265q-125 -109 -272 -108q-145 0 -230 108q-80 111 -43 265l195 917h-211zM751.5 1667q-10.5 -47 13 -80t69.5 -33q45 0 83 33t48 80t-14.5 79 t-69.5 32q-43 0 -81 -32t-48.5 -79zM1093.5 1667q-10.5 -47 12 -80t68.5 -33q45 0 83 33t48 80t-13.5 79t-68.5 32t-82 -32t-47.5 -79z" />
<glyph unicode="&#xdd;" horiz-adv-x="1294" d="M332 1454l354 -774l-149 -703h211l149 703l686 774h-262l-481 -543l-246 543h-262zM891 1554h147l258 258h-227z" />
<glyph unicode="&#xde;" horiz-adv-x="1239" d="M121 -23h211l67 316h389q170 0 336 117q158 121 201 307q37 182 -72 307q-111 117 -286 117h-387l67 313h-211zM446 514l86 406h390q92 0 147 -56q61 -59 43 -147t-102 -148q-86 -55 -174 -55h-390z" />
<glyph unicode="&#xdf;" horiz-adv-x="1296" d="M82 -201h211l233 1096q16 74 50 138.5t88 119.5q102 115 235 115q279 0 242 -174q-18 -84 -129 -133q-92 -43 -193 -43h-125l-47 -224h123q139 0 225 -65q98 -74 72 -199q-25 -129 -156 -205q-111 -61 -252 -61q-63 0 -149 22l-94 -215q49 -16 98 -22t96 -6 q229 0 410 118q211 138 260 369q29 141 -29 246h2q-41 80 -129 131q186 90 230 287q43 203 -97 309q-57 43 -132.5 65.5t-176.5 22.5q-221 0 -407 -184q-172 -172 -226 -412z" />
<glyph unicode="&#xe0;" horiz-adv-x="1169" d="M23 -23h204l164 291h502l37 -291h207l-176 1334h-193zM506 473l289 520l71 -520h-360zM688 1634l135 -237h138l-64 237h-209z" />
<glyph unicode="&#xe1;" horiz-adv-x="1169" d="M23 -23h204l164 291h502l37 -291h207l-176 1334h-193zM506 473l289 520l71 -520h-360zM801 1397h137l238 237h-211z" />
<glyph unicode="&#xe2;" horiz-adv-x="1169" d="M23 -23h204l164 291h502l37 -291h207l-176 1334h-193zM506 473l289 520l71 -520h-360zM657 1397h142l104 104l60 -104h141l-98 237h-148z" />
<glyph unicode="&#xe3;" horiz-adv-x="1169" d="M23 -23h204l164 291h502l37 -291h207l-176 1334h-193zM506 473l289 520l71 -520h-360zM637 1464l113 -69q39 88 57 88q33 0 82 -41q31 -23 56.5 -34t49.5 -11q94 0 172 157l-4 27l-96 59q-43 -86 -57 -86q-33 0 -84 37h2q-61 49 -107 49q-96 0 -184 -176z" />
<glyph unicode="&#xe4;" horiz-adv-x="1169" d="M23 -23h204l164 291h502l37 -291h207l-176 1334h-193zM506 473l289 520l71 -520h-360zM653.5 1499q-10.5 -43 12 -72.5t63.5 -29.5t75 29.5t44 72.5t-12.5 73t-63.5 30t-74.5 -30t-44 -73zM960.5 1499q-10.5 -43 12 -72.5t63.5 -29.5t74 29.5t43 72.5t-11.5 73t-62.5 30 t-74.5 -30t-44 -73z" />
<glyph unicode="&#xe5;" horiz-adv-x="1169" d="M23 -23h204l164 291h502l37 -291h207l-170 1270q84 55 102 156q18 78 -25 137q-39 61 -120 62q-76 0 -144 -62q-70 -57 -88 -137q-10 -47 0 -88t39 -70zM506 473l289 520l71 -520h-360zM795 1403q8 39 38.5 65.5t67.5 26.5q35 0 55.5 -26.5t10.5 -65.5q-8 -37 -38 -64.5 t-65 -27.5q-37 0 -58.5 27.5t-10.5 64.5z" />
<glyph unicode="&#xe6;" horiz-adv-x="1787" d="M23 -23h204l164 291h502l37 -291h739l43 205h-551l76 361h397l45 205h-397l74 360h553l45 203h-746l-153 -717l-94 717h-193zM506 473l289 520l71 -520h-360z" />
<glyph unicode="&#xe7;" horiz-adv-x="1310" d="M213 645q-59 -268 70 -467q121 -190 352 -225l-49 -119h71q23 0 36.5 -18.5t6.5 -40.5q-4 -25 -24.5 -42.5t-42.5 -17.5h-123l-47 -92h149q59 0 109.5 44t64.5 108q10 47 -6 86t-57 55l14 31q270 4 502 205l8 30l-96 125q-94 -78 -188.5 -117.5t-192.5 -39.5 q-197 0 -301 145q-109 143 -61 350q43 205 210 348q164 145 363 146q195 0 311 -158l168 143q-158 219 -436 219q-137 0 -266 -51t-248 -155q-238 -205 -297 -492z" />
<glyph unicode="&#xe8;" horiz-adv-x="1124" d="M109 -23h899l45 205h-705l74 361h553l45 205h-553l76 360h704l45 203h-899zM668 1634l137 -237h133l-61 237h-209z" />
<glyph unicode="&#xe9;" horiz-adv-x="1124" d="M109 -23h899l45 205h-705l74 361h553l45 205h-553l76 360h704l45 203h-899zM780 1397h138l235 237h-211z" />
<glyph unicode="&#xea;" horiz-adv-x="1124" d="M109 -23h899l45 205h-705l74 361h553l45 205h-553l76 360h704l45 203h-899zM637 1397h143l101 104l61 -104h141l-100 237h-145z" />
<glyph unicode="&#xeb;" horiz-adv-x="1124" d="M109 -23h899l45 205h-705l74 361h553l45 205h-553l76 360h704l45 203h-899zM633 1499q-10 -43 11.5 -72.5t64.5 -29.5q41 0 73.5 29.5t42.5 72.5t-11 73t-62 30q-43 0 -76 -30t-43 -73zM938 1499q-10 -43 12.5 -72.5t63.5 -29.5t75 29.5t44 72.5t-12.5 73t-63.5 30 t-75 -30t-44 -73z" />
<glyph unicode="&#xec;" horiz-adv-x="421" d="M109 -23h194l285 1334h-195zM315 1634l136 -237h135l-62 237h-209z" />
<glyph unicode="&#xed;" horiz-adv-x="421" d="M109 -23h194l285 1334h-195zM428 1397h137l238 237h-211z" />
<glyph unicode="&#xee;" horiz-adv-x="421" d="M109 -23h194l285 1334h-195zM285 1397h141l104 104l60 -104h141l-98 237h-148z" />
<glyph unicode="&#xef;" horiz-adv-x="421" d="M109 -23h194l285 1334h-195zM278.5 1499q-10.5 -43 12 -72.5t63.5 -29.5t75 29.5t44 72.5t-12.5 73t-63.5 30t-74.5 -30t-44 -73zM585.5 1499q-10.5 -43 12.5 -72.5t64 -29.5t74.5 29.5t43.5 72.5t-12.5 73t-62.5 30q-41 0 -75 -30t-44.5 -73z" />
<glyph unicode="&#xf0;" horiz-adv-x="1439" d="M197 575h153l-129 -598h481q258 0 490 197q228 201 289 471q55 279 -90 471q-139 195 -404 195h-479l-121 -563h-151zM463 182l82 393h307l37 173h-307l75 360h285q186 0 283 -135q53 -68 66 -149t-7 -179q-43 -195 -197 -328q-158 -135 -339 -135h-285z" />
<glyph unicode="&#xf1;" horiz-adv-x="1247" d="M109 -23h194l205 955l438 -955h184l285 1334h-194l-203 -953l-440 953h-185zM680 1464l108 -69q20 45 36 66.5t22 21.5q35 0 82 -41q63 -45 106 -45q94 0 172 157l-4 27l-92 61q-43 -88 -59 -88q-39 0 -84 37q-59 49 -105 49q-100 0 -182 -176z" />
<glyph unicode="&#xf2;" horiz-adv-x="1478" d="M213 645q-61 -291 90 -495v2q154 -205 424 -205q276 0 512 205q240 206 301 493q61 289 -90 494q-150 205 -426 204q-274 0 -512 -204q-121 -104 -195.5 -226t-103.5 -268zM408 645q43 205 210 348q164 145 363 146q193 0 301 -146q105 -143 64 -348q-23 -104 -75 -190 t-138 -160q-168 -145 -363 -145q-197 0 -301 145q-109 143 -61 350zM842 1634l139 -237h133l-61 237h-211z" />
<glyph unicode="&#xf3;" horiz-adv-x="1478" d="M213 645q-61 -291 90 -495v2q154 -205 424 -205q276 0 512 203q240 204 301 495q61 289 -90 494q-150 205 -426 204q-274 0 -512 -204q-121 -104 -195.5 -226t-103.5 -268zM408 645q43 205 210 348q164 145 363 146q193 0 301 -146q105 -143 64 -348q-23 -104 -75 -190 t-138 -160q-168 -145 -363 -145q-197 0 -301 145q-109 143 -61 350zM956 1397h138l235 237h-211z" />
<glyph unicode="&#xf4;" horiz-adv-x="1478" d="M213 645q-61 -291 90 -495v2q154 -205 424 -205q276 0 512 203q240 204 301 495q61 289 -90 494q-150 205 -426 204q-274 0 -512 -204q-121 -104 -195.5 -226t-103.5 -268zM408 645q43 205 210 348q164 145 363 146q193 0 301 -146q105 -143 64 -348q-23 -104 -75 -190 t-138 -160q-168 -145 -363 -145q-197 0 -301 145q-109 143 -61 350zM813 1397h141l103 104l61 -104h142l-101 237h-147z" />
<glyph unicode="&#xf5;" horiz-adv-x="1478" d="M213 645q-61 -291 90 -495v2q154 -205 424 -205q276 0 512 203q240 204 301 495q61 289 -90 494q-150 205 -426 204q-274 0 -512 -204q-121 -104 -195.5 -226t-103.5 -268zM408 645q43 205 210 348q164 145 363 146q193 0 301 -146q105 -143 64 -348q-23 -104 -75 -190 t-138 -160q-168 -145 -363 -145q-197 0 -301 145q-109 143 -61 350zM795 1464l108 -69q43 88 58 88q16 0 35.5 -8.5t41.5 -26.5q35 -25 62.5 -38t50.5 -13q94 0 172 157l-6 27l-94 59q-41 -86 -58 -86q-35 0 -84 37q-59 49 -104 49q-100 0 -182 -176z" />
<glyph unicode="&#xf6;" horiz-adv-x="1478" d="M213 645q-61 -291 90 -495v2q154 -205 424 -205q276 0 512 205q240 206 301 493q61 289 -90 494q-150 205 -426 204q-274 0 -512 -204q-121 -104 -195.5 -226t-103.5 -268zM408 645q43 205 210 348q164 145 363 146q193 0 301 -146q105 -143 64 -348q-23 -104 -75 -190 t-138 -160q-168 -145 -363 -145q-197 0 -301 145q-109 143 -61 350zM809 1499q-10 -43 11.5 -72.5t62.5 -29.5t74.5 29.5t43.5 72.5t-12 73t-63 30t-74 -30t-43 -73zM1114 1499q-10 -43 12.5 -72.5t63.5 -29.5t75 29.5t44 72.5t-12.5 73t-63.5 30t-75 -30t-44 -73z" />
<glyph unicode="&#xf7;" d="M221 444h721l39 187h-721zM374.5 124.5q-14.5 -61.5 16.5 -104.5t90 -43t109.5 43.5t62.5 104.5q14 61 -17.5 104t-90.5 43t-107.5 -43t-63 -104.5zM551 950q-14 -63 16.5 -105t89.5 -42t108.5 42t63.5 105q12 61 -19.5 103.5t-88.5 42.5q-59 0 -109.5 -42t-60.5 -104z " />
<glyph unicode="&#xf8;" horiz-adv-x="1478" d="M39 49l59 -78l211 166q154 -190 418 -190q276 0 512 203q240 205 301 495q49 233 -47 422l219 172l-57 80l-215 -170q-74 98 -179.5 146t-236.5 48q-274 0 -512 -204q-121 -104 -195.5 -226t-103.5 -268q-51 -236 45 -424zM396.5 495.5q-6.5 69.5 11.5 149.5 q43 205 210 348q164 145 363 146q180 0 287 -125l-834 -654q-31 66 -37.5 135.5zM485 276l834 654q29 -66 36 -136.5t-9 -148.5q-23 -104 -75 -190t-138 -160q-168 -145 -363 -145q-180 0 -285 126z" />
<glyph unicode="&#xf9;" horiz-adv-x="1216" d="M201 483q-47 -225 69 -379l2 2q115 -160 326 -159q209 0 395 159l-2 -2q94 78 151.5 173t80.5 206l176 828h-193l-178 -828q-29 -141 -143 -235q-115 -98 -244 -98q-135 0 -205 98q-72 94 -43 235l178 828h-192zM713 1634l139 -237h133l-61 237h-211z" />
<glyph unicode="&#xfa;" horiz-adv-x="1216" d="M201 483q-47 -225 69 -379l2 2q115 -160 326 -159q209 0 395 159l-2 -2q94 78 151.5 173t80.5 206l176 828h-193l-178 -828q-29 -141 -143 -235q-115 -98 -244 -98q-135 0 -205 98q-72 94 -43 235l178 828h-192zM825 1397h138l237 237h-211z" />
<glyph unicode="&#xfb;" horiz-adv-x="1216" d="M201 483q-47 -225 69 -379l2 2q115 -160 326 -159q209 0 395 159l-2 -2q94 78 151.5 173t80.5 206l176 828h-193l-178 -828q-29 -141 -143 -235q-115 -98 -244 -98q-135 0 -205 98q-72 94 -43 235l178 828h-192zM684 1397h139l105 104l61 -104h141l-100 237h-147z" />
<glyph unicode="&#xfc;" horiz-adv-x="1216" d="M201 483q-47 -225 69 -379l2 2q115 -160 326 -159q209 0 395 159l-2 -2q94 78 151.5 173t80.5 206l176 828h-193l-178 -828q-29 -141 -143 -235q-115 -98 -244 -98q-135 0 -205 98q-72 94 -43 235l178 828h-192zM678 1499q-10 -43 11.5 -72.5t64.5 -29.5q41 0 74.5 29.5 t43.5 72.5t-12 73t-63 30q-43 0 -76 -30t-43 -73zM983 1499q-10 -43 12.5 -72.5t65.5 -29.5q41 0 75 29.5t44 72.5t-12.5 73t-63.5 30q-43 0 -77 -30t-44 -73z" />
<glyph unicode="&#xfd;" horiz-adv-x="1167" d="M297 1311l319 -701l-135 -633h195l133 633l621 701h-240l-430 -488l-223 488h-240zM801 1397h137l238 237h-211z" />
<glyph unicode="&#xfe;" horiz-adv-x="1118" d="M109 -23h194l62 283h346q160 0 303 107q145 112 182 278q37 164 -66 279q-96 104 -256 104h-348l62 283h-195zM408 465l75 358h348q84 0 134 -47q51 -55 39 -131q-8 -39 -33 -70.5t-62 -60.5q-70 -49 -155 -49h-346z" />
<glyph unicode="&#xff;" horiz-adv-x="1167" d="M297 1311l319 -701l-135 -633h195l133 633l621 701h-240l-430 -488l-223 488h-240zM651.5 1499q-10.5 -43 12 -72.5t63.5 -29.5t75 29.5t44 72.5t-12.5 73t-63.5 30t-74.5 -30t-44 -73zM958.5 1499q-10.5 -43 12 -72.5t63.5 -29.5t75 29.5t44 72.5t-12.5 73t-63.5 30 t-74.5 -30t-44 -73z" />
<glyph unicode="&#x152;" horiz-adv-x="2293" d="M226.5 421q23.5 -136 109.5 -251q168 -227 471 -227q313 0 573 229l-41 -195h822l49 224h-613l86 405h443l45 221h-442l86 406h614l47 221h-821l-43 -194q-164 231 -475 231q-303 0 -570 -227q-264 -231 -331 -547q-33 -160 -9.5 -296zM446 717q49 227 236 391 q190 160 405 160q217 0 338 -160q119 -162 72 -391q-25 -115 -85 -212t-152 -179q-190 -162 -406 -162q-217 0 -336 162q-121 162 -72 391z" />
<glyph unicode="&#x153;" horiz-adv-x="2068" d="M213 645q-61 -291 90 -495v2q154 -205 424 -205q279 0 512 203l-37 -173h748l45 205h-553l76 361h397l45 205h-397l75 360h551l45 203h-747l-37 -172q-147 205 -426 204q-274 0 -512 -204q-121 -104 -195.5 -226t-103.5 -268zM408 645q43 205 210 348q164 145 363 146 q193 0 301 -146q105 -143 64 -348q-23 -104 -75 -190t-138 -160q-168 -145 -363 -145q-197 0 -301 145q-109 143 -61 350z" />
<glyph unicode="&#x178;" horiz-adv-x="1294" d="M332 1454l354 -774l-149 -703h211l149 703l686 774h-262l-481 -543l-246 543h-262zM725 1667q-10 -47 13.5 -80t68.5 -33t83 33t48 80t-14.5 79t-69.5 32t-82 -32t-47 -79zM1067 1667q-10 -47 12.5 -80t67.5 -33t83 33t48 80t-14.5 79t-67.5 32q-45 0 -82 -32t-47 -79z " />
<glyph unicode="&#x2c6;" horiz-adv-x="700" d="M362 1196h150l119 117l65 -117h154l-111 258h-159z" />
<glyph unicode="&#x2dc;" horiz-adv-x="808" d="M389 1266l119 -76q47 96 65 96q39 0 93 -45q37 -23 64.5 -36t49.5 -13q106 0 193 174l-6 25l-101 65q-49 -96 -67 -96q-35 0 -97 43q-63 51 -110 51q-111 0 -203 -188z" />
<glyph unicode="&#x2000;" horiz-adv-x="910" />
<glyph unicode="&#x2001;" horiz-adv-x="1821" />
<glyph unicode="&#x2002;" horiz-adv-x="910" />
<glyph unicode="&#x2003;" horiz-adv-x="1821" />
<glyph unicode="&#x2004;" horiz-adv-x="607" />
<glyph unicode="&#x2005;" horiz-adv-x="455" />
<glyph unicode="&#x2006;" horiz-adv-x="303" />
<glyph unicode="&#x2007;" horiz-adv-x="303" />
<glyph unicode="&#x2008;" horiz-adv-x="227" />
<glyph unicode="&#x2009;" horiz-adv-x="364" />
<glyph unicode="&#x200a;" horiz-adv-x="101" />
<glyph unicode="&#x2010;" d="M221 444h721l39 187h-721z" />
<glyph unicode="&#x2011;" d="M221 444h721l39 187h-721z" />
<glyph unicode="&#x2012;" d="M221 444h721l39 187h-721z" />
<glyph unicode="&#x2013;" horiz-adv-x="802" d="M221 444h551l39 187h-551z" />
<glyph unicode="&#x2014;" horiz-adv-x="1142" d="M221 444h891l41 187h-893z" />
<glyph unicode="&#x2018;" horiz-adv-x="530" d="M319 909h279l64 295h-170q16 57 54 96t77 39l24 115q-100 0 -176 -82q-70 -80 -94 -190z" />
<glyph unicode="&#x2019;" horiz-adv-x="530" d="M373 1161h168q-16 -59 -52 -98t-77 -39l-25 -115q102 0 176 84q35 39 57.5 86.5t34.5 102.5l60 272h-279z" />
<glyph unicode="&#x201a;" horiz-adv-x="530" d="M121 -23h168q-16 -55 -53 -95t-76 -40l-25 -114q104 0 174 82q39 41 62 87t35 103l57 272h-281z" />
<glyph unicode="&#x201c;" horiz-adv-x="905" d="M319 909h279l64 295h-170q16 57 54 96t77 39l24 115q-100 0 -176 -82q-70 -80 -94 -190zM694 909h279l63 295h-170q16 57 54 96t75 39l27 115q-100 0 -176 -82q-35 -39 -59.5 -86t-34.5 -104z" />
<glyph unicode="&#x201d;" horiz-adv-x="905" d="M373 1161h168q-16 -59 -52 -98t-77 -39l-25 -115q102 0 176 84q35 39 57.5 86.5t34.5 102.5l60 272h-279zM748 1161h167q-16 -59 -53 -98t-76 -39l-24 -115q102 0 176 84q35 39 57.5 86.5t34.5 102.5l60 272h-281z" />
<glyph unicode="&#x201e;" horiz-adv-x="905" d="M121 -23h168q-16 -55 -53 -95t-76 -40l-25 -114q104 0 174 82q39 41 62 87t35 103l57 272h-281zM494 -23h170q-16 -55 -53.5 -95t-75.5 -40l-25 -114q102 0 174 82q39 41 61.5 87t34.5 103l58 272h-281z" />
<glyph unicode="&#x2022;" horiz-adv-x="905" d="M240 537q-29 -139 45 -242q78 -102 209 -102q133 0 251 100q121 107 150 244q27 139 -47 243q-74 100 -207 101q-133 0 -254 -101q-117 -102 -147 -243z" />
<glyph unicode="&#x2026;" horiz-adv-x="1415" d="M152 125q-12 -61 18.5 -104.5t89.5 -43.5t108.5 43.5t63.5 104.5t-18.5 104t-91.5 43q-57 0 -106.5 -43t-63.5 -104zM594 125q-12 -61 18.5 -104.5t89.5 -43.5t108.5 43.5t63.5 104.5t-17.5 104t-90.5 43t-108.5 -43t-63.5 -104zM1038 125q-14 -61 16.5 -104.5 t90.5 -43.5q59 0 108.5 43.5t63.5 104.5t-17.5 104t-91.5 43q-59 0 -108 -43t-62 -104z" />
<glyph unicode="&#x202f;" horiz-adv-x="364" />
<glyph unicode="&#x2039;" horiz-adv-x="765" d="M240 537l362 -301l133 157l-274 230l370 229l-65 156l-490 -301z" />
<glyph unicode="&#x203a;" horiz-adv-x="765" d="M203 393l63 -157l490 301l37 170l-363 301l-131 -156l272 -229z" />
<glyph unicode="&#x205f;" horiz-adv-x="455" />
<glyph unicode="&#x20ac;" horiz-adv-x="1591" d="M217 463h209q31 -233 184 -373q160 -147 400 -147q199 0 407 114l60 277q-113 -86 -215.5 -128t-202.5 -42q-158 0 -266 90q-100 82 -136 209h611l102 186h-731q2 33 12 68q4 16 7.5 33.5t9.5 33.5h778l104 187h-784q84 123 223 209q150 88 303 88q197 0 336 -158 l125 223q-170 158 -414 158q-236 0 -462 -150q-215 -139 -342 -370h-144l-106 -187h170q-4 -16 -7.5 -33.5t-7.5 -33.5q-4 -18 -7 -34.5t-7 -33.5h-104z" />
<glyph unicode="&#x2122;" horiz-adv-x="1531" d="M399 1286h224l-136 -627h160l133 627h148l-133 -627h157l90 420l56 -420h143l234 418l-91 -418h162l170 795h-198l-287 -512l-68 512h-727z" />
<glyph unicode="&#x25fc;" horiz-adv-x="1310" d="M0 0v1311h1311v-1311h-1311z" />
</font>
</defs>
</svg>
