<?xml version="1.0" standalone="no"?>
<!DOCTYPE svg PUBLIC "-//W3C//DTD SVG 1.1//EN" "http://www.w3.org/Graphics/SVG/1.1/DTD/svg11.dtd" >
<svg xmlns="http://www.w3.org/2000/svg" xmlns:xlink="http://www.w3.org/1999/xlink" version="1.1">
<metadata></metadata>
<defs>
<font id="florencesans_scitalic" horiz-adv-x="933" >
<font-face units-per-em="2048" ascent="1638" descent="-410" />
<missing-glyph horiz-adv-x="847" />
<glyph horiz-adv-x="0" />
<glyph unicode="&#xd;" horiz-adv-x="1024" />
<glyph unicode=" "  horiz-adv-x="847" />
<glyph unicode="&#x09;" horiz-adv-x="847" />
<glyph unicode="&#xa0;" horiz-adv-x="847" />
<glyph unicode="!" horiz-adv-x="491" d="M151.5 125q-10.5 -53 16.5 -89t78 -36q49 0 92 36t53 89t-16.5 89t-75.5 36t-93 -36t-54.5 -89zM279 393h100l256 1041h-170z" />
<glyph unicode="&#x22;" horiz-adv-x="899" d="M416 1014q0 -47 35 -47q37 0 53 47l180 491h-238zM823 1014q0 -47 37 -47q39 0 51 47l183 491h-240z" />
<glyph unicode="#" horiz-adv-x="1138" d="M254 608h184l-61 -215h135l63 215h205l-63 -215h135l63 215h224l30 144h-211l66 215h193l30 143h-180l59 215h-135l-61 -215h-205l61 215h-135l-61 -215h-228l-30 -143h215l-66 -215h-196zM618 752l64 215h205l-64 -215h-205z" />
<glyph unicode="$" horiz-adv-x="1341" d="M207 387q-37 -182 86 -297q102 -96 287 -121l-31 -149h170l31 149q195 25 337 121q172 113 209 297q43 203 -75 301q-84 66 -297 103l104 491q106 -18 158 -68q68 -61 49 -163h170q16 86 0 157.5t-74 130.5q-98 100 -264 125l31 148h-170l-31 -148q-176 -25 -317 -125 q-160 -117 -197 -288q-43 -195 63 -297q41 -35 109 -63.5t168 -45.5l-105 -495q-119 12 -182 63q-82 63 -57 174h-172zM553 1051q18 98 119 163q39 27 86 42.5t100 25.5l-98 -463q-109 23 -160 66q-72 57 -47 166zM788 150l99 466q127 -25 180 -59q84 -53 59 -170 q-43 -203 -338 -237z" />
<glyph unicode="%" horiz-adv-x="1697" d="M178 0h170l1479 1434h-172zM362 1110q-35 -150 46 -254q74 -104 217 -104q141 0 264 104q122 107 153 254q31 150 -46.5 254t-217.5 104q-145 0 -264 -104q-125 -106 -152 -254zM498 1110q18 88 94 152q70 63 156 63t133 -61q44 -64 26 -154q-20 -90 -92 -152 q-76 -63 -160 -63q-82 0 -129 63q-47 66 -28 152zM955 184.5q10 -63.5 51 -116.5q76 -104 219 -105q141 0 262 105q126 107 153 254q33 147 -45 253q-78 104 -217 105q-141 0 -266 -105q-121 -106 -151 -253q-16 -74 -6 -137.5zM1096 322q10 45 32.5 83.5t59.5 69.5 q74 61 160 62q84 0 131 -62q44 -63 26 -153q-18 -88 -92 -152t-158 -64q-86 0 -131 64q-47 63 -28 152z" />
<glyph unicode="&#x26;" horiz-adv-x="1296" d="M209 399q-37 -176 57 -307q94 -129 266 -129q203 0 392 141l43 -104h202l-98 244q37 45 68 92l121 194l-140 72l-119 -186l-155 385q78 45 129 79.5t78 57.5q47 45 77.5 97t43.5 116q31 133 -46 225q-66 92 -196 92q-131 0 -238 -92q-104 -92 -135 -225q-6 -39 -5 -78 t13 -80q6 -25 56 -141q-172 -102 -258 -184q-121 -119 -156 -269zM381 403q10 49 40 93.5t77 85.5q25 23 71.5 52.5t112.5 70.5l180 -449q-139 -115 -293 -115q-102 0 -155 78q-55 80 -33 184zM731 1153q12 57 58.5 98t101.5 41q57 0 92 -42t21 -101q-14 -78 -105 -129 l-113 -68l-49 119q-18 37 -6 82z" />
<glyph unicode="'" horiz-adv-x="491" d="M416 1014q0 -47 35 -47q37 0 53 47l180 491h-238z" />
<glyph unicode="(" horiz-adv-x="626" d="M225 394.5q-6 -107.5 4 -199.5q10 -90 43 -183.5t88 -191.5h103q-35 106 -54.5 202.5t-25.5 184.5q-6 180 45 420q29 123 61.5 227t73.5 192.5t101.5 184.5t140.5 203h-103q-188 -193 -290 -377q-49 -90 -88 -196.5t-66 -233.5q-27 -125 -33 -232.5z" />
<glyph unicode=")" horiz-adv-x="626" d="M88 -180h102q96 98 168 191t121 184q53 92 90 199.5t64 232.5q27 127 35 233.5t-4 196.5q-23 184 -132 377h-102q72 -215 78 -387q6 -178 -45 -420q-53 -246 -135 -420q-41 -88 -101.5 -184.5t-138.5 -202.5z" />
<glyph unicode="*" horiz-adv-x="909" d="M307 852l41 -127l217 119l-49 -236h135l51 236l166 -119l97 127l-168 115l217 116l-43 127l-217 -118l51 233h-137l-50 -233l-167 118l-95 -127l168 -116z" />
<glyph unicode="+" d="M223 465h273l-60 -287h135l62 287h272l31 143h-272l59 287h-135l-62 -287h-272z" />
<glyph unicode="," horiz-adv-x="491" d="M150 -240q0 -47 34 -47q37 0 54 47l180 490h-240z" />
<glyph unicode="-" d="M223 465h682l31 143h-682z" />
<glyph unicode="." horiz-adv-x="491" d="M151.5 125q-10.5 -53 16.5 -89t78 -36q49 0 92 36t53 89t-16.5 89t-75.5 36t-93 -36t-54.5 -89z" />
<glyph unicode="/" horiz-adv-x="851" d="M63 -100l146 -62l846 1516l-146 61z" />
<glyph unicode="0" horiz-adv-x="1325" d="M236 717q-61 -295 40 -510q111 -244 379 -244q262 0 484 244q195 219 256 510t-41 508q-113 244 -379 243q-266 0 -483 -243q-98 -109 -161 -236t-95 -272zM408 717q43 217 178 381q156 193 352 192q193 0 266 -192q64 -162 21 -381q-45 -217 -183 -381 q-154 -193 -348 -193q-197 0 -270 193q-63 160 -16 381z" />
<glyph unicode="1" horiz-adv-x="1325" d="M571 1053l84 -115l310 268l-256 -1206h170l303 1434h-170z" />
<glyph unicode="2" horiz-adv-x="1325" d="M152 0h1022l36 178h-802q98 129 344 264q164 92 262 148.5t133 83.5q203 154 246 358q47 205 -97 326q-121 111 -321 110q-199 0 -367 -100q-190 -117 -231 -317h170q25 125 151 188q51 25 107.5 38t122.5 13q139 0 219 -55q104 -70 76 -203q-37 -174 -291 -327 q-117 -68 -233.5 -135.5t-233.5 -133.5q-258 -182 -313 -436z" />
<glyph unicode="3" horiz-adv-x="1325" d="M190 221q41 -131 172 -196q113 -61 269 -62q219 0 395 115q199 127 248 352q55 268 -184 377q215 88 258 287q41 190 -95 288q-111 86 -303 86q-156 0 -284 -57q-156 -66 -228 -201l146 -61q80 141 327 141q121 0 193 -37q94 -49 74 -159q-20 -94 -144 -154 q-98 -45 -207 -45h-102l-37 -178h103q137 0 233 -70q111 -82 80 -217q-31 -143 -170 -223q-115 -63 -266 -64q-262 0 -314 168z" />
<glyph unicode="4" horiz-adv-x="1325" d="M178 287h750l-62 -287h172l60 287h170l39 178h-170l204 969h-145l-979 -969zM395 465l721 702l-149 -702h-572z" />
<glyph unicode="5" horiz-adv-x="1325" d="M203 326q12 -82 48 -148.5t99 -116.5q119 -98 291 -98q217 0 414 156q196 154 245 383t-81 383q-129 154 -351 153q-178 0 -342 -100l68 315h696l37 181h-864l-148 -697l148 -65q68 88 167 138t201 50q147 0 236 -100q96 -106 63 -258q-35 -154 -172 -258 q-131 -100 -278 -101q-113 0 -199 62q-80 59 -102 166z" />
<glyph unicode="6" horiz-adv-x="1325" d="M250 717q-61 -293 43 -510q109 -244 377 -244q219 0 413 154q201 158 250 389q49 227 -84 387q-127 152 -350 151q-256 0 -444 -206q68 186 188 309q143 143 309 143q174 0 254 -155l154 104q-117 229 -371 229q-268 0 -481 -243q-98 -109 -161.5 -236t-96.5 -272z M426 504q35 158 158 258q129 104 278 104q150 0 240 -100q92 -106 61 -262q-37 -158 -170 -258q-137 -102 -284 -103q-137 0 -226 109q-88 113 -57 252z" />
<glyph unicode="7" horiz-adv-x="1325" d="M289 0h203l956 1253l37 181h-920l-37 -181h723z" />
<glyph unicode="8" horiz-adv-x="1325" d="M209 430q-45 -223 96 -352q133 -115 350 -115t398 115q200 131 245 352q57 266 -186 377q106 41 172 112.5t88 174.5q41 190 -94 288q-111 86 -303 86q-193 0 -340 -86q-174 -96 -215 -288q-43 -203 135 -287q-289 -111 -346 -377zM379 430q31 139 174 217q125 70 262 70 q135 0 232 -70q112 -82 81 -217q-27 -143 -172 -223q-113 -63 -262 -64q-150 0 -237 64q-106 76 -78 223zM590 1094q20 111 139 159q88 37 209 37q119 0 190 -37q97 -46 74 -159q-20 -94 -145 -154q-96 -45 -205 -45q-106 0 -184 45q-98 57 -78 154z" />
<glyph unicode="9" horiz-adv-x="1325" d="M268 193q119 -229 371 -230q264 0 483 244q195 219 256 510t-41 508q-111 244 -379 243q-223 0 -413 -151q-201 -162 -250 -389q-45 -227 84 -387q127 -152 350 -152q260 0 445 207q-35 -92 -81 -170t-108 -139q-139 -143 -307 -144q-176 0 -256 156zM465 930 q37 160 172 258q133 102 285 102q133 0 223 -108q90 -113 57 -252q-31 -152 -160 -260q-127 -102 -276 -103q-150 0 -242 103q-90 104 -59 260z" />
<glyph unicode=":" horiz-adv-x="491" d="M151.5 125q-10.5 -53 16.5 -89t78 -36q49 0 92 36t53 89t-16.5 89t-75.5 36t-93 -36t-54.5 -89zM289 770q-10 -53 17.5 -89t76.5 -36q51 0 92 36t51 89q12 53 -14.5 89t-75.5 36q-51 0 -93 -36t-54 -89z" />
<glyph unicode=";" horiz-adv-x="491" d="M150 -240q0 -47 34 -47q37 0 54 47l180 490h-240zM289 770q-10 -53 17.5 -89t76.5 -36q51 0 92 36t51 89q12 53 -14.5 89t-75.5 36q-51 0 -93 -36t-54 -89z" />
<glyph unicode="&#x3c;" horiz-adv-x="897" d="M223 465l490 -389l98 119l-426 342l571 344l-47 118l-655 -391z" />
<glyph unicode="=" d="M190 305h680l31 144h-680zM258 627h680l31 143h-680z" />
<glyph unicode="&#x3e;" horiz-adv-x="897" d="M166 195l51 -119l651 389l31 143l-485 391l-103 -118l430 -344z" />
<glyph unicode="?" horiz-adv-x="866" d="M221 125q-10 -53 16.5 -89t75.5 -36t92.5 36t53.5 89t-15.5 89t-76.5 36q-49 0 -92.5 -36t-53.5 -89zM346 393h103q18 61 31.5 106.5t23.5 73.5q45 139 160 215q45 29 91 56.5t95 56.5q94 76 131 238q27 131 -41 231q-66 98 -197 98t-235 -98q-57 -49 -91 -107.5 t-50 -123.5h170q16 59 64 105t106 46q57 0 86.5 -46t15.5 -105q-23 -98 -121 -174q-47 -35 -92 -68t-92 -68q-102 -90 -129 -215q-2 -8 -8.5 -62t-20.5 -159z" />
<glyph unicode="@" horiz-adv-x="2023" d="M240 537q-82 -383 120 -658q201 -274 566 -274q121 0 260 41l-4 118q-113 -33 -230 -32q-315 0 -489 237.5t-103 567.5q72 334 345 569q276 238 591 237q317 0 490 -235q178 -236 106 -571q-16 -76 -50 -144.5t-87 -128.5q-115 -139 -250 -139q-59 0 -85.5 51t-12.5 117 l1 6t3 16l186 625h-129l-43 -145q-66 172 -256 172q-172 0 -327 -144q-152 -141 -191 -325q-37 -160 37 -277q74 -115 227 -115q199 0 357 173q-25 -111 31 -197q55 -82 163 -82q184 0 351 174q151 164 194 363q80 389 -121 659q-203 272 -567 272q-367 0 -684 -272 q-319 -276 -399 -659zM780 512q29 127 142 225q113 96 233 97q106 0 166 -80q29 -39 38 -87.5t-3 -103.5q-25 -129 -142 -227q-113 -94 -233 -94q-109 0 -166 80q-57 74 -35 190z" />
<glyph unicode="A" horiz-adv-x="1253" d="M41 0h180l180 322h586l45 -322h180l-188 1434h-184zM502 502l375 669l90 -669h-465z" />
<glyph unicode="B" horiz-adv-x="1273" d="M125 0h612q170 0 322 113q78 59 125 130.5t67 159.5q9 43 9 81q0 172 -181 239q223 88 271 307q10 45 10 87q0 118 -78 206q-104 111 -272 111h-580zM334 178l94 449h442q104 0 162 -60q55 -50 55 -118q0 -22 -6 -46q-20 -100 -118 -165q-84 -59 -187 -60h-442zM467 807 l96 446h408q102 0 162 -57q53 -48 53 -118q0 -23 -6 -48q-23 -100 -117 -164q-84 -59 -186 -59h-410z" />
<glyph unicode="C" horiz-adv-x="1411" d="M236 717q-19 -90 -19 -173q0 -204 115 -360q162 -222 461 -221q292 0 550 221l-96 123q-195 -164 -418 -164q-221 0 -350 168q-87 116 -87 268q0 66 16 138q49 236 243 405q195 168 422 168q223 0 346 -166l150 125q-158 219 -459 219q-295 0 -553 -221 q-258 -223 -321 -530z" />
<glyph unicode="D" horiz-adv-x="1425" d="M125 0h512q279 0 524 209q246 211 307 508q18 85 19 163q0 192 -111 343q-154 211 -436 211h-510zM334 178l229 1075h340q213 0 328 -157q82 -108 82 -252q0 -61 -15 -127q-23 -113 -79 -207t-150 -174q-186 -158 -395 -158h-340z" />
<glyph unicode="E" horiz-adv-x="1206" d="M125 0h954l37 178h-782l94 449h612l41 180h-614l96 446h783l36 181h-952z" />
<glyph unicode="F" horiz-adv-x="1144" d="M125 0h170l133 627h612l41 180h-614l96 446h783l36 181h-952z" />
<glyph unicode="G" horiz-adv-x="1505" d="M236 717q-19 -90 -19 -173q0 -202 115 -360q162 -221 461 -221q180 0 357 90t310 250l109 504h-598l-39 -180h426l-55 -267q-209 -217 -474 -217q-221 0 -350 168q-87 116 -87 268q0 66 16 138q49 236 243 405q195 168 422 168q129 0 231.5 -60.5t155.5 -168.5l162 102 q-72 145 -206 225t-306 80q-295 0 -553 -221q-258 -223 -321 -530z" />
<glyph unicode="H" horiz-adv-x="1341" d="M125 0h170l133 627h750l-134 -627h170l306 1434h-170l-133 -627h-750l133 627h-170z" />
<glyph unicode="I" horiz-adv-x="421" d="M125 0h170l305 1434h-170z" />
<glyph unicode="J" horiz-adv-x="1032" d="M109 203q41 -111 132 -175.5t214 -64.5q190 0 354 143q166 142 209 343l209 985h-516l-37 -181h346l-172 -804q-29 -127 -131 -216q-102 -90 -223 -90q-160 0 -215 144z" />
<glyph unicode="K" horiz-adv-x="1196" d="M125 0h170l115 537l237 202l297 -739h203l-352 868l657 566h-242l-745 -643l135 643h-170z" />
<glyph unicode="L" horiz-adv-x="974" d="M125 0h784l37 178h-612l266 1256h-170z" />
<glyph unicode="M" horiz-adv-x="1607" d="M125 0h170l256 1208l162 -1208h182l672 1202l-256 -1202h172l303 1434h-275l-653 -1172l-156 1172h-272z" />
<glyph unicode="N" horiz-adv-x="1341" d="M125 0h170l237 1110l512 -1110h170l306 1434h-170l-238 -1112l-512 1112h-170z" />
<glyph unicode="O" horiz-adv-x="1597" d="M226 427q22 -132 106 -243q160 -221 461 -221q293 0 550 221q256 224 324 533q20 90 20 173q0 202 -118 359q-158 219 -459 219q-297 0 -553 -219q-254 -219 -321 -532q-20 -94 -20 -179q1 -57 10 -111zM408 717q49 236 243 405q195 168 422 168q223 0 348 -168 q90 -120 90 -277q0 -61 -14 -128q-53 -238 -247.5 -406t-420.5 -168q-221 0 -350 168q-87 116 -88 268q1 66 17 138z" />
<glyph unicode="P" horiz-adv-x="1196" d="M125 0h170l133 627h410q166 0 321 112q154 117 191 291q10 45 10 87q0 118 -78 206q-104 111 -272 111h-580zM467 807l96 446h408q102 0 162 -57q53 -48 53 -118q0 -23 -6 -48q-23 -100 -117 -164q-84 -59 -186 -59h-410z" />
<glyph unicode="Q" horiz-adv-x="1597" d="M236 717q-19 -88 -19 -170q0 -180 92 -330q139 -215 398 -248l-70 -327h170l70 327q139 16 263 79t240 169q226 217 287 500q20 90 20 173q0 202 -118 359q-158 219 -459 219q-297 0 -553 -219q-254 -219 -321 -532zM408 717q49 236 243 405q195 168 422 168 q223 0 348 -168q90 -120 90 -277q0 -61 -14 -128q-47 -215 -213 -373q-82 -82 -174 -130t-195 -64l46 208h-170l-46 -208q-193 35 -286 194q-66 108 -66 240q0 64 15 133z" />
<glyph unicode="R" horiz-adv-x="1265" d="M125 0h170l133 627h205q178 0 229 -125l203 -502h203l-203 502q-59 139 -104 141q143 39 249 141q109 104 140 246q10 45 10 87q0 118 -78 206q-104 111 -272 111h-580zM467 807l96 446h408q102 0 162 -57q53 -48 53 -118q0 -23 -6 -48q-23 -100 -117 -164 q-84 -59 -186 -59h-410z" />
<glyph unicode="S" horiz-adv-x="1308" d="M193 387q-9 -44 -9 -83q0 -145 123 -238q133 -102 340 -103q104 0 197.5 25.5t183.5 74.5q211 125 254 324q10 50 10 93q0 179 -168 253q-100 23 -202.5 46.5t-202.5 45.5q-187 50 -187 180q0 22 5 46q25 119 157 188q53 25 110.5 38t123.5 13q123 0 211 -53 q85 -51 85 -142q0 -21 -5 -44h170q8 42 9 80q0 139 -112 233q-127 104 -319 104q-197 0 -365 -104q-197 -119 -235 -313q-11 -54 -11 -101q0 -180 166 -254q100 -23 201.5 -45t204.5 -45q187 -47 187 -174q0 -21 -5 -45q-27 -129 -172 -194q-111 -49 -254 -50 q-139 0 -231 50q-97 53 -97 146q0 23 6 48h-169z" />
<glyph unicode="T" horiz-adv-x="1171" d="M324 1253h442l-266 -1253h170l268 1253h442l37 181h-1055z" />
<glyph unicode="U" horiz-adv-x="1308" d="M223 537q-14 -68 -14 -130q0 -156 88 -274q123 -170 350 -170q221 0 420 170q98 86 159.5 185.5t86.5 218.5l190 897h-170l-190 -897q-33 -160 -170 -279q-135 -115 -289 -115q-162 0 -240 115q-61 82 -61 188q0 43 10 91l191 897h-170z" />
<glyph unicode="V" horiz-adv-x="1253" d="M346 1434l191 -1434h182l799 1434h-181l-655 -1172l-156 1172h-180z" />
<glyph unicode="W" horiz-adv-x="1822" d="M346 1434l84 -1434h178l539 1110l63 -1110h179l696 1434h-176l-541 -1110l-63 1110h-179l-538 -1110l-66 1110h-176z" />
<glyph unicode="X" horiz-adv-x="1269" d="M49 0h211l492 559l258 -559h211l-328 717l633 717h-213l-492 -560l-256 560h-211l326 -717z" />
<glyph unicode="Y" horiz-adv-x="1253" d="M346 1434l340 -748l-145 -686h170l145 686l660 748h-209l-494 -560l-256 560h-211z" />
<glyph unicode="Z" horiz-adv-x="1308" d="M109 0h1089l39 178h-858l1087 1075l37 181h-1089l-37 -181h858l-1088 -1075z" />
<glyph unicode="[" horiz-adv-x="661" d="M88 -180h408l39 180h-240l268 1253h238l37 181h-408z" />
<glyph unicode="\" horiz-adv-x="851" d="M373 1354l200 -1516l172 62l-200 1515z" />
<glyph unicode="]" horiz-adv-x="661" d="M88 -180h408l342 1614h-408l-37 -181h238l-266 -1253h-240z" />
<glyph unicode="^" horiz-adv-x="942" d="M268 672l113 -60l332 523l110 -523l138 60l-140 653h-137z" />
<glyph unicode="_" horiz-adv-x="892" d="M0 0h893v143h-893v-143z" />
<glyph unicode="`" horiz-adv-x="524" d="M430 1434l125 -215h102l-57 215h-170z" />
<glyph unicode="a" horiz-adv-x="1128" d="M37 0h162l161 291h529l39 -291h166l-172 1290h-166zM453 451l333 604l82 -604h-415z" />
<glyph unicode="b" horiz-adv-x="1144" d="M115 0h551q150 0 286 102q141 104 172 260q8 40 8 75q0 155 -161 214q203 80 243 275q9 41 8 79q0 107 -69 185q-94 100 -244 100h-520zM301 162l86 403h397q90 0 146 -55q47 -45 47 -109q0 -19 -4 -39q-18 -90 -107 -147q-78 -53 -168 -53h-397zM422 725l86 403h366 q47 0 82 -13t64 -40q47 -44 47 -109q0 -19 -4 -40q-18 -88 -109 -146q-78 -55 -166 -55h-366z" />
<glyph unicode="c" horiz-adv-x="1271" d="M213 645q-18 -82 -18 -158q0 -181 104 -321q150 -199 412 -199q263 0 499 199l-86 113q-174 -150 -379 -150t-313 152q-79 105 -80 246q0 56 13 118q43 213 223 365q175 151 376 151h3q201 0 313 -149l131 112q-145 199 -412 199q-262 0 -497 -201q-115 -98 -187.5 -218 t-101.5 -259z" />
<glyph unicode="d" horiz-adv-x="1282" d="M115 0h458q250 0 469 188q222 189 283 457q15 75 16 143q0 176 -102 312q-139 190 -391 190h-459zM301 162l207 966h305q186 0 295 -141q74 -101 74 -235q0 -51 -11 -107q-23 -102 -75 -186t-133 -156q-162 -141 -355 -141h-307z" />
<glyph unicode="e" horiz-adv-x="1083" d="M115 0h856l35 162h-705l86 403h551l35 160h-551l86 403h702l35 162h-856z" />
<glyph unicode="f" horiz-adv-x="1032" d="M115 0h151l121 565h551l35 160h-551l86 403h702l35 162h-856z" />
<glyph unicode="g" horiz-adv-x="1353" d="M213 645q-18 -82 -18 -158q0 -181 104 -321q150 -199 412 -199q82 0 163.5 21.5t159.5 60.5t149 95t130 128l98 453h-539l-34 -160h387l-54 -241q-188 -195 -426 -195q-205 0 -313 152q-79 105 -79 246q0 56 12 118q43 213 223 365q175 151 376 151h3q115 0 206 -54 t138 -153l147 93q-63 131 -184 203.5t-275 72.5q-262 0 -497 -201q-115 -98 -187.5 -218t-101.5 -259z" />
<glyph unicode="h" horiz-adv-x="1208" d="M115 0h151l121 565h674l-121 -565h156l272 1290h-154l-118 -565h-674l119 565h-152z" />
<glyph unicode="i" horiz-adv-x="378" d="M115 0h151l275 1290h-152z" />
<glyph unicode="j" horiz-adv-x="927" d="M98 182q35 -98 118 -156.5t194 -58.5q172 0 317 127q74 66 123.5 141.5t67.5 167.5l188 887h-467l-33 -162h312l-154 -725q-23 -109 -119 -194q-96 -80 -201 -80q-145 0 -194 129z" />
<glyph unicode="k" horiz-adv-x="1077" d="M115 0h151l103 483l211 183l270 -666h184l-317 780l592 510h-217l-674 -579l123 579h-152z" />
<glyph unicode="l" horiz-adv-x="878" d="M115 0h704l33 162h-551l240 1128h-152z" />
<glyph unicode="m" horiz-adv-x="1445" d="M115 0h151l232 1087l143 -1087h164l604 1081l-229 -1081h153l275 1290h-246l-588 -1054l-141 1054h-244z" />
<glyph unicode="n" horiz-adv-x="1208" d="M115 0h151l213 999l461 -999h156l272 1290h-154l-213 -999l-460 999h-152z" />
<glyph unicode="o" horiz-adv-x="1437" d="M213 645q-18 -83 -18 -159q0 -182 104 -320q150 -199 412 -199q264 0 499 199q228 196 289 479q18 82 18 156q0 182 -106 323q-145 199 -412 199q-262 0 -497 -199q-231 -203 -289 -479zM365 645q43 213 223 365q175 151 376 151h3q203 0 313 -151q78 -108 78 -249 q0 -56 -12 -116q-47 -215 -222 -364q-172 -152 -379 -152q-205 0 -313 152q-79 105 -80 246q1 56 13 118z" />
<glyph unicode="p" horiz-adv-x="1077" d="M115 0h151l121 565h367q156 0 288 101q141 106 172 260q9 41 9 79q0 107 -70 185q-94 100 -244 100h-520zM422 725l86 403h366q47 0 82 -13t64 -40q47 -44 47 -109q0 -19 -4 -40q-18 -88 -109 -146q-78 -55 -166 -55h-366z" />
<glyph unicode="q" horiz-adv-x="1437" d="M213 645q-17 -81 -17 -155q0 -163 83 -295q125 -195 358 -222l-64 -297h154l64 297q123 14 235.5 69.5t214.5 152.5q104 98 166.5 209.5t91.5 240.5q18 82 18 156q0 183 -106 323q-145 199 -412 199q-262 0 -497 -199q-231 -203 -289 -479zM365 645q43 213 223 365 q175 151 376 151h3q203 0 313 -151q78 -108 78 -249q0 -55 -12 -116q-43 -190 -189 -336q-154 -147 -334 -174l41 187h-155l-39 -187q-172 29 -258 174q-61 99 -61 218q0 57 14 118z" />
<glyph unicode="r" horiz-adv-x="1138" d="M115 0h151l121 565h184q156 0 205 -114l180 -451h183l-181 451q-53 125 -92 129q61 16 117.5 47.5t106.5 79.5q96 94 124 219q9 41 8 79q0 107 -69 185q-94 100 -244 100h-520zM422 725l86 403h366q47 0 82 -13t64 -40q47 -44 47 -109q0 -19 -4 -40q-18 -88 -109 -146 q-78 -55 -166 -55h-366z" />
<glyph unicode="s" horiz-adv-x="1175" d="M172 348q-8 -38 -8 -72q0 -132 112 -217q119 -92 306 -92q184 0 342 90q188 109 229 291q10 47 10 87q0 159 -153 224q-92 20 -181.5 42t-181.5 42q-168 44 -168 162q0 19 4 39q25 111 144 170q98 47 211 47t186 -49q77 -47 77 -126q0 -20 -5 -42h153q8 39 8 75 q0 125 -100 208q-115 96 -287 96q-176 0 -327 -96q-176 -106 -213 -283q-10 -49 -10 -92q0 -161 147 -225q92 -20 184 -41t185 -41q168 -42 168 -156q0 -20 -5 -41q-25 -117 -159 -176q-96 -43 -224 -43q-127 0 -208 43q-86 46 -87 134q0 20 5 42h-154z" />
<glyph unicode="t" horiz-adv-x="1052" d="M293 1128h399l-241 -1128h153l240 1128h399l35 162h-952z" />
<glyph unicode="u" horiz-adv-x="1175" d="M201 483q-12 -61 -12 -117q0 -140 77 -245q113 -154 316 -154q102 0 194 38t185 116q178 149 221 362l172 807h-154l-172 -807q-14 -74 -53 -136t-98 -114q-123 -104 -261 -104q-141 0 -217 104q-39 51 -49 114q-4 26 -4 54q0 39 8 82l172 807h-153z" />
<glyph unicode="v" horiz-adv-x="1128" d="M311 1290l170 -1290h166l721 1290h-166l-590 -1054l-139 1054h-162z" />
<glyph unicode="w" horiz-adv-x="1640" d="M311 1290l78 -1290h158l483 997l62 -997h157l627 1290h-158l-483 -997l-61 997h-160l-486 -997l-59 997h-158z" />
<glyph unicode="x" horiz-adv-x="1140" d="M45 0h191l444 504l229 -504h189l-295 645l569 645h-190l-445 -504l-229 504h-189l295 -645z" />
<glyph unicode="y" horiz-adv-x="1126" d="M311 1290l307 -672l-131 -618h152l131 618l596 672h-190l-447 -504l-229 504h-189z" />
<glyph unicode="z" horiz-adv-x="1175" d="M98 0h981l33 162h-772l979 966l35 162h-981l-35 -162h772l-977 -966z" />
<glyph unicode="{" horiz-adv-x="780" d="M240 537h53q49 0 76.5 -29t17.5 -78l-65 -305q-23 -115 40 -207q63 -98 168 -98h86l37 180h-67q-45 0 -74 39t-18 86l59 287q16 70 -14 139q-31 76 -95 76q63 0 129 78q29 35 47.5 68.5t24.5 68.5l62 286q4 25 19 47.5t35.5 40t44 27.5t46.5 10h70l36 181h-86 q-104 0 -206 -97q-109 -98 -129 -209l-66 -305q-10 -49 -51 -77.5t-90 -28.5h-51z" />
<glyph unicode="|" horiz-adv-x="421" d="M88 -180h170l342 1614h-170z" />
<glyph unicode="}" horiz-adv-x="780" d="M88 -180h86q102 0 205 98q106 94 131 207l65 305q10 49 51.5 78t90.5 29h51l39 180h-53q-49 0 -77 28.5t-18 77.5l64 305q25 109 -41 209q-66 96 -166 97h-86l-37 -181h68q45 0 72.5 -38.5t19.5 -86.5l-59 -286q-16 -68 14 -137q31 -78 92 -78q-59 0 -127 -76 q-29 -35 -47 -70t-25 -69l-61 -287q-6 -23 -20.5 -45.5t-35 -39.5t-45 -28.5t-46.5 -11.5h-68z" />
<glyph unicode="~" horiz-adv-x="937" d="M229 487l115 -53q45 76 92 76q57 0 144 -43q92 -43 143 -43q123 0 215 158l-115 55q-45 -78 -94 -78q-51 0 -143 43q-90 43 -144 43q-123 0 -213 -158z" />
<glyph unicode="&#xa1;" horiz-adv-x="491" d="M121 -180h172l186 1040h-102zM364.5 1128.5q-10.5 -53.5 17.5 -89t77 -35.5t92 35.5t53 88.5t-15.5 89t-76.5 36q-49 0 -93 -35.5t-54.5 -89z" />
<glyph unicode="&#xa2;" horiz-adv-x="1228" d="M240 537q-45 -211 51 -373q102 -162 289 -193l-41 -186h170l43 186q217 33 393 219l-123 97q-106 -104 -234 -133l164 768q117 -31 176 -134l162 99q-100 184 -299 217l39 186h-170l-39 -186q-203 -33 -370 -195q-164 -156 -211 -372zM410 537q31 141 135 245 q51 53 110.5 88t124.5 52l-162 -768q-119 31 -178 139q-59 104 -30 244z" />
<glyph unicode="&#xa3;" horiz-adv-x="1236" d="M217 627h170l-133 -627h852l37 178h-680l94 449h340l41 180h-342l39 178q25 125 129 215q102 90 223 90q160 0 215 -143l168 84q-37 111 -130 174t-216 63q-190 0 -354 -143q-162 -137 -205 -340l-39 -178h-170z" />
<glyph unicode="&#xa4;" horiz-adv-x="1550" d="M227 483h197q25 -227 182 -377q156 -143 389 -143q193 0 383 105l47 219q-190 -143 -391 -144q-160 0 -278 93q-115 96 -148 247h629l78 144h-719q2 23 6 45t8 45q6 23 11.5 45t15.5 45h780l80 143h-788q98 154 252 246q156 94 317 94q203 0 330 -143l98 178 q-156 143 -391 143q-233 0 -451 -143q-219 -147 -340 -375h-145l-82 -143h168q-10 -23 -14.5 -45.5t-10.5 -44.5q-4 -23 -8 -45.5t-8 -44.5h-115z" />
<glyph unicode="&#xa5;" horiz-adv-x="1423" d="M264 305h428l-65 -305h170l65 305h424l31 144h-424l37 178h424l30 143h-368l586 664h-211l-494 -560l-256 560h-211l303 -664h-368l-31 -143h426l-37 -178h-428z" />
<glyph unicode="&#xa6;" horiz-adv-x="421" d="M88 -180h170l150 700h-172zM281 735h170l149 699h-170z" />
<glyph unicode="&#xa7;" horiz-adv-x="1103" d="M162 170q-33 -158 88 -252q106 -80 268 -80q158 0 299 80q164 92 195 252q39 174 -74 250q147 82 178 233q41 201 -115 271q-8 4 -82.5 21.5t-222.5 49.5q-166 35 -141 144q18 80 111 121q70 31 159 30q92 0 146 -30q80 -41 61 -121h170q35 154 -82 247q-100 82 -256 82 q-158 0 -289 -82q-80 -47 -127 -109.5t-63 -137.5q-37 -176 72 -250q-70 -41 -114 -100.5t-60 -135.5q-43 -199 112 -272q10 -4 86 -21.5t219 -48.5q166 -35 142 -141q-31 -152 -287 -152q-47 0 -88 6.5t-70 20.5q-86 41 -65 125h-170zM453 653q18 86 106 125q74 31 160 31 q88 0 153 -31q90 -45 74 -125q-18 -80 -110 -121q-74 -31 -160 -30q-88 0 -154 33q-88 41 -69 118z" />
<glyph unicode="&#xa8;" horiz-adv-x="763" d="M410 1343q-8 -37 12 -63.5t57 -26.5q35 0 64 26.5t37 63.5q10 39 -9.5 65t-54.5 26q-37 0 -66.5 -26t-39.5 -65zM752 1343q-10 -37 10 -63.5t57 -26.5q35 0 64 26.5t39 63.5q8 39 -11.5 65t-54.5 26t-65.5 -26t-38.5 -65z" />
<glyph unicode="&#xa9;" horiz-adv-x="1325" d="M238.5 348q19.5 -98 80.5 -184q123 -164 345 -164q219 0 411 164q193 168 244 401q49 229 -76 398q-121 166 -340 165q-223 0 -416 -165q-193 -168 -241 -398q-27 -119 -7.5 -217zM340 565q39 190 199 328q162 137 342 137t282 -137q105 -142 62 -328q-41 -195 -201 -329 q-158 -137 -340 -138q-186 0 -285 138q-100 133 -59 329zM442 565q-31 -160 47 -268.5t230 -108.5q149 0 276 111l-47 61q-96 -82 -211 -81q-113 0 -172 83q-63 82 -39 203q25 119 125 201q94 86 209 86t174 -84l76 63q-82 109 -229 109q-154 0 -279 -111 q-127 -111 -160 -264z" />
<glyph unicode="&#xaa;" horiz-adv-x="1069" d="M344 1030q-37 -172 47 -299q80 -131 246 -131q190 0 344 172l-33 -145h127l172 807h-127l-30 -146q-80 172 -271 172q-166 0 -301 -129q-137 -125 -174 -301zM473 1030q29 125 125 209q104 86 217 86q115 0 180 -86q68 -88 39 -209q-25 -119 -127 -209q-102 -86 -217 -86 q-113 0 -182 86q-59 86 -35 209z" />
<glyph unicode="&#xab;" horiz-adv-x="1390" d="M201 354l428 -354l98 121l-365 305l496 307l-49 119l-578 -354zM764 354l426 -354l100 121l-366 305l497 307l-51 119l-575 -354z" />
<glyph unicode="&#xac;" d="M223 465h545l-37 -178h135l70 321h-682z" />
<glyph unicode="&#xad;" d="M223 465h682l31 143h-682z" />
<glyph unicode="&#xae;" horiz-adv-x="1325" d="M238.5 348q19.5 -98 80.5 -184q123 -164 345 -164q219 0 411 164q193 168 244 401q49 229 -76 398q-121 166 -340 165q-223 0 -416 -165q-193 -168 -241 -398q-27 -119 -7.5 -217zM340 565q39 190 199 328q162 137 342 137t282 -137q105 -142 62 -328q-43 -201 -209 -338 l-92 230q-23 61 -52 71q70 16 124.5 69.5t70.5 125.5q18 84 -35 143q-29 29 -61.5 43.5t-75.5 14.5h-289l-153 -717h84l69 313h103q86 0 114 -63l101 -250h63q-143 -109 -303 -109q-186 0 -285 138q-100 133 -59 329zM623 608l49 226h205q51 0 82.5 -31t21.5 -80 q-10 -51 -56 -83t-98 -32h-204z" />
<glyph unicode="&#xaf;" horiz-adv-x="763" d="M399 1290h510l31 144h-510z" />
<glyph unicode="&#xb0;" horiz-adv-x="626" d="M386 1159q7 -37 27.5 -63.5t51.5 -42t70 -15.5t75.5 15.5t67.5 42t53.5 63.5t32.5 78q8 41 1 77t-26.5 62.5t-50.5 42t-70 15.5t-76.5 -15.5t-68.5 -42t-53.5 -62.5t-30.5 -77q-10 -41 -3 -78zM457 1237q10 53 53 89t94 36q49 0 74.5 -36t15.5 -89t-52 -90t-91 -37 q-51 0 -79 37t-15 90z" />
<glyph unicode="&#xb1;" d="M125 0h682l31 143h-682zM264 645h273l-62 -287h135l62 287h272l31 143h-273l62 287h-137l-62 -287h-272z" />
<glyph unicode="&#xb2;" horiz-adv-x="763" d="M279 717h509l21 90h-401q41 61 170 131q82 43 131 72.5t67 42.5q100 78 121 180q20 100 -45 164q-66 55 -162 55q-104 0 -182 -51q-96 -57 -119 -160h86q12 63 76 96q45 25 115 25q68 0 110 -29q51 -35 37 -100q-18 -86 -145 -164l-232 -133q-66 -47 -105.5 -101.5 t-51.5 -117.5z" />
<glyph unicode="&#xb3;" horiz-adv-x="772" d="M301 827q43 -129 221 -129q55 0 104.5 14.5t96.5 43.5q98 63 123 176q27 129 -94 188q109 43 129 144q23 94 -47 145q-55 43 -152 43q-186 0 -256 -129l72 -31q39 70 168 70q150 0 129 -98q-8 -47 -72 -78q-43 -20 -100 -21h-54l-18 -90h53q70 0 113 -35q55 -41 43 -108 q-16 -74 -86 -111q-53 -33 -131 -33q-133 0 -158 84z" />
<glyph unicode="&#xb4;" horiz-adv-x="524" d="M385 1219h102l215 215h-170z" />
<glyph unicode="&#xb5;" horiz-adv-x="1138" d="M49 -358h170l103 479q61 -158 239 -158q176 0 305 158l-26 -121h170l229 1075h-170l-137 -645q-25 -121 -123 -203q-100 -84 -211 -84q-113 0 -174 84q-61 82 -37 203l137 645h-170z" />
<glyph unicode="&#xb6;" horiz-adv-x="1425" d="M344 1030q-37 -174 70 -293q104 -111 270 -110l-209 -985h170l344 1611h205l-344 -1611h170l344 1611h205l37 181h-750q-170 0 -319 -111q-76 -59 -125.5 -132t-67.5 -161z" />
<glyph unicode="&#xb7;" horiz-adv-x="491" d="M240 537q-12 -53 15.5 -89t78.5 -36q49 0 91 36t54 89q10 53 -16.5 90t-75.5 37t-93 -37t-54 -90z" />
<glyph unicode="&#xb8;" horiz-adv-x="524" d="M49 -358h135q29 0 56.5 11t50 30.5t38 45t21.5 56.5q10 49 -10.5 89t-67.5 50l50 111h-70l-68 -160h52q35 0 54 -26.5t11 -63.5q-6 -37 -38 -63.5t-66 -26.5h-119z" />
<glyph unicode="&#xb9;" horiz-adv-x="518" d="M391 1243l43 -57l154 135l-129 -604h86l151 717h-86z" />
<glyph unicode="&#xba;" horiz-adv-x="1069" d="M344 1030q-37 -182 55 -305q92 -125 263 -125q170 0 315 125q147 125 184 305q37 178 -55 303q-96 127 -262 127q-170 0 -316 -127q-147 -127 -184 -303zM473 1030q29 125 125 209q104 86 217 86q115 0 180 -86q68 -88 39 -209q-25 -119 -127 -209q-102 -86 -217 -86 q-113 0 -182 86q-59 86 -35 209z" />
<glyph unicode="&#xbb;" horiz-adv-x="1390" d="M150 121l51 -121l577 354l31 144l-428 354l-100 -119l370 -307zM713 121l51 -121l575 354l31 144l-426 354l-100 -119l366 -307z" />
<glyph unicode="&#xbc;" d="M270 680h682l15 72h-682zM276 115h297l-24 -115h67l25 115h68l14 71h-68l82 387h-57l-389 -387zM362 186l285 281l-59 -281h-226zM633 1282l35 -45l123 104l-103 -481h68l123 574h-70z" />
<glyph unicode="&#xbd;" d="M264 0h406l16 72h-319q41 53 135 106q66 35 104.5 57.5t52.5 32.5q80 59 99 144q14 80 -37 131q-47 45 -127 45q-78 0 -148 -41q-76 -45 -94 -127h70q10 51 61 74q39 23 90 22q49 0 89 -22q39 -27 28 -82q-14 -70 -117 -131q-47 -27 -92 -53.5t-90 -53.5 q-104 -72 -127 -174zM270 680h682l15 72h-682zM633 1282l35 -45l123 104l-103 -481h68l123 574h-70z" />
<glyph unicode="&#xbe;" d="M270 680h682l15 72h-682zM276 115h297l-24 -115h67l25 115h68l14 71h-68l82 387h-57l-389 -387zM362 186l285 281l-59 -281h-226zM461 950q27 -104 176 -104q86 0 158 47q77 47 100 139q23 106 -76 150q90 37 105 114q18 76 -35 117q-47 35 -123 35q-150 0 -207 -105 l59 -24q33 57 134 57q119 0 104 -80q-4 -20 -19.5 -34.5t-37.5 -24.5q-41 -18 -80 -18h-41l-16 -72h40q55 0 93 -29q45 -35 30 -86q-8 -57 -65 -90q-49 -25 -107 -24q-106 0 -125 67z" />
<glyph unicode="&#xbf;" horiz-adv-x="866" d="M150 117q-29 -137 40 -234q68 -98 195 -98q129 0 238 98q110 99 141 234h-170q-16 -61 -64.5 -107.5t-105.5 -46.5q-55 0 -86 46t-16 108q18 92 120 174q47 35 92.5 66.5t90.5 66.5q106 90 133 215q2 10 8 63.5t18 157.5h-102q-18 -59 -31.5 -104t-21.5 -76 q-49 -139 -162 -215q-45 -29 -91 -56.5t-93 -56.5q-98 -78 -133 -235zM672 1128.5q-10 -53.5 16.5 -89t77.5 -35.5q49 0 91 35.5t52 88.5t-15.5 89t-74.5 36q-51 0 -94 -35.5t-53 -89z" />
<glyph unicode="&#xc0;" horiz-adv-x="1253" d="M41 0h180l180 322h586l45 -322h180l-188 1434h-184zM502 502l375 669l90 -669h-465zM786 1792l123 -215h103l-56 215h-170z" />
<glyph unicode="&#xc1;" horiz-adv-x="1253" d="M41 0h180l180 322h586l45 -322h180l-188 1434h-184zM502 502l375 669l90 -669h-465zM909 1577h103l217 215h-170z" />
<glyph unicode="&#xc2;" horiz-adv-x="1253" d="M41 0h180l180 322h586l45 -322h180l-188 1434h-184zM502 502l375 669l90 -669h-465zM758 1577h102l129 129l76 -129h102l-90 215h-137z" />
<glyph unicode="&#xc3;" horiz-adv-x="1253" d="M41 0h180l180 322h586l45 -322h180l-188 1434h-184zM502 502l375 669l90 -669h-465zM717 1640l84 -55q43 86 78 86q39 0 102 -47q66 -47 106 -47q90 0 166 158l-82 53q-43 -86 -75 -86q-41 0 -107 47q-61 49 -104 49q-90 0 -168 -158z" />
<glyph unicode="&#xc4;" horiz-adv-x="1253" d="M41 0h180l180 322h586l45 -322h180l-188 1434h-184zM502 502l375 669l90 -669h-465zM727 1667q-8 -39 11.5 -64.5t56.5 -25.5q35 0 64.5 25.5t37.5 64.5q10 37 -10.5 62.5t-55.5 25.5q-37 0 -66.5 -25.5t-37.5 -62.5zM1067 1667q-8 -39 11.5 -64.5t56.5 -25.5 q35 0 64.5 25.5t39.5 64.5q8 37 -12.5 62.5t-55.5 25.5t-64.5 -25.5t-39.5 -62.5z" />
<glyph unicode="&#xc5;" horiz-adv-x="1253" d="M41 0h180l180 322h586l45 -322h180l-182 1397q94 59 115 162q16 84 -27 139q-39 57 -119 57q-78 0 -147 -57q-31 -29 -52.5 -64t-29.5 -75q-23 -106 49 -164zM502 502l375 669l90 -669h-465zM837.5 1558.5q10.5 53.5 54.5 89t93 35.5q51 0 76.5 -35.5t15.5 -88.5t-53 -89 t-92 -36t-77 35.5t-17.5 89z" />
<glyph unicode="&#xc6;" horiz-adv-x="1941" d="M41 0h180l180 322h586l45 -322h783l38 178h-614l96 449h443l39 180h-443l94 446h615l37 181h-783l-194 -908l-119 908h-184zM502 502l375 669l90 -669h-465z" />
<glyph unicode="&#xc7;" horiz-adv-x="1411" d="M236 717q-61 -287 75 -504q141 -215 406 -246l-53 -129h49q35 0 55 -26.5t12 -63.5q-8 -35 -38.5 -61.5t-65.5 -26.5h-119l-31 -55h138q55 0 104 42t61 101q10 51 -12 91t-65 50l30 74q303 0 561 221l-96 123q-195 -164 -418 -164q-221 0 -350 168q-125 166 -71 406 q49 236 243 405q195 168 422 168q223 0 346 -166l150 125q-158 219 -459 219q-295 0 -553 -221q-258 -223 -321 -530z" />
<glyph unicode="&#xc8;" horiz-adv-x="1206" d="M125 0h954l37 178h-782l94 449h612l41 180h-614l96 446h783l36 181h-952zM764 1792l123 -215h102l-55 215h-170z" />
<glyph unicode="&#xc9;" horiz-adv-x="1206" d="M125 0h954l37 178h-782l94 449h612l41 180h-614l96 446h783l36 181h-952zM887 1577h102l217 215h-170z" />
<glyph unicode="&#xca;" horiz-adv-x="1206" d="M125 0h954l37 178h-782l94 449h612l41 180h-614l96 446h783l36 181h-952zM733 1577h103l129 129l73 -129h103l-88 215h-138z" />
<glyph unicode="&#xcb;" horiz-adv-x="1206" d="M125 0h954l37 178h-782l94 449h612l41 180h-614l96 446h783l36 181h-952zM702 1667q-8 -39 10.5 -64.5t53.5 -25.5q37 0 67.5 25.5t38.5 64.5q8 37 -12 62.5t-55 25.5t-64.5 -25.5t-38.5 -62.5zM1042 1667q-8 -39 11.5 -64.5t54.5 -25.5t65.5 25.5t38.5 64.5 q10 37 -10 62.5t-57 25.5q-35 0 -64.5 -25.5t-38.5 -62.5z" />
<glyph unicode="&#xcc;" horiz-adv-x="421" d="M125 0h170l305 1434h-170zM371 1792l123 -215h102l-55 215h-170z" />
<glyph unicode="&#xcd;" horiz-adv-x="421" d="M125 0h170l305 1434h-170zM494 1577h102l217 215h-170z" />
<glyph unicode="&#xce;" horiz-adv-x="421" d="M125 0h170l305 1434h-170zM342 1577h102l129 129l76 -129h103l-90 215h-138z" />
<glyph unicode="&#xcf;" horiz-adv-x="421" d="M125 0h170l305 1434h-170zM309 1667q-8 -39 11.5 -64.5t56.5 -25.5q35 0 64.5 25.5t37.5 64.5q10 37 -10 62.5t-55 25.5q-37 0 -66 -25.5t-39 -62.5zM651 1667q-10 -39 9.5 -64.5t56.5 -25.5q35 0 64.5 25.5t39.5 64.5q8 37 -12.5 62.5t-54.5 25.5q-35 0 -65 -25.5 t-38 -62.5z" />
<glyph unicode="&#xd0;" horiz-adv-x="1554" d="M225 664h170l-141 -664h512q276 0 522 209q248 211 309 508q63 293 -94 506q-154 211 -434 211h-510l-133 -627h-170zM463 178l102 486h342l31 143h-342l96 446h340q213 0 326 -157q118 -156 69 -379q-45 -223 -231 -381t-393 -158h-340z" />
<glyph unicode="&#xd1;" horiz-adv-x="1341" d="M125 0h170l237 1110l512 -1110h170l306 1434h-170l-238 -1112l-512 1112h-170zM762 1640l84 -55q43 86 76 86q39 0 104.5 -47t106.5 -47q89 0 165 158l-84 53q-41 -86 -75 -86q-39 0 -105 47q-61 49 -104 49q-90 0 -168 -158z" />
<glyph unicode="&#xd2;" horiz-adv-x="1597" d="M225.5 427q22.5 -132 106.5 -243q160 -221 461 -221q293 0 550 221q256 224 324 533q68 311 -98 532q-158 219 -459 219q-297 0 -553 -219q-254 -219 -321 -532q-33 -158 -10.5 -290zM408 717q49 236 243 405q195 168 422 168q223 0 348 -167.5t76 -405.5 q-53 -238 -247.5 -406t-420.5 -168q-221 0 -350 168q-125 166 -71 406zM958 1792l123 -215h103l-56 215h-170z" />
<glyph unicode="&#xd3;" horiz-adv-x="1597" d="M225.5 427q22.5 -132 106.5 -243q160 -221 461 -221q293 0 550 221q256 224 324 533q68 311 -98 532q-158 219 -459 219q-297 0 -553 -219q-254 -219 -321 -532q-33 -158 -10.5 -290zM408 717q49 236 243 405q195 168 422 168q223 0 348 -167.5t76 -405.5 q-53 -238 -247.5 -406t-420.5 -168q-221 0 -350 168q-125 166 -71 406zM1081 1577h103l217 215h-170z" />
<glyph unicode="&#xd4;" horiz-adv-x="1597" d="M225.5 427q22.5 -132 106.5 -243q160 -221 461 -221q293 0 550 221q256 224 324 533q68 311 -98 532q-158 219 -459 219q-297 0 -553 -219q-254 -219 -321 -532q-33 -158 -10.5 -290zM408 717q49 236 243 405q195 168 422 168q223 0 348 -167.5t76 -405.5 q-53 -238 -247.5 -406t-420.5 -168q-221 0 -350 168q-125 166 -71 406zM930 1577h102l129 129l76 -129h102l-90 215h-137z" />
<glyph unicode="&#xd5;" horiz-adv-x="1597" d="M225.5 427q22.5 -132 106.5 -243q160 -221 461 -221q293 0 550 221q256 224 324 533q68 311 -98 532q-158 219 -459 219q-297 0 -553 -219q-254 -219 -321 -532q-33 -158 -10.5 -290zM408 717q49 236 243 405q195 168 422 168q223 0 348 -167.5t76 -405.5 q-53 -238 -247.5 -406t-420.5 -168q-221 0 -350 168q-125 166 -71 406zM889 1640l84 -55q43 86 78 86q39 0 102 -47q66 -47 107 -47q89 0 165 158l-82 53q-43 -86 -75 -86q-41 0 -107 47q-61 49 -104 49q-90 0 -168 -158z" />
<glyph unicode="&#xd6;" horiz-adv-x="1597" d="M225.5 427q22.5 -132 106.5 -243q160 -221 461 -221q293 0 550 221q256 224 324 533q68 311 -98 532q-158 219 -459 219q-297 0 -553 -219q-254 -219 -321 -532q-33 -158 -10.5 -290zM408 717q49 236 243 405q195 168 422 168q223 0 348 -167.5t76 -405.5 q-53 -238 -247.5 -406t-420.5 -168q-221 0 -350 168q-125 166 -71 406zM897 1667q-8 -39 11.5 -64.5t56.5 -25.5q35 0 64.5 25.5t37.5 64.5q10 37 -10.5 62.5t-55.5 25.5q-37 0 -65.5 -25.5t-38.5 -62.5zM1239 1667q-10 -39 9.5 -64.5t56.5 -25.5q35 0 64.5 25.5t39.5 64.5 q8 37 -12.5 62.5t-55.5 25.5t-64.5 -25.5t-37.5 -62.5z" />
<glyph unicode="&#xd7;" horiz-adv-x="925" d="M186 285l76 -103l293 254l186 -254l121 103l-186 252l293 254l-76 102l-295 -254l-186 254l-119 -102l186 -254z" />
<glyph unicode="&#xd8;" horiz-adv-x="1597" d="M51 53l41 -53l238 188q166 -225 463 -225q293 0 550 221q256 223 324 533q55 266 -61 473l243 190l-39 54l-239 -189q-166 223 -461 223q-297 0 -553 -219q-254 -219 -321 -532q-55 -270 59 -473zM408 717q49 236 243 405q195 168 422 168q225 0 346 -164l-973 -761 q-82 154 -38 352zM481 307l973 762q86 -153 43 -352q-53 -238 -247.5 -406t-420.5 -168q-223 0 -348 164z" />
<glyph unicode="&#xd9;" horiz-adv-x="1308" d="M223 537q-49 -238 74 -404q123 -170 350 -170q221 0 420 170q98 86 159.5 185.5t86.5 218.5l190 897h-170l-190 -897q-33 -160 -170 -279q-135 -115 -289 -115q-162 0 -240 115q-86 115 -51 279l191 897h-170zM813 1792l125 -215h100l-55 215h-170z" />
<glyph unicode="&#xda;" horiz-adv-x="1308" d="M223 537q-49 -238 74 -404q123 -170 350 -170q221 0 420 170q98 86 159.5 185.5t86.5 218.5l190 897h-170l-190 -897q-33 -160 -170 -279q-135 -115 -289 -115q-162 0 -240 115q-86 115 -51 279l191 897h-170zM938 1577h100l217 215h-170z" />
<glyph unicode="&#xdb;" horiz-adv-x="1308" d="M223 537q-49 -238 74 -404q123 -170 350 -170q221 0 420 170q98 86 159.5 185.5t86.5 218.5l190 897h-170l-190 -897q-33 -160 -170 -279q-135 -115 -289 -115q-162 0 -240 115q-86 115 -51 279l191 897h-170zM784 1577h103l129 129l76 -129h102l-90 215h-137z" />
<glyph unicode="&#xdc;" horiz-adv-x="1308" d="M223 537q-49 -238 74 -404q123 -170 350 -170q221 0 420 170q98 86 159.5 185.5t86.5 218.5l190 897h-170l-190 -897q-33 -160 -170 -279q-135 -115 -289 -115q-162 0 -240 115q-86 115 -51 279l191 897h-170zM752 1667q-8 -39 11 -64.5t56 -25.5q35 0 65 25.5t40 64.5 q8 37 -12.5 62.5t-55.5 25.5t-64.5 -25.5t-39.5 -62.5zM1094 1667q-10 -39 9 -64.5t56 -25.5q35 0 66 25.5t39 64.5q8 37 -12.5 62.5t-55.5 25.5t-64.5 -25.5t-37.5 -62.5z" />
<glyph unicode="&#xdd;" horiz-adv-x="1253" d="M346 1434l340 -748l-145 -686h170l145 686l660 748h-209l-494 -560l-256 560h-211zM909 1577h103l217 215h-170z" />
<glyph unicode="&#xde;" horiz-adv-x="1196" d="M125 0h170l67 313h408q172 0 324 113q151 115 188 291q20 88 2 160.5t-70 132.5q-106 111 -272 110h-407l65 314h-170zM399 494l97 446h409q100 0 162 -59q65 -66 45 -164q-10 -49 -39 -91t-78 -75q-84 -57 -186 -57h-410z" />
<glyph unicode="&#xdf;" horiz-adv-x="1255" d="M88 -180h170l227 1075q35 158 142 270q117 125 258 125q295 0 256 -196q-20 -98 -144 -154q-98 -45 -204 -45h-103l-39 -178h103q139 0 233 -70q111 -80 80 -217q-27 -143 -170 -223q-113 -63 -264 -64q-63 0 -133 17l-76 -172q82 -25 170 -25q217 0 397 115 q199 129 248 352q27 137 -27 234q-45 90 -159 143q215 82 258 287q43 193 -86 290q-109 84 -301 84q-215 0 -392 -176q-170 -172 -217 -397z" />
<glyph unicode="&#xe0;" horiz-adv-x="1128" d="M37 0h162l161 291h529l39 -291h166l-172 1290h-166zM453 451l333 604l82 -604h-415zM707 1612l112 -193h90l-49 193h-153z" />
<glyph unicode="&#xe1;" horiz-adv-x="1128" d="M37 0h162l161 291h529l39 -291h166l-172 1290h-166zM453 451l333 604l82 -604h-415zM819 1419h90l197 193h-154z" />
<glyph unicode="&#xe2;" horiz-adv-x="1128" d="M37 0h162l161 291h529l39 -291h166l-172 1290h-166zM453 451l333 604l82 -604h-415zM680 1419h92l117 117l67 -117h93l-82 193h-123z" />
<glyph unicode="&#xe3;" horiz-adv-x="1128" d="M37 0h162l161 291h529l39 -291h166l-172 1290h-166zM453 451l333 604l82 -604h-415zM645 1475l78 -50q33 80 68 80q39 0 92 -45q31 -20 53 -30.5t43 -10.5q77 1 149 142l-75 49q-37 -78 -66 -78q-41 0 -94 41q-59 45 -96 45q-82 0 -152 -143z" />
<glyph unicode="&#xe4;" horiz-adv-x="1128" d="M37 0h162l161 291h529l39 -291h166l-172 1290h-166zM453 451l333 604l82 -604h-415zM653 1499q-6 -35 10.5 -57.5t49.5 -22.5t60.5 22.5t35.5 57.5q6 35 -11.5 58.5t-49.5 23.5q-33 0 -59.5 -23.5t-35.5 -58.5zM960.5 1499q-6.5 -35 10 -57.5t49.5 -22.5t60.5 22.5 t33.5 57.5q8 35 -10.5 58.5t-50.5 23.5q-33 0 -59.5 -23.5t-33 -58.5z" />
<glyph unicode="&#xe5;" horiz-adv-x="1128" d="M37 0h162l161 291h529l39 -291h166l-168 1255q88 57 104 148q14 74 -24 123q-37 55 -109 55q-68 0 -129 -55q-61 -51 -76 -123q-18 -94 45 -150zM453 451l333 604l82 -604h-415zM753.5 1403q10.5 47 48.5 80t83 33q47 0 69.5 -33t12.5 -80t-47 -80t-82 -33t-70 33 t-14.5 80z" />
<glyph unicode="&#xe6;" horiz-adv-x="1746" d="M37 0h162l161 291h529l39 -291h704l35 162h-553l86 403h399l35 160h-399l86 403h551l35 162h-705l-174 -815l-106 815h-166zM453 451l333 604l82 -604h-415z" />
<glyph unicode="&#xe7;" horiz-adv-x="1271" d="M213 645q-55 -262 68 -452q127 -195 364 -222l-49 -116h45q31 0 48.5 -24t11 -56.5t-34 -57t-58.5 -24.5h-108l-25 -47h121q53 0 97 37.5t55 91.5q10 45 -10.5 79.5t-61.5 45.5l29 67q265 -2 505 199l-86 113q-174 -150 -379 -150t-313 152q-111 147 -67 364 q43 213 223 365q176 152 379 151q201 0 313 -149l131 112q-145 199 -412 199q-262 0 -497 -201q-115 -98 -187.5 -218t-101.5 -259z" />
<glyph unicode="&#xe8;" horiz-adv-x="1083" d="M115 0h856l35 162h-705l86 403h551l35 160h-551l86 403h702l35 162h-856zM686 1612l111 -193h94l-53 193h-152z" />
<glyph unicode="&#xe9;" horiz-adv-x="1083" d="M115 0h856l35 162h-705l86 403h551l35 160h-551l86 403h702l35 162h-856zM797 1419h94l192 193h-151z" />
<glyph unicode="&#xea;" horiz-adv-x="1083" d="M115 0h856l35 162h-705l86 403h551l35 160h-551l86 403h702l35 162h-856zM659 1419h93l116 117l68 -117h92l-82 193h-123z" />
<glyph unicode="&#xeb;" horiz-adv-x="1083" d="M115 0h856l35 162h-705l86 403h551l35 160h-551l86 403h702l35 162h-856zM633 1499q-8 -35 8 -57.5t51 -22.5q31 0 58.5 22.5t33.5 57.5q8 35 -10 58.5t-49 23.5q-35 0 -60.5 -23.5t-31.5 -58.5zM938 1499q-6 -35 9.5 -57.5t49.5 -22.5q31 0 59 22.5t36 57.5 q6 35 -11.5 58.5t-48.5 23.5q-35 0 -60.5 -23.5t-33.5 -58.5z" />
<glyph unicode="&#xec;" horiz-adv-x="378" d="M115 0h151l275 1290h-152zM334 1612l112 -193h91l-50 193h-153z" />
<glyph unicode="&#xed;" horiz-adv-x="378" d="M115 0h151l275 1290h-152zM446 1419h91l196 193h-153z" />
<glyph unicode="&#xee;" horiz-adv-x="378" d="M115 0h151l275 1290h-152zM307 1419h92l117 117l68 -117h92l-82 193h-123z" />
<glyph unicode="&#xef;" horiz-adv-x="378" d="M115 0h151l275 1290h-152zM279 1499q-6 -35 9 -57.5t50 -22.5q33 0 60.5 22.5t35.5 57.5q6 35 -11 58.5t-50 23.5q-35 0 -60.5 -23.5t-33.5 -58.5zM586 1499q-6 -35 9 -57.5t50 -22.5q33 0 60.5 22.5t33.5 57.5q8 35 -9 58.5t-50 23.5q-35 0 -61.5 -23.5t-32.5 -58.5z " />
<glyph unicode="&#xf0;" horiz-adv-x="1398" d="M203 596h151l-127 -596h461q252 0 471 188q113 96 181.5 209t99.5 248q55 270 -86 455q-135 190 -391 190h-461l-121 -565h-152zM416 162l92 434h307l27 129h-305l86 403h305q190 0 295 -141q53 -72 67 -156t-6 -186q-43 -203 -207 -342q-162 -141 -354 -141h-307z" />
<glyph unicode="&#xf1;" horiz-adv-x="1208" d="M115 0h151l213 999l461 -999h156l272 1290h-154l-213 -999l-460 999h-152zM686 1475l76 -50q33 80 69 80q39 0 93 -45q59 -41 94 -41q81 1 149 142l-71 49q-39 -78 -72 -78q-37 0 -94 41q-51 45 -92 45q-84 0 -152 -143z" />
<glyph unicode="&#xf2;" horiz-adv-x="1437" d="M213 645q-61 -283 86 -479q150 -199 412 -199q264 0 499 199q228 196 289 479q61 281 -88 479q-145 199 -412 199q-262 0 -497 -199q-231 -203 -289 -479zM365 645q43 213 223 365q176 152 379 151q203 0 313 -151q109 -150 66 -365q-47 -215 -222 -364 q-172 -152 -379 -152q-205 0 -313 152q-111 147 -67 364zM862 1612l111 -193h94l-53 193h-152z" />
<glyph unicode="&#xf3;" horiz-adv-x="1437" d="M213 645q-61 -283 86 -479q150 -199 412 -199q264 0 499 199q228 196 289 479q61 281 -88 479q-145 199 -412 199q-262 0 -497 -199q-231 -203 -289 -479zM365 645q43 213 223 365q176 152 379 151q203 0 313 -151q109 -150 66 -365q-47 -215 -222 -364 q-172 -152 -379 -152q-205 0 -313 152q-111 147 -67 364zM973 1419h94l193 193h-152z" />
<glyph unicode="&#xf4;" horiz-adv-x="1437" d="M213 645q-61 -283 86 -479q150 -199 412 -199q264 0 499 199q228 196 289 479q61 281 -88 479q-145 199 -412 199q-262 0 -497 -199q-231 -203 -289 -479zM365 645q43 213 223 365q176 152 379 151q203 0 313 -151q109 -150 66 -365q-47 -215 -222 -364 q-172 -152 -379 -152q-205 0 -313 152q-111 147 -67 364zM836 1419h92l116 117l66 -117h94l-82 193h-123z" />
<glyph unicode="&#xf5;" horiz-adv-x="1437" d="M213 645q-61 -283 86 -479q150 -199 412 -199q264 0 499 199q228 196 289 479q61 281 -88 479q-145 199 -412 199q-262 0 -497 -199q-231 -203 -289 -479zM365 645q43 213 223 365q176 152 379 151q203 0 313 -151q109 -150 66 -365q-47 -215 -222 -364 q-172 -152 -379 -152q-205 0 -313 152q-111 147 -67 364zM801 1475l76 -50q37 80 69 80q39 0 92 -45q29 -20 51.5 -30.5t45.5 -10.5q81 1 147 142l-72 49q-39 -78 -69 -78q-37 0 -94 41q-57 45 -95 45q-84 0 -151 -143z" />
<glyph unicode="&#xf6;" horiz-adv-x="1437" d="M213 645q-61 -283 86 -479q150 -199 412 -199q264 0 499 199q228 196 289 479q61 281 -88 479q-145 199 -412 199q-262 0 -497 -199q-231 -203 -289 -479zM365 645q43 213 223 365q176 152 379 151q203 0 313 -151q109 -150 66 -365q-47 -215 -222 -364 q-172 -152 -379 -152q-205 0 -313 152q-111 147 -67 364zM809 1499q-8 -35 8.5 -57.5t48.5 -22.5q33 0 61 22.5t34 57.5t-11.5 58.5t-50.5 23.5q-31 0 -57.5 -23.5t-32.5 -58.5zM1114 1499q-6 -35 10.5 -57.5t46.5 -22.5q33 0 61 22.5t36 57.5q6 35 -11.5 58.5t-50.5 23.5 q-31 0 -57.5 -23.5t-34.5 -58.5z" />
<glyph unicode="&#xf7;" d="M223 465h682l31 143h-682zM375 125q-10 -53 15.5 -89t74.5 -36q51 0 94 36t53 89t-16.5 89t-75.5 36q-51 0 -93 -36t-52 -89zM551 950q-12 -53 14.5 -90t75.5 -37q51 0 93 37t54 90q10 53 -16.5 89t-77.5 36q-49 0 -91 -35.5t-52 -89.5z" />
<glyph unicode="&#xf8;" horiz-adv-x="1437" d="M49 49l35 -49l213 168q152 -201 414 -201q264 0 499 199q227 197 289 479q49 240 -55 426l221 170l-37 49l-217 -170q-147 203 -412 203q-262 0 -497 -199q-231 -203 -289 -479q-53 -242 53 -426zM354 477.5q-10 77.5 11 167.5q43 213 223 365q176 152 379 151 q200 0 311 -147l-877 -686q-37 72 -47 149.5zM434 276l877 687q72 -142 35 -318q-47 -215 -222 -364q-172 -152 -379 -152q-201 0 -311 147z" />
<glyph unicode="&#xf9;" horiz-adv-x="1175" d="M201 483q-43 -215 65 -362q113 -154 316 -154q102 0 194 38t185 116q178 149 221 362l172 807h-154l-172 -807q-14 -74 -53 -136t-98 -114q-123 -104 -261 -104q-141 0 -217 104q-39 51 -49 114t4 136l172 807h-153zM733 1612l111 -193h92l-51 193h-152z" />
<glyph unicode="&#xfa;" horiz-adv-x="1175" d="M201 483q-43 -215 65 -362q113 -154 316 -154q102 0 194 38t185 116q178 149 221 362l172 807h-154l-172 -807q-14 -74 -53 -136t-98 -114q-123 -104 -261 -104q-141 0 -217 104q-39 51 -49 114t4 136l172 807h-153zM844 1419h92l194 193h-153z" />
<glyph unicode="&#xfb;" horiz-adv-x="1175" d="M201 483q-43 -215 65 -362q113 -154 316 -154q102 0 194 38t185 116q178 149 221 362l172 807h-154l-172 -807q-14 -74 -53 -136t-98 -114q-123 -104 -261 -104q-141 0 -217 104q-39 51 -49 114t4 136l172 807h-153zM707 1419h90l118 117l66 -117h92l-80 193h-125z" />
<glyph unicode="&#xfc;" horiz-adv-x="1175" d="M201 483q-43 -215 65 -362q113 -154 316 -154q102 0 194 38t185 116q178 149 221 362l172 807h-154l-172 -807q-14 -74 -53 -136t-98 -114q-123 -104 -261 -104q-141 0 -217 104q-39 51 -49 114t4 136l172 807h-153zM678 1499q-8 -35 9.5 -57.5t49.5 -22.5 q33 0 60.5 22.5t33.5 57.5t-11 58.5t-50 23.5t-59.5 -23.5t-32.5 -58.5zM983 1499q-6 -35 9.5 -57.5t49.5 -22.5q33 0 61 22.5t36 57.5q6 35 -11.5 58.5t-50.5 23.5q-35 0 -60.5 -23.5t-33.5 -58.5z" />
<glyph unicode="&#xfd;" horiz-adv-x="1126" d="M311 1290l307 -672l-131 -618h152l131 618l596 672h-190l-447 -504l-229 504h-189zM819 1419h90l197 193h-154z" />
<glyph unicode="&#xfe;" horiz-adv-x="1077" d="M115 0h151l60 281h368q150 0 287 102q141 104 174 262q16 78 0 144.5t-61 119.5q-92 98 -246 99h-369l62 282h-152zM362 442l84 404h367q92 0 145 -51q62 -66 46 -150q-18 -84 -109 -149q-78 -53 -166 -54h-367z" />
<glyph unicode="&#xff;" horiz-adv-x="1126" d="M311 1290l307 -672l-131 -618h152l131 618l596 672h-190l-447 -504l-229 504h-189zM651 1499q-6 -35 10.5 -57.5t49.5 -22.5t60.5 22.5t35.5 57.5q6 35 -11.5 58.5t-50.5 23.5t-59.5 -23.5t-34.5 -58.5zM958.5 1499q-6.5 -35 10 -57.5t49.5 -22.5t60.5 22.5t33.5 57.5 q8 35 -9.5 58.5t-49.5 23.5q-33 0 -60.5 -23.5t-34 -58.5z" />
<glyph unicode="&#x152;" horiz-adv-x="2252" d="M225.5 427q22.5 -132 106.5 -243q160 -221 461 -221q328 0 600 266l-50 -229h785l37 178h-613l95 449h442l39 180h-442l96 446h612l37 181h-782l-50 -230q-156 264 -489 264q-297 0 -553 -219q-254 -219 -321 -532q-33 -158 -10.5 -290zM408 717q49 236 243 405 q195 168 422 168q223 0 348 -167.5t76 -405.5q-53 -238 -247.5 -406t-420.5 -168q-221 0 -350 168q-125 166 -71 406z" />
<glyph unicode="&#x153;" horiz-adv-x="2027" d="M213 645q-61 -283 86 -479q150 -199 412 -199q297 0 540 240l-43 -207h705l35 162h-551l86 403h397l33 160h-397l86 403h552l33 162h-704l-43 -207q-145 240 -441 240q-262 0 -497 -199q-231 -203 -289 -479zM365 645q43 213 223 365q176 152 379 151q203 0 313 -151 q109 -150 66 -365q-47 -215 -222 -364q-172 -152 -379 -152q-205 0 -313 152q-111 147 -67 364z" />
<glyph unicode="&#x178;" horiz-adv-x="1253" d="M346 1434l340 -748l-145 -686h170l145 686l660 748h-209l-494 -560l-256 560h-211zM725 1667q-8 -39 11.5 -64.5t56.5 -25.5q35 0 64.5 25.5t37.5 64.5q10 37 -10.5 62.5t-55.5 25.5q-37 0 -65.5 -25.5t-38.5 -62.5zM1067 1667q-10 -39 9.5 -64.5t56.5 -25.5 q35 0 64.5 25.5t39.5 64.5q8 37 -12.5 62.5t-55.5 25.5t-64.5 -25.5t-37.5 -62.5z" />
<glyph unicode="&#x2c6;" horiz-adv-x="661" d="M385 1219h102l129 129l76 -129h103l-93 215h-137z" />
<glyph unicode="&#x2dc;" horiz-adv-x="765" d="M395 1276l86 -53q39 86 76 86q43 0 102 -49q35 -23 59.5 -35.5t47.5 -12.5q88 0 168 158l-82 55q-43 -86 -76 -86q-43 0 -108 45q-61 49 -103 50q-92 0 -170 -158z" />
<glyph unicode="&#x2000;" horiz-adv-x="899" />
<glyph unicode="&#x2001;" horiz-adv-x="1798" />
<glyph unicode="&#x2002;" horiz-adv-x="899" />
<glyph unicode="&#x2003;" horiz-adv-x="1798" />
<glyph unicode="&#x2004;" horiz-adv-x="599" />
<glyph unicode="&#x2005;" horiz-adv-x="449" />
<glyph unicode="&#x2006;" horiz-adv-x="299" />
<glyph unicode="&#x2007;" horiz-adv-x="299" />
<glyph unicode="&#x2008;" horiz-adv-x="224" />
<glyph unicode="&#x2009;" horiz-adv-x="359" />
<glyph unicode="&#x200a;" horiz-adv-x="99" />
<glyph unicode="&#x2010;" d="M223 465h682l31 143h-682z" />
<glyph unicode="&#x2011;" d="M223 465h682l31 143h-682z" />
<glyph unicode="&#x2012;" d="M223 465h682l31 143h-682z" />
<glyph unicode="&#x2013;" horiz-adv-x="763" d="M223 465h512l31 143h-512z" />
<glyph unicode="&#x2014;" horiz-adv-x="1103" d="M223 465h852l31 143h-852z" />
<glyph unicode="&#x2018;" horiz-adv-x="491" d="M324 932h239l51 250h-170q14 76 57.5 128t84.5 52l14 72q-72 0 -135.5 -74t-87.5 -178z" />
<glyph unicode="&#x2019;" horiz-adv-x="491" d="M377 1182h170q-16 -74 -56 -126t-83 -52l-15 -72q72 0 133 74q65 70 88 176l54 252h-238z" />
<glyph unicode="&#x201a;" horiz-adv-x="491" d="M125 0h170q-16 -74 -56 -127t-83 -53l-17 -72q70 0 137 74q66 72 89 178l53 250h-240z" />
<glyph unicode="&#x201c;" horiz-adv-x="866" d="M324 932h239l51 250h-170q14 76 57.5 128t84.5 52l14 72q-72 0 -135.5 -74t-87.5 -178zM698 932h240l51 250h-170q14 76 57.5 128t84.5 52l14 72q-70 0 -137 -74q-31 -37 -53.5 -81t-32.5 -97z" />
<glyph unicode="&#x201d;" horiz-adv-x="866" d="M377 1182h170q-16 -74 -56 -126t-83 -52l-15 -72q72 0 133 74q65 70 88 176l54 252h-238zM752 1182h170q-16 -74 -57.5 -126t-84.5 -52l-14 -72q74 0 135 74q65 70 88 176l53 252h-237z" />
<glyph unicode="&#x201e;" horiz-adv-x="866" d="M125 0h170q-16 -74 -56 -127t-83 -53l-17 -72q70 0 137 74q66 72 89 178l53 250h-240zM500 0h170q-16 -74 -56.5 -127t-83.5 -53l-16 -72q70 0 137 74q63 74 86 178l56 250h-240z" />
<glyph unicode="&#x2022;" horiz-adv-x="866" d="M240 537q-29 -131 43 -228q70 -94 196 -94q125 0 236 92q108 97 137 230q27 133 -41 229q-70 94 -197 94q-125 0 -235 -94q-111 -96 -139 -229z" />
<glyph unicode="&#x2026;" horiz-adv-x="1376" d="M151.5 125q-10.5 -53 16.5 -89t78 -36q49 0 92 36t53 89t-16.5 89t-75.5 36t-93 -36t-54.5 -89zM594 125q-10 -53 17.5 -89t76.5 -36t92.5 36t53.5 89t-15.5 89t-77.5 36q-49 0 -93 -36t-54 -89zM1038.5 125q-10.5 -53 16 -89t75.5 -36t92.5 36t53.5 89t-15.5 89 t-76.5 36q-49 0 -92 -36t-53.5 -89z" />
<glyph unicode="&#x202f;" horiz-adv-x="359" />
<glyph unicode="&#x2039;" horiz-adv-x="727" d="M242 551l342 -285l98 121l-279 236l379 233l-47 121l-463 -283z" />
<glyph unicode="&#x203a;" horiz-adv-x="727" d="M207 387l51 -121l459 285l31 143l-340 283l-101 -121l283 -233z" />
<glyph unicode="&#x205f;" horiz-adv-x="449" />
<glyph unicode="&#x20ac;" horiz-adv-x="1550" d="M227 483h197q25 -227 182 -377q156 -143 389 -143q193 0 383 105l47 219q-190 -143 -391 -144q-160 0 -278 93q-115 96 -148 247h629l78 144h-719q2 23 6 45t8 45q6 23 11.5 45t15.5 45h780l80 143h-788q98 154 252 246q156 94 317 94q203 0 330 -143l98 178 q-156 143 -391 143q-233 0 -451 -143q-219 -147 -340 -375h-145l-82 -143h168q-10 -23 -14.5 -45.5t-10.5 -44.5q-4 -23 -8 -45.5t-8 -44.5h-115z" />
<glyph unicode="&#x2122;" horiz-adv-x="1490" d="M403 1309h222l-131 -629h116l133 629h189l-133 -629h119l108 520l70 -520h116l287 518l-108 -518h120l158 754h-164l-309 -553l-72 553h-694z" />
<glyph unicode="&#x25fc;" horiz-adv-x="1290" d="M0 0v1290h1290v-1290h-1290z" />
</font>
</defs>
</svg>
