<?xml version="1.0" standalone="no"?>
<!DOCTYPE svg PUBLIC "-//W3C//DTD SVG 1.1//EN" "http://www.w3.org/Graphics/SVG/1.1/DTD/svg11.dtd" >
<svg xmlns="http://www.w3.org/2000/svg" xmlns:xlink="http://www.w3.org/1999/xlink" version="1.1">
<metadata></metadata>
<defs>
<font id="florencesans_scregular" horiz-adv-x="980" >
<font-face units-per-em="2048" ascent="1638" descent="-410" />
<missing-glyph horiz-adv-x="892" />
<glyph horiz-adv-x="0" />
<glyph unicode="&#xd;" horiz-adv-x="1024" />
<glyph unicode=" "  horiz-adv-x="892" />
<glyph unicode="&#x09;" horiz-adv-x="892" />
<glyph unicode="&#xa0;" horiz-adv-x="892" />
<glyph unicode="!" horiz-adv-x="516" d="M133 125q0 -53 36 -89t89 -36t89 36t36 89t-36 89t-89 36t-89 -36t-36 -89zM168 1434l37 -1041h106l37 1041h-180z" />
<glyph unicode="&#x22;" horiz-adv-x="946" d="M133 1505l78 -491q10 -47 47 -47t47 47l78 491h-250zM563 1505l78 -491q10 -47 47 -47t47 47l78 491h-250z" />
<glyph unicode="#" horiz-adv-x="1196" d="M133 608h193l-19 -215h144l18 215h215l-18 -215h143l18 215h238v144h-225l20 215h205v143h-193l19 215h-143l-19 -215h-215l18 215h-143l-18 -215h-238v-143h225l-20 -215h-205v-144zM481 752l21 215h215l-21 -215h-215z" />
<glyph unicode="$" horiz-adv-x="1411" d="M133 387q0 -184 156 -297q129 -96 327 -121v-149h179v149q201 25 329 121q156 115 156 297q0 201 -150 301q-104 66 -335 103v491q55 -10 101 -25.5t81 -42.5q88 -63 88 -163h178q0 172 -141 288q-127 100 -307 125v148h-179v-148q-92 -12 -167.5 -43.5t-139.5 -81.5 q-141 -117 -141 -288q0 -195 133 -297q49 -35 127 -63.5t188 -45.5v-495q-61 6 -112 21t-90 42q-102 66 -103 174h-178zM348 1051q0 100 88 163q35 27 80 42.5t100 25.5v-463q-123 25 -182 66q-86 57 -86 166zM795 150v466q139 -25 202 -59q103 -53 103 -170 q0 -203 -305 -237z" />
<glyph unicode="%" horiz-adv-x="1787" d="M133 1110q0 -152 103 -254q106 -104 256 -104q147 0 251 104q107 107 107 254t-107 254q-104 104 -251 104q-150 0 -256 -104q-102 -102 -103 -254zM186 0h179l1237 1434h-179zM276 1110q0 90 62 152q63 63 154 63q90 0 151 -61q64 -64 64 -154q0 -88 -63.5 -151.5 t-151.5 -63.5q-86 0 -154 63q-61 63 -62 152zM938 322q0 -150 104.5 -254.5t253.5 -104.5q150 0 254.5 104.5t104.5 254.5t-104.5 254t-254.5 104t-254 -104.5t-104 -253.5zM1081 322q0 90 64 153q61 61 151 62q92 0 153.5 -61.5t61.5 -153.5q0 -90 -61 -152 q-63 -63 -154 -64q-88 0 -151.5 63.5t-63.5 152.5z" />
<glyph unicode="&#x26;" horiz-adv-x="1363" d="M133 399q0 -176 127 -307q129 -129 307 -129q213 0 383 141l66 -104h215l-158 244q16 23 28.5 46t22.5 46h-2l86 194l-164 72l-81 -186l-252 385q72 45 117.5 79.5t68.5 57.5q82 88 82 213q0 133 -98 225q-90 92 -230 92q-66 0 -123 -22.5t-104 -69.5q-92 -96 -92 -225 q0 -76 43 -158q6 -12 27.5 -47t62.5 -94q-158 -100 -229 -184q-102 -117 -103 -269zM311 403q0 98 82 179q23 23 65 52.5t103 70.5l291 -449q-123 -115 -285 -115q-109 0 -180 78q-76 76 -76 184zM510 1153q0 57 40 98t99 41t104.5 -42t45.5 -101q0 -80 -80 -129l-105 -68 l-77 119q-27 39 -27 82z" />
<glyph unicode="'" horiz-adv-x="516" d="M133 1505l78 -491q10 -47 47 -47t47 47l78 491h-250z" />
<glyph unicode="(" horiz-adv-x="659" d="M133 627q0 -250 64 -432q33 -90 88 -183.5t135 -191.5h106q-119 209 -168 387q-47 178 -47 420t47 420q23 88 66 184t102 203h-106q-158 -193 -223 -377q-63 -176 -64 -430z" />
<glyph unicode=")" horiz-adv-x="659" d="M133 -180h107q80 98 135 191t88 184q63 182 63 432q0 254 -63 430q-66 184 -223 377h-107q59 -106 102.5 -202.5t65.5 -184.5q47 -178 47 -420q0 -246 -49 -420q-47 -176 -166 -387z" />
<glyph unicode="*" horiz-adv-x="956" d="M133 852l72 -127l203 119v-236h143v236l201 -119l71 127l-200 115l200 116l-71 127l-201 -118v233h-143v-233l-203 118l-72 -127l203 -116z" />
<glyph unicode="+" d="M133 465h287v-287h143v287h287v143h-287v287h-143v-287h-287v-143z" />
<glyph unicode="," horiz-adv-x="516" d="M133 250l78 -490q10 -47 47 -47t47 47l78 490h-250z" />
<glyph unicode="-" d="M133 465h717v143h-717v-143z" />
<glyph unicode="." horiz-adv-x="516" d="M133 125q0 -53 36 -89t89 -36t89 36t36 89t-36 89t-89 36t-89 -36t-36 -89z" />
<glyph unicode="/" horiz-adv-x="894" d="M88 -100l168 -62l553 1516l-170 61z" />
<glyph unicode="0" horiz-adv-x="1394" d="M88 717q0 -293 156 -510q176 -244 452 -244q279 0 455 244q156 221 156 510q0 291 -156 508q-174 244 -455 243q-279 0 -452 -243q-78 -109 -117 -236t-39 -272zM266 717q0 217 105 381q121 193 325 192q203 0 328 -192q102 -160 102 -381t-102 -381q-123 -193 -328 -193 q-207 0 -325 193q-104 162 -105 381z" />
<glyph unicode="1" horiz-adv-x="1394" d="M365 1053l114 -115l266 268v-1206h179v1434h-179z" />
<glyph unicode="2" horiz-adv-x="1394" d="M160 0h1075v178h-844q70 129 301 264q154 92 244 148.5t121 83.5q178 154 178 358q0 205 -172 326q-154 111 -367 110q-211 0 -360 -100q-176 -117 -176 -317h178q0 123 121 188q98 51 229 51q145 0 244 -55q123 -72 123 -203q0 -176 -232 -327q-109 -68 -215 -135.5 t-215 -133.5q-233 -182 -233 -436z" />
<glyph unicode="3" horiz-adv-x="1394" d="M150 221q74 -131 225 -196q135 -61 297 -62q229 0 393 115q180 131 180 352q0 266 -278 377q207 86 207 287q0 193 -164 288q-135 86 -338 86q-164 0 -285 -57q-150 -63 -197 -201l168 -61q49 141 314 141q125 0 209 -37q115 -49 114 -159q0 -94 -118 -154 q-92 -45 -205 -45h-107v-178h107q145 0 260 -70q135 -80 135 -217q0 -143 -131 -223q-106 -63 -264 -64q-279 0 -367 168z" />
<glyph unicode="4" horiz-adv-x="1394" d="M123 287h788v-287h181v287h178v178h-178v969h-154l-815 -969v-178zM313 465l598 702v-702h-598z" />
<glyph unicode="5" horiz-adv-x="1394" d="M139 326q63 -166 215 -265q147 -98 328 -98q229 0 401 156q172 154 172 383t-172 383q-170 154 -401 153q-186 0 -336 -100v315h731v181h-911v-697l170 -65q53 88 146 138t200 50q156 0 272 -100q123 -104 123 -258t-123 -258q-117 -100 -272 -101q-115 0 -219 62 q-100 59 -148 166z" />
<glyph unicode="6" horiz-adv-x="1394" d="M104 717q0 -293 156 -510q176 -244 453 -244q231 0 401 154q176 158 176 389q0 227 -176 387q-166 152 -401 151q-272 0 -420 -206q29 186 129 309q115 143 291 143q188 0 301 -155l139 104q-172 229 -440 229q-279 0 -453 -243q-78 -109 -117 -236t-39 -272zM336 504 q0 158 108 258q111 104 269 104q80 0 148.5 -25.5t127.5 -74.5q121 -108 121 -262q0 -158 -119 -258q-61 -51 -129.5 -77t-148.5 -26q-143 0 -260 109q-117 111 -117 252z" />
<glyph unicode="7" horiz-adv-x="1394" d="M276 1253h760l-733 -1253h213l727 1253v181h-967v-181z" />
<glyph unicode="8" horiz-adv-x="1394" d="M123 430q0 -223 182 -352q162 -115 391 -115t394 115q180 129 180 352q0 266 -279 377q207 84 207 287q0 190 -162 288q-139 86 -340 86t-338 -86q-164 -98 -163 -288q0 -205 208 -287q-281 -111 -280 -377zM303 430q0 137 133 217q115 70 260 70q147 0 260 -70 q136 -80 136 -217q0 -143 -131 -223q-106 -63 -265 -64q-156 0 -262 64q-131 80 -131 223zM375 1094q0 111 112 159q82 37 209 37t211 -37q113 -48 113 -159q0 -96 -119 -154q-92 -45 -205 -45t-202 45q-119 57 -119 154z" />
<glyph unicode="9" horiz-adv-x="1394" d="M104 928q0 -225 175 -387q170 -152 401 -152q274 0 422 207q-31 -186 -129 -309q-119 -143 -293 -144q-184 0 -301 156l-139 -106q174 -229 440 -230q279 0 455 244q155 217 155 510q0 145 -39 272t-116 236q-174 244 -455 243q-231 0 -401 -151q-174 -162 -175 -389z M283 930q0 158 120 258q121 102 277 102q141 0 260 -108q119 -111 119 -252q0 -156 -111 -260q-113 -102 -268 -103q-156 0 -276.5 102.5t-120.5 260.5z" />
<glyph unicode=":" horiz-adv-x="516" d="M133 125q0 -53 36 -89t89 -36t89 36t36 89t-36 89t-89 36t-89 -36t-36 -89zM133 770q0 -53 36 -89t89 -36t89 36t36 89t-36 89t-89 36t-89 -36t-36 -89z" />
<glyph unicode=";" horiz-adv-x="516" d="M133 250l78 -490q10 -47 47 -47t47 47l78 490h-250zM133 770q0 -53 36 -89t89 -36t89 36t36 89t-36 89t-89 36t-89 -36t-36 -89z" />
<glyph unicode="&#x3c;" horiz-adv-x="944" d="M133 465l600 -389l78 119l-526 342l526 344l-78 118l-600 -391v-143z" />
<glyph unicode="=" d="M133 305h717v144h-717v-144zM133 627h717v143h-717v-143z" />
<glyph unicode="&#x3e;" horiz-adv-x="944" d="M133 195l78 -119l600 389v143l-600 391l-78 -118l526 -344z" />
<glyph unicode="?" horiz-adv-x="909" d="M133 1139h178q2 59 43 105t101 46q61 0 102 -46t41 -105q0 -96 -90 -174q-41 -35 -81 -68t-81 -68q-90 -90 -90 -215q0 -8 5 -62t15 -159h107q8 61 11 106.5t7 73.5q18 141 121 215q41 29 84 56.5t86 56.5q86 76 86 238q0 131 -96 231q-90 98 -227 98t-229.5 -98 t-92.5 -231zM205 125q0 -53 35.5 -89t89.5 -36q53 0 89 36t36 89t-36 89t-89 36t-89 -36t-36 -89z" />
<glyph unicode="@" horiz-adv-x="2127" d="M133 537q0 -385 273 -658q274 -274 659 -274q127 0 262 41l-31 118q-111 -33 -231 -32q-334 0 -571 237q-236 236 -236 568q0 334 236 569q238 238 571 237q334 0 569.5 -235.5t235.5 -570.5q0 -154 -80 -273q-92 -139 -236 -139q-63 0 -102 51t-39 117v6t2 16l53 625 h-133l-12 -145q-104 172 -309 172q-180 0 -312 -144q-129 -141 -129 -325q0 -158 103 -277q104 -115 262 -115q207 0 340 173q0 -115 76 -197q74 -82 188 -82q199 0 330 174q125 162 125 363q0 385 -275 659q-272 272 -657 272q-387 0 -659.5 -272t-272.5 -659zM709 512 q0 129 96 225.5t225 96.5q113 0 193 -80q77 -78 77 -191q0 -127 -96 -227q-100 -94 -225 -94q-117 0 -193 80q-78 78 -77 190z" />
<glyph unicode="A" horiz-adv-x="1320" d="M43 0h190l117 322h617l118 -322h193l-522 1434h-191zM416 502l243 669l244 -669h-487z" />
<glyph unicode="B" horiz-adv-x="1339" d="M133 0h645q178 0 312 113q135 114 135 290q0 240 -252 320q217 88 217 307q0 172 -137 293q-133 111 -312 111h-608v-1434zM311 178v449h467q109 0 183 -60q86 -66 86 -164q0 -102 -86 -165q-78 -59 -183 -60h-467zM311 807v446h430q106 0 183 -57q86 -66 86 -166 t-86 -164q-74 -59 -183 -59h-430z" />
<glyph unicode="C" horiz-adv-x="1486" d="M88 717q0 -307 219 -533q223 -221 533 -221q311 0 532 221l-129 123q-168 -164 -403 -164q-236 0 -404 168q-170 168 -170 406t170 405q168 168 404 168q238 0 403 -166l129 125q-219 219 -532 219q-311 0 -533 -221q-219 -223 -219 -530z" />
<glyph unicode="D" horiz-adv-x="1501" d="M133 0h537q297 0 506 209q210 211 210 508q0 295 -210 506q-209 211 -506 211h-537v-1434zM311 178v1075h359q223 0 380.5 -157.5t157.5 -378.5q0 -219 -157 -381q-162 -158 -381 -158h-359z" />
<glyph unicode="E" horiz-adv-x="1267" d="M133 0h1004v178h-826v449h645v180h-645v446h826v181h-1004v-1434z" />
<glyph unicode="F" horiz-adv-x="1206" d="M133 0h178v627h645v180h-645v446h826v181h-1004v-1434z" />
<glyph unicode="G" horiz-adv-x="1583" d="M88 717q0 -307 219 -533q223 -221 533 -221q193 0 358.5 90t269.5 250v504h-628v-180h450v-267q-172 -217 -450 -217q-236 0 -404 168q-170 168 -170 406t170 405q168 168 404 168q135 0 257 -60.5t201 -168.5l148 102q-106 145 -266 225t-340 80q-311 0 -533 -221 q-219 -223 -219 -530z" />
<glyph unicode="H" horiz-adv-x="1411" d="M133 0h178v627h789v-627h180v1434h-180v-627h-789v627h-178v-1434z" />
<glyph unicode="I" horiz-adv-x="444" d="M133 0h178v1434h-178v-1434z" />
<glyph unicode="J" horiz-adv-x="1085" d="M70 203q66 -111 177 -175.5t240 -64.5q199 0 340 143q144 142 144 343v985h-543v-181h365v-804q0 -125 -90.5 -215.5t-215.5 -90.5q-168 0 -258 144z" />
<glyph unicode="K" horiz-adv-x="1259" d="M133 0h178v537l203 202l481 -739h213l-565 868l565 566h-254l-643 -643v643h-178v-1434z" />
<glyph unicode="L" horiz-adv-x="1026" d="M133 0h823v178h-645v1256h-178v-1434z" />
<glyph unicode="M" horiz-adv-x="1691" d="M133 0h178v1208l441 -1208h190l438 1202v-1202h179v1434h-287l-426 -1172l-426 1172h-287v-1434z" />
<glyph unicode="N" horiz-adv-x="1411" d="M133 0h178v1110l789 -1110h180v1434h-180v-1112l-789 1112h-178v-1434z" />
<glyph unicode="O" horiz-adv-x="1681" d="M88 717q0 -309 219 -533q221 -221 533 -221q311 0 532 221.5t221 532.5t-221 532q-219 219 -532 219t-533 -219q-219 -223 -219 -532zM266 717q0 238 170 405q168 168 404 168q238 0 405.5 -167.5t167.5 -405.5t-168 -406t-405 -168q-236 0 -404 168q-170 168 -170 406z " />
<glyph unicode="P" horiz-adv-x="1259" d="M133 0h178v627h430q176 0 312 112q137 117 137 291q0 172 -137 293q-133 111 -312 111h-608v-1434zM311 807v446h430q106 0 183 -57q86 -66 86 -166t-86 -164q-74 -59 -183 -59h-430z" />
<glyph unicode="Q" horiz-adv-x="1681" d="M88 717q0 -289 191 -500q193 -215 473 -248v-327h178v327q281 33 473 248q190 215 190 500q0 311 -221 532q-219 219 -532 219t-533 -219q-219 -223 -219 -532zM266 717q0 238 170 405q168 168 404 168q238 0 405.5 -167.5t167.5 -405.5q0 -215 -137 -373 q-135 -160 -346 -194v208h-178v-208q-213 35 -346 194q-139 162 -140 373z" />
<glyph unicode="R" horiz-adv-x="1331" d="M133 0h178v627h215q186 0 269 -125l325 -502h213l-325 502q-90 137 -142 141q143 37 232 141q92 104 92 246q0 172 -137 293q-133 111 -312 111h-608v-1434zM311 807v446h430q106 0 183 -57q86 -66 86 -166t-86 -164q-74 -59 -183 -59h-430z" />
<glyph unicode="S" horiz-adv-x="1376" d="M115 387q0 -203 192 -321q168 -102 381 -103q213 0 379 100q195 123 195 324q0 254 -242 346l-449 92q-241 57 -241 225q0 122 125 189q51 25 108.5 38t124.5 13q131 0 234 -53q125 -63 125 -186h178q0 195 -176 313q-158 104 -361 104q-205 0 -360 -104 q-178 -121 -178 -313q0 -262 243 -355q111 -23 223.5 -45t223.5 -45q241 -55 241 -218q0 -132 -139 -195q-104 -49 -254 -50q-147 0 -254 50q-141 63 -141 194h-178z" />
<glyph unicode="T" horiz-adv-x="1232" d="M61 1253h465v-1253h181v1253h464v181h-1110v-181z" />
<glyph unicode="U" horiz-adv-x="1376" d="M115 537q0 -236 168 -404q170 -170 405 -170q236 0 406 170q168 168 168 404v897h-181v-897q0 -160 -114 -279q-115 -115 -279 -115q-166 0 -280 115q-115 119 -115 279v897h-178v-897z" />
<glyph unicode="V" horiz-adv-x="1320" d="M43 1434l522 -1434h191l522 1434h-193l-426 -1172l-426 1172h-190z" />
<glyph unicode="W" horiz-adv-x="1916" d="M43 1434l410 -1434h186l319 1110l318 -1110h186l412 1434h-186l-320 -1110l-315 1110h-187l-319 -1110l-318 1110h-186z" />
<glyph unicode="X" horiz-adv-x="1337" d="M51 0h223l394 559l395 -559h221l-504 717l504 717h-221l-395 -560l-394 560h-223l506 -717z" />
<glyph unicode="Y" horiz-adv-x="1318" d="M43 1434l526 -748v-686h181v686l526 748h-223l-394 -560l-395 560h-221z" />
<glyph unicode="Z" horiz-adv-x="1376" d="M115 0h1147v178h-904l904 1075v181h-1147v-181h903l-903 -1075v-178z" />
<glyph unicode="[" horiz-adv-x="694" d="M133 -180h430v180h-252v1253h252v181h-430v-1614z" />
<glyph unicode="\" horiz-adv-x="894" d="M88 1354l551 -1516l170 62l-553 1515z" />
<glyph unicode="]" horiz-adv-x="694" d="M133 0v-180h430v1614h-430v-181h250v-1253h-250z" />
<glyph unicode="^" horiz-adv-x="993" d="M133 672l131 -60l232 523l233 -523l131 60l-293 653h-143z" />
<glyph unicode="_" horiz-adv-x="892" d="M0 0h893v143h-893v-143z" />
<glyph unicode="`" horiz-adv-x="550" d="M133 1434l178 -215h109l-109 215h-178z" />
<glyph unicode="a" horiz-adv-x="1187" d="M39 0h170l106 291h555l107 -291h174l-471 1290h-172zM375 451l219 604l219 -604h-438z" />
<glyph unicode="b" horiz-adv-x="1206" d="M121 0h579q156 0 281 102q123 100 123 260q0 217 -227 289q194 80 194 273q0 160 -125 266q-123 100 -278 100h-547v-1290zM281 162v403h419q92 0 164 -55q78 -56 78 -148t-78 -147q-68 -53 -164 -53h-419zM281 725v403h387q92 0 163 -53q78 -55 78 -149q0 -90 -78 -146 q-72 -55 -163 -55h-387z" />
<glyph unicode="c" horiz-adv-x="1339" d="M78 645q0 -279 201 -479q199 -199 477 -199q280 0 479 199l-115 113q-150 -150 -364 -150q-213 0 -363 152q-153 149 -153 361q0 216 153 368q151 151 360 151h3q211 0 364 -149l115 112q-199 199 -479 199q-281 0 -477 -201q-201 -197 -201 -477z" />
<glyph unicode="d" horiz-adv-x="1351" d="M121 0h483q264 0 453 188q192 193 192 457q0 266 -192 455q-188 190 -453 190h-483v-1290zM281 162v966h323q199 0 340 -141q143 -143 143 -342t-143 -342q-139 -141 -340 -141h-323z" />
<glyph unicode="e" horiz-adv-x="1140" d="M121 0h903v162h-743v403h581v160h-581v403h743v162h-903v-1290z" />
<glyph unicode="f" horiz-adv-x="1085" d="M121 0h160v565h581v160h-581v403h743v162h-903v-1290z" />
<glyph unicode="g" horiz-adv-x="1425" d="M78 645q0 -279 201 -479q199 -199 477 -199q172 0 322.5 82t244.5 223v453h-567v-160h405v-241q-156 -195 -405 -195q-213 0 -363 152q-153 149 -153 361q0 216 153 368q151 151 360 151h3q123 0 231.5 -54t179.5 -153l133 93q-96 131 -239 203.5t-305 72.5 q-281 0 -477 -201q-201 -197 -201 -477z" />
<glyph unicode="h" horiz-adv-x="1269" d="M121 0h160v565h710v-565h162v1290h-162v-565h-710v565h-160v-1290z" />
<glyph unicode="i" horiz-adv-x="399" d="M121 0h160v1290h-160v-1290z" />
<glyph unicode="j" horiz-adv-x="976" d="M63 182q57 -98 158 -156.5t217 -58.5q180 0 307 127q129 133 129 309v887h-489v-162h328v-725q0 -109 -80 -194q-80 -80 -195 -80q-152 0 -231 129z" />
<glyph unicode="k" horiz-adv-x="1134" d="M121 0h160v483l182 183l432 -666h192l-507 780l507 510h-227l-579 -579v579h-160v-1290z" />
<glyph unicode="l" horiz-adv-x="923" d="M121 0h741v162h-581v1128h-160v-1290z" />
<glyph unicode="m" horiz-adv-x="1523" d="M121 0h160v1087l395 -1087h172l393 1081v-1081h162v1290h-258l-383 -1054l-383 1054h-258v-1290z" />
<glyph unicode="n" horiz-adv-x="1269" d="M121 0h160v999l710 -999h162v1290h-162v-999l-710 999h-160v-1290z" />
<glyph unicode="o" horiz-adv-x="1511" d="M78 645q0 -283 201 -479q199 -199 477 -199q281 0 479 199q199 196 199 479q0 281 -199 479.5t-479 198.5q-279 0 -477 -199q-201 -201 -201 -479zM393 1010q151 151 360 151h3q213 0 364 -151q152 -150 152 -365t-152 -364q-150 -152 -364 -152q-213 0 -363 152 q-153 149 -153 361q0 216 153 368z" />
<glyph unicode="p" horiz-adv-x="1134" d="M121 0h160v565h387q160 0 280 101q123 104 123 260q0 158 -125 264q-123 100 -278 100h-547v-1290zM281 725v403h387q92 0 163 -53q78 -55 78 -149q0 -90 -78 -146q-72 -55 -163 -55h-387z" />
<glyph unicode="q" horiz-adv-x="1511" d="M78 645q0 -258 172 -450q174 -195 426 -222v-297h162v297q129 14 234.5 69.5t191.5 152.5q170 190 170 450q0 281 -199 479.5t-479 198.5q-279 0 -477 -199q-201 -201 -201 -479zM240 645q0 213 153 365q151 151 360 151h3q213 0 364 -151q152 -150 152 -365 q0 -188 -123 -336q-125 -145 -311 -174v187h-162v-187q-186 27 -311 174q-125 145 -125 336z" />
<glyph unicode="r" horiz-adv-x="1198" d="M121 0h160v565h194q166 0 240 -114l293 -451h192l-293 451q-84 127 -127 129q129 35 209 127q82 94 82 219q0 158 -125 264q-123 100 -278 100h-547v-1290zM281 725v403h387q92 0 163 -53q78 -55 78 -149q0 -90 -78 -146q-72 -55 -163 -55h-387z" />
<glyph unicode="s" horiz-adv-x="1239" d="M104 348q0 -182 175 -289q147 -92 342 -92q190 0 340 90q176 111 176 291q0 227 -219 311q-102 20 -202 42t-202 42q-217 51 -217 201q0 109 113 170q90 47 211 47q117 0 208 -49q113 -57 113 -168h162q0 176 -162 283q-139 96 -321 96t-326 -96q-160 -109 -160 -283 q0 -236 217 -317q102 -20 202.5 -41t201.5 -41q219 -49 219 -197q0 -117 -127 -176q-96 -43 -227 -43q-135 0 -230 43q-127 59 -127 176h-160z" />
<glyph unicode="t" horiz-adv-x="1110" d="M55 1128h420v-1128h162v1128h418v162h-1000v-162z" />
<glyph unicode="u" horiz-adv-x="1239" d="M104 483q0 -215 150 -362q154 -154 367 -154q209 0 362 154q154 149 154 362v807h-162v-807q0 -147 -107 -250q-104 -104 -247 -104q-150 0 -254 104q-102 100 -103 250v807h-160v-807z" />
<glyph unicode="v" horiz-adv-x="1187" d="M39 1290l469 -1290h172l471 1290h-174l-383 -1054l-385 1054h-170z" />
<glyph unicode="w" horiz-adv-x="1726" d="M39 1290l369 -1290h167l287 997l287 -997h166l371 1290h-166l-287 -997l-287 997h-166l-288 -997l-285 997h-168z" />
<glyph unicode="x" horiz-adv-x="1202" d="M47 0h201l354 504l354 -504h199l-455 645l455 645h-199l-354 -504l-354 504h-201l455 -645z" />
<glyph unicode="y" horiz-adv-x="1185" d="M39 1290l473 -672v-618h162v618l475 672h-201l-354 -504l-356 504h-199z" />
<glyph unicode="z" horiz-adv-x="1239" d="M104 0h1033v162h-815l815 966v162h-1033v-162h811l-811 -966v-162z" />
<glyph unicode="{" horiz-adv-x="821" d="M133 537h53q53 0 89 -29t36 -78v-305q0 -113 88 -207q88 -98 199 -98h90v180h-72q-25 0 -47 11.5t-39.5 28.5t-27.5 39.5t-10 45.5v287q0 68 -48 139q-51 76 -116 76q66 0 116 78q47 72 48 137v286q0 47 38.5 86t85.5 39h72v181h-90q-109 0 -199 -97q-88 -96 -88 -209 v-305q0 -49 -35.5 -77.5t-89.5 -28.5h-53v-180z" />
<glyph unicode="|" horiz-adv-x="444" d="M133 -180h178v1614h-178v-1614z" />
<glyph unicode="}" horiz-adv-x="821" d="M133 0v-180h88q109 0 199 98q88 94 88 207v305q0 49 37 78t90 29h53v180h-53q-53 0 -90 28.5t-37 77.5v305q0 113 -88 209q-90 96 -199 97h-88v-181h72q23 0 45 -10t39.5 -27.5t29 -40t11.5 -47.5v-286q0 -66 47 -137q47 -78 117 -78q-68 0 -117 -76q-47 -72 -47 -139 v-287q0 -47 -39 -86t-86 -39h-72z" />
<glyph unicode="~" horiz-adv-x="989" d="M133 487l131 -53q31 76 82 76q53 0 162 -43q104 -43 160 -43q127 0 188 158l-133 55q-27 -78 -80 -78q-57 0 -161.5 43t-159.5 43q-127 0 -189 -158z" />
<glyph unicode="&#xa1;" horiz-adv-x="516" d="M133 1128q0 -53 36 -88.5t89 -35.5t89 35.5t36 88.5t-36 89t-89 36t-89 -35.5t-36 -89.5zM168 -180h180l-37 1040h-106z" />
<glyph unicode="&#xa2;" horiz-adv-x="1294" d="M133 537q0 -215 137 -373q143 -162 346 -193v-186h179v186q223 33 366 219l-151 97q-84 -102 -215 -133v768q131 -31 215 -134l149 99q-139 182 -364 217v186h-179v-186q-207 -35 -346 -195q-137 -156 -137 -372zM311 537q0 137 86 245.5t219 139.5v-768 q-133 31 -219 139q-86 106 -86 244z" />
<glyph unicode="&#xa3;" horiz-adv-x="1300" d="M88 627h178v-627h897v178h-717v449h359v180h-359v178q0 125 91 215q86 90 215 90q164 0 258 -143l157 84q-66 111 -176 174t-239 63q-201 0 -344 -143q-141 -141 -142 -340v-178h-178v-180z" />
<glyph unicode="&#xa4;" horiz-adv-x="1632" d="M133 483h207q76 -229 272 -377q203 -143 443 -143q203 0 381 105v219q-168 -143 -381 -144q-170 0 -312 93q-141 94 -211 247h662l51 144h-756q-8 41 -8 90t8 90h822l53 143h-832q72 154 211 246q139 94 312 94q213 0 381 -143l63 178q-195 143 -444 143 q-244 0 -443 -143q-195 -143 -272 -375h-154l-53 -143h174q-2 -23 -3 -45.5t-1 -44.5q0 -23 1 -45.5t3 -44.5h-121z" />
<glyph unicode="&#xa5;" horiz-adv-x="1497" d="M133 1434l467 -664h-389v-143h448v-178h-448v-144h448v-305h179v305h448v144h-448v178h448v143h-389l469 664h-223l-393 -560l-396 560h-221z" />
<glyph unicode="&#xa6;" horiz-adv-x="444" d="M133 -180h178v700h-178v-700zM133 735h178v699h-178v-699z" />
<glyph unicode="&#xa7;" horiz-adv-x="1161" d="M133 170q0 -160 150 -252q129 -80 297 -80q170 0 299 80q149 92 149 252q0 172 -135 250q135 82 135 233q0 199 -180 271q-10 4 -94 21.5t-244 49.5q-180 35 -180 144q0 80 90 121q68 31 160 30q94 0 161 -30q94 -41 90 -121h179q0 156 -144 247q-121 82 -286 82 q-162 0 -287 -82q-143 -94 -143 -247q0 -176 133 -250q-133 -84 -133 -236q0 -199 182 -272q12 -4 95 -21.5t241 -48.5q182 -35 182 -141q0 -152 -270 -152q-104 0 -172 27q-98 41 -97 125h-178zM330 653q0 84 86 125q68 31 159 31q92 0 170 -31q105 -47 105 -125 q0 -80 -90 -121q-72 -31 -162 -30q-94 0 -168 33q-100 41 -100 118z" />
<glyph unicode="&#xa8;" horiz-adv-x="802" d="M133 1343q0 -37 25.5 -63.5t62.5 -26.5q39 0 64.5 26.5t25.5 63.5q0 39 -25.5 65t-64.5 26q-37 0 -62.5 -26t-25.5 -65zM492 1343q0 -37 25.5 -63.5t62.5 -26.5q39 0 64.5 26.5t25.5 63.5q0 39 -26 65t-64 26q-37 0 -62.5 -26t-25.5 -65z" />
<glyph unicode="&#xa9;" horiz-adv-x="1394" d="M133 565q0 -231 164 -401q168 -164 399 -164t400 164q166 168 166 401q0 231 -166 397t-400 166q-233 0 -399 -165q-164 -168 -164 -398zM231 565q0 188 136 328q141 137 329 137q190 0 328 -137q139 -140 139 -328q0 -195 -139 -329q-135 -137 -328 -138 q-193 0 -329 138q-135 135 -136 329zM338 565q0 -158 111 -268q109 -109 266 -109t266 111l-63 61q-82 -82 -203 -81q-119 0 -203 83.5t-84 202.5q0 117 84 201q82 86 203 86q119 0 203 -84l63 63q-106 109 -266 109q-156 0 -266.5 -110.5t-110.5 -264.5z" />
<glyph unicode="&#xaa;" horiz-adv-x="1124" d="M133 1030q0 -176 115 -299q113 -131 289 -131q201 0 321 172v-145h135v807h-135v-146q-121 172 -321 172q-176 0 -289 -129q-115 -123 -115 -301zM266 1030q0 123 86 209q88 86 211 86q121 0 207 -86q88 -86 88 -209q0 -121 -88 -209q-86 -86 -207 -86q-123 0 -211 86 q-86 88 -86 209z" />
<glyph unicode="&#xab;" horiz-adv-x="1464" d="M133 354l529 -354l77 121l-454 305l454 307l-77 119l-529 -354v-144zM723 354l530 -354l78 121l-454 305l454 307l-78 119l-530 -354v-144z" />
<glyph unicode="&#xac;" d="M133 465h574v-178h143v321h-717v-143z" />
<glyph unicode="&#xad;" d="M133 465h717v143h-717v-143z" />
<glyph unicode="&#xae;" horiz-adv-x="1394" d="M133 565q0 -231 164 -401q168 -164 399 -164t400 164q166 168 166 401q0 231 -166 397t-400 166q-233 0 -399 -165q-164 -168 -164 -398zM231 565q0 188 136 328q141 137 329 137q190 0 328 -137q139 -140 139 -328q0 -199 -145 -338l-150 230q-39 61 -69 71 q72 16 117 69.5t45 125.5q0 84 -68 143q-70 57 -156 58h-305v-717h90v313h107q94 0 135 -63l162 -250h69q-131 -109 -299 -109q-193 0 -329 138q-135 135 -136 329zM522 608v226h215q53 0 93 -31t40 -80q0 -51 -39.5 -83t-93.5 -32h-215z" />
<glyph unicode="&#xaf;" horiz-adv-x="802" d="M133 1290h537v144h-537v-144z" />
<glyph unicode="&#xb0;" horiz-adv-x="659" d="M133 1237q0 -84 57.5 -141.5t139.5 -57.5t139 57.5t57 141.5q0 82 -57 139.5t-139 57.5t-139.5 -57.5t-57.5 -139.5zM205 1237q0 53 35.5 89t89.5 36q53 0 89 -36t36 -89t-36 -90t-89 -37t-89 37t-36 90z" />
<glyph unicode="&#xb1;" d="M133 0h717v143h-717v-143zM133 645h287v-287h143v287h287v143h-287v287h-143v-287h-287v-143z" />
<glyph unicode="&#xb2;" horiz-adv-x="802" d="M133 717h537v90h-422q33 61 149 131q78 43 123 72.5t60 42.5q90 78 90 180q0 98 -86 164q-78 55 -183 55q-109 0 -180 -51q-88 -57 -88 -160h88q0 61 60 96q45 25 114 25q74 0 123 -29q61 -35 62 -100q0 -86 -115 -164l-215 -133q-117 -92 -117 -219z" />
<glyph unicode="&#xb3;" horiz-adv-x="813" d="M133 827q70 -129 260 -129q115 0 197 58q90 63 90 176q0 131 -139 188q104 43 104 144q0 94 -82 145q-68 43 -170 43q-197 0 -241 -129l84 -31q25 70 157 70q162 0 162 -98q0 -49 -59 -78q-43 -20 -103 -21h-53v-90h53q76 0 129 -35q70 -41 70 -108q0 -74 -66 -111 q-51 -33 -133 -33q-137 0 -184 84z" />
<glyph unicode="&#xb4;" horiz-adv-x="550" d="M133 1219h107l180 215h-180z" />
<glyph unicode="&#xb5;" horiz-adv-x="1196" d="M133 -358h178v479q102 -158 287 -158q188 0 287 158v-121h180v1075h-180v-645q0 -119 -84 -203t-203 -84t-203 84t-84 203v645h-178v-1433z" />
<glyph unicode="&#xb6;" horiz-adv-x="1501" d="M133 1030q0 -176 137 -293q135 -111 310 -110v-985h180v1611h215v-1611h178v1611h215v181h-788q-178 0 -310 -111q-137 -119 -137 -293z" />
<glyph unicode="&#xb7;" horiz-adv-x="516" d="M133 537q0 -53 36 -89t89 -36t89 36t36 89t-36 90t-89 37t-89 -37t-36 -90z" />
<glyph unicode="&#xb8;" horiz-adv-x="550" d="M133 -358h143q59 0 101.5 42t42.5 101q0 49 -33 89t-82 50l25 111h-72l-37 -160h55q35 0 62 -26.5t27 -63.5t-27 -63.5t-62 -26.5h-126z" />
<glyph unicode="&#xb9;" horiz-adv-x="544" d="M133 1243l57 -57l132 135v-604h90v717h-90z" />
<glyph unicode="&#xba;" horiz-adv-x="1124" d="M133 1030q0 -180 125 -305t305 -125q176 0 303 125q127 127 127 305q0 176 -127 303q-131 127 -303 127q-178 0 -305 -127q-125 -125 -125 -303zM266 1030q0 123 86 209q88 86 211 86q121 0 207 -86q88 -86 88 -209q0 -121 -88 -209q-86 -86 -207 -86q-123 0 -211 86 q-86 88 -86 209z" />
<glyph unicode="&#xbb;" horiz-adv-x="1464" d="M133 121l78 -121l528 354v144l-528 354l-78 -119l455 -307zM723 121l80 -121l528 354v144l-528 354l-80 -119l457 -307z" />
<glyph unicode="&#xbc;" d="M133 680h717v72h-717v-72zM264 115h314v-115h71v115h72v71h-72v387h-61l-324 -387v-71zM338 186l240 281v-281h-240zM379 1282l47 -45l106 104v-481h72v574h-72z" />
<glyph unicode="&#xbd;" d="M133 680h717v72h-717v-72zM279 0h428v72h-338q31 53 120 106q119 68 146 90q72 61 72 144q0 78 -70 131q-59 45 -143 45q-82 0 -146 -41q-70 -45 -69 -127h71q0 53 47 74q39 23 92 22q55 0 97 -22q49 -29 49 -82q0 -70 -94 -131q-43 -27 -86 -53.5t-84 -53.5 q-92 -72 -92 -174zM379 1282l47 -45l106 104v-481h72v574h-72z" />
<glyph unicode="&#xbe;" d="M133 680h717v72h-717v-72zM264 115h314v-115h71v115h72v71h-72v387h-61l-324 -387v-71zM272 950q55 -104 209 -104q90 0 156 47q74 49 74 139q0 106 -113 150q84 37 84 114q0 78 -64 117q-55 35 -137 35q-156 0 -192 -105l67 -24q18 57 125 57q129 0 129 -80 q0 -37 -45 -59q-41 -18 -84 -18h-43v-72h43q61 0 105 -29q53 -33 53 -86q0 -59 -51 -90q-43 -25 -107 -24q-113 0 -145 67zM338 186l240 281v-281h-240z" />
<glyph unicode="&#xbf;" horiz-adv-x="909" d="M133 117q0 -135 92 -234q94 -98 230 -98q135 0 227 98q96 101 96 234h-180q-2 -61 -43 -107.5t-100 -46.5t-101.5 46t-42.5 108q0 94 90 174q41 35 82 66.5t82 66.5q88 92 88 215q0 14 -18 221h-109q-6 -59 -10 -104t-8 -76q-18 -139 -119 -215q-41 -29 -84 -56.5 t-86 -56.5q-86 -78 -86 -235zM455 1128q0 -53 35.5 -88.5t89.5 -35.5q53 0 90 35.5t37 88.5t-37 89t-90 36t-89 -35.5t-36 -89.5z" />
<glyph unicode="&#xc0;" horiz-adv-x="1320" d="M43 0h190l117 322h617l118 -322h193l-522 1434h-191zM416 502l243 669l244 -669h-487zM426 1792l180 -215h107l-107 215h-180z" />
<glyph unicode="&#xc1;" horiz-adv-x="1320" d="M43 0h190l117 322h617l118 -322h193l-522 1434h-191zM416 502l243 669l244 -669h-487zM606 1577h107l180 215h-180z" />
<glyph unicode="&#xc2;" horiz-adv-x="1320" d="M43 0h190l117 322h617l118 -322h193l-522 1434h-191zM416 502l243 669l244 -669h-487zM444 1577h107l108 129l107 -129h108l-143 215h-143z" />
<glyph unicode="&#xc3;" horiz-adv-x="1320" d="M43 0h190l117 322h617l118 -322h193l-522 1434h-191zM389 1640l100 -55q25 86 62 86q43 0 119 -47q82 -47 123 -47q94 0 139 158l-98 53q-25 -86 -62 -86q-43 0 -121 47q-78 49 -121 49q-94 0 -141 -158zM416 502l243 669l244 -669h-487z" />
<glyph unicode="&#xc4;" horiz-adv-x="1320" d="M43 0h190l117 322h617l118 -322h193l-522 1434h-191zM393 1667q0 -39 25.5 -64.5t62.5 -25.5q39 0 64.5 25.5t25.5 64.5q0 37 -25.5 62.5t-64.5 25.5q-37 0 -62.5 -25.5t-25.5 -62.5zM416 502l243 669l244 -669h-487zM752 1667q0 -39 25.5 -64.5t62.5 -25.5 q39 0 64.5 25.5t25.5 64.5q0 37 -25.5 62.5t-64.5 25.5q-37 0 -62.5 -25.5t-25.5 -62.5z" />
<glyph unicode="&#xc5;" horiz-adv-x="1320" d="M43 0h190l117 322h617l118 -322h193l-508 1397q86 57 86 162q0 82 -59 139q-55 57 -138 57q-82 0 -139 -57.5t-57 -138.5q0 -106 88 -164zM416 502l243 669l244 -669h-487zM535 1559q0 53 35.5 88.5t88.5 35.5t89 -35.5t36 -88.5t-35.5 -89t-89.5 -36q-53 0 -88.5 35.5 t-35.5 89.5z" />
<glyph unicode="&#xc6;" horiz-adv-x="2041" d="M43 0h190l117 322h617l118 -322h826v178h-645v449h465v180h-465v446h645v181h-826v-908l-329 908h-191zM416 502l243 669l244 -669h-487z" />
<glyph unicode="&#xc7;" horiz-adv-x="1486" d="M88 717q0 -291 193 -504q195 -215 481 -246l-29 -129h53q37 0 64 -26.5t27 -63.5q0 -35 -27 -61.5t-64 -26.5h-124l-19 -55h143q59 0 101.5 42t42.5 101q0 51 -33 91t-82 50l16 74q322 0 541 221l-129 123q-168 -164 -403 -164q-236 0 -404 168q-170 168 -170 406 t170 405q168 168 404 168q238 0 403 -166l129 125q-219 219 -532 219q-311 0 -533 -221q-219 -223 -219 -530z" />
<glyph unicode="&#xc8;" horiz-adv-x="1267" d="M133 0h1004v178h-826v449h645v180h-645v446h826v181h-1004v-1434zM401 1792l179 -215h108l-108 215h-179z" />
<glyph unicode="&#xc9;" horiz-adv-x="1267" d="M133 0h1004v178h-826v449h645v180h-645v446h826v181h-1004v-1434zM580 1577h108l178 215h-178z" />
<glyph unicode="&#xca;" horiz-adv-x="1267" d="M133 0h1004v178h-826v449h645v180h-645v446h826v181h-1004v-1434zM420 1577h106l109 129l106 -129h109l-143 215h-144z" />
<glyph unicode="&#xcb;" horiz-adv-x="1267" d="M133 0h1004v178h-826v449h645v180h-645v446h826v181h-1004v-1434zM365 1667q0 -39 26.5 -64.5t63.5 -25.5q39 0 64.5 25.5t25.5 64.5q0 37 -25.5 62.5t-64.5 25.5q-37 0 -63.5 -25.5t-26.5 -62.5zM723 1667q0 -39 26.5 -64.5t63.5 -25.5q39 0 64.5 25.5t25.5 64.5 q0 37 -25.5 62.5t-64.5 25.5q-37 0 -63.5 -25.5t-26.5 -62.5z" />
<glyph unicode="&#xcc;" horiz-adv-x="444" d="M-10 1792l178 -215h108l-108 215h-178zM133 0h178v1434h-178v-1434z" />
<glyph unicode="&#xcd;" horiz-adv-x="444" d="M133 0h178v1434h-178v-1434zM168 1577h108l179 215h-179z" />
<glyph unicode="&#xce;" horiz-adv-x="444" d="M6 1577h109l106 129l109 -129h106l-143 215h-143zM133 0h178v1434h-178v-1434z" />
<glyph unicode="&#xcf;" horiz-adv-x="444" d="M-47 1667q0 -39 25.5 -64.5t64.5 -25.5q37 0 63.5 25.5t26.5 64.5q0 37 -26.5 62.5t-63.5 25.5q-39 0 -64.5 -25.5t-25.5 -62.5zM133 0h178v1434h-178v-1434zM311 1667q0 -39 25.5 -64.5t64.5 -25.5q37 0 64 25.5t27 64.5q0 37 -27 62.5t-64 25.5q-39 0 -64.5 -25.5 t-25.5 -62.5z" />
<glyph unicode="&#xd0;" horiz-adv-x="1636" d="M88 664h178v-664h539q293 0 506 209q211 211 211 508q0 295 -211 506t-506 211h-539v-627h-178v-143zM446 178v486h359v143h-359v446h359q223 0 379 -157q157 -156 157 -379t-157.5 -381t-378.5 -158h-359z" />
<glyph unicode="&#xd1;" horiz-adv-x="1411" d="M133 0h178v1110l789 -1110h180v1434h-180v-1112l-789 1112h-178v-1434zM436 1640l101 -55q20 86 59 86q43 0 121 -47t121 -47q96 0 141 158l-98 53q-25 -86 -62 -86q-41 0 -123 47q-74 49 -118 49q-98 0 -142 -158z" />
<glyph unicode="&#xd2;" horiz-adv-x="1681" d="M88 717q0 -309 219 -533q221 -221 533 -221q311 0 532 221.5t221 532.5t-221 532q-219 219 -532 219t-533 -219q-219 -223 -219 -532zM266 717q0 238 170 405q168 168 404 168q238 0 405.5 -167.5t167.5 -405.5t-168 -406t-405 -168q-236 0 -404 168q-170 168 -170 406z M608 1792l178 -215h109l-109 215h-178z" />
<glyph unicode="&#xd3;" horiz-adv-x="1681" d="M88 717q0 -309 219 -533q221 -221 533 -221q311 0 532 221.5t221 532.5t-221 532q-219 219 -532 219t-533 -219q-219 -223 -219 -532zM266 717q0 238 170 405q168 168 404 168q238 0 405.5 -167.5t167.5 -405.5t-168 -406t-405 -168q-236 0 -404 168q-170 168 -170 406z M786 1577h109l178 215h-178z" />
<glyph unicode="&#xd4;" horiz-adv-x="1681" d="M88 717q0 -309 219 -533q221 -221 533 -221q311 0 532 221.5t221 532.5t-221 532q-219 219 -532 219t-533 -219q-219 -223 -219 -532zM266 717q0 238 170 405q168 168 404 168q238 0 405.5 -167.5t167.5 -405.5t-168 -406t-405 -168q-236 0 -404 168q-170 168 -170 406z M625 1577h108l107 129l108 -129h107l-144 215h-143z" />
<glyph unicode="&#xd5;" horiz-adv-x="1681" d="M88 717q0 -309 219 -533q221 -221 533 -221q311 0 532 221.5t221 532.5t-221 532q-219 219 -532 219t-533 -219q-219 -223 -219 -532zM266 717q0 238 170 405q168 168 404 168q238 0 405.5 -167.5t167.5 -405.5t-168 -406t-405 -168q-236 0 -404 168q-170 168 -170 406z M569 1640l101 -55q25 86 61 86q43 0 121 -47t121 -47q94 0 139 158l-98 53q-25 -86 -62 -86q-43 0 -121 47q-78 49 -120 49q-94 0 -142 -158z" />
<glyph unicode="&#xd6;" horiz-adv-x="1681" d="M88 717q0 -309 219 -533q221 -221 533 -221q311 0 532 221.5t221 532.5t-221 532q-219 219 -532 219t-533 -219q-219 -223 -219 -532zM266 717q0 238 170 405q168 168 404 168q238 0 405.5 -167.5t167.5 -405.5t-168 -406t-405 -168q-236 0 -404 168q-170 168 -170 406z M571 1667q0 -39 26 -64.5t65 -25.5q37 0 63.5 25.5t26.5 64.5q0 37 -27 62.5t-63 25.5q-39 0 -65 -25.5t-26 -62.5zM930 1667q0 -39 25.5 -64.5t64.5 -25.5q37 0 63.5 25.5t26.5 64.5q0 37 -26.5 62.5t-63.5 25.5q-39 0 -64.5 -25.5t-25.5 -62.5z" />
<glyph unicode="&#xd7;" horiz-adv-x="974" d="M133 285l103 -103l251 254l252 -254l103 103l-252 252l252 254l-103 102l-252 -254l-251 254l-103 -102l252 -254z" />
<glyph unicode="&#xd8;" horiz-adv-x="1681" d="M43 53l53 -53l211 188q221 -225 533 -225q311 0 532 221.5t221 532.5q0 268 -168 473l213 190l-55 54l-209 -189q-223 223 -534 223q-313 0 -533 -219q-219 -223 -219 -532q0 -268 168 -473zM266 717q0 238 170 405q168 168 404 168q237 0 401 -164l-852 -761 q-123 154 -123 352zM438 307l854 762q121 -155 121 -352q0 -238 -168 -406t-405 -168q-236 0 -402 164z" />
<glyph unicode="&#xd9;" horiz-adv-x="1376" d="M115 537q0 -236 168 -404q170 -170 405 -170q236 0 406 170q168 168 168 404v897h-181v-897q0 -160 -114 -279q-115 -115 -279 -115q-166 0 -280 115q-115 119 -115 279v897h-178v-897zM455 1792l180 -215h106l-106 215h-180z" />
<glyph unicode="&#xda;" horiz-adv-x="1376" d="M115 537q0 -236 168 -404q170 -170 405 -170q236 0 406 170q168 168 168 404v897h-181v-897q0 -160 -114 -279q-115 -115 -279 -115q-166 0 -280 115q-115 119 -115 279v897h-178v-897zM635 1577h106l181 215h-181z" />
<glyph unicode="&#xdb;" horiz-adv-x="1376" d="M115 537q0 -236 168 -404q170 -170 405 -170q236 0 406 170q168 168 168 404v897h-181v-897q0 -160 -114 -279q-115 -115 -279 -115q-166 0 -280 115q-115 119 -115 279v897h-178v-897zM473 1577h107l108 129l107 -129h108l-143 215h-144z" />
<glyph unicode="&#xdc;" horiz-adv-x="1376" d="M115 537q0 -236 168 -404q170 -170 405 -170q236 0 406 170q168 168 168 404v897h-181v-897q0 -160 -114 -279q-115 -115 -279 -115q-166 0 -280 115q-115 119 -115 279v897h-178v-897zM420 1667q0 -39 25.5 -64.5t62.5 -25.5q39 0 64.5 25.5t25.5 64.5q0 37 -25.5 62.5 t-64.5 25.5q-37 0 -62.5 -25.5t-25.5 -62.5zM778 1667q0 -39 25.5 -64.5t62.5 -25.5q39 0 64.5 25.5t25.5 64.5q0 37 -25.5 62.5t-64.5 25.5q-37 0 -62.5 -25.5t-25.5 -62.5z" />
<glyph unicode="&#xdd;" horiz-adv-x="1318" d="M43 1434l526 -748v-686h181v686l526 748h-223l-394 -560l-395 560h-221zM606 1577h107l180 215h-180z" />
<glyph unicode="&#xde;" horiz-adv-x="1259" d="M133 0h178v313h430q180 0 312 113q137 117 137 291q0 172 -137 293q-135 111 -312 110h-430v314h-178v-1434zM311 494v446h430q109 0 183 -59q86 -66 86 -164q0 -102 -86 -166q-76 -57 -183 -57h-430z" />
<glyph unicode="&#xdf;" horiz-adv-x="1323" d="M133 -180h178v1075q0 156 88 270q94 125 244 125q313 0 313 -196q0 -98 -118 -154q-90 -45 -203 -45h-109v-178h109q145 0 260 -70q133 -80 133 -217q0 -143 -131 -223q-106 -63 -262 -64q-72 0 -143 17l-43 -172q92 -25 186 -25q229 0 391 115q182 129 182 352 q0 131 -80 234q-70 90 -200 143q209 82 209 287q0 193 -158 290q-133 84 -336 84q-225 0 -371 -176q-139 -166 -139 -397v-1075z" />
<glyph unicode="&#xe0;" horiz-adv-x="1187" d="M39 0h170l106 291h555l107 -291h174l-471 1290h-172zM375 451l219 604l219 -604h-438zM383 1612l162 -193h96l-96 193h-162z" />
<glyph unicode="&#xe1;" horiz-adv-x="1187" d="M39 0h170l106 291h555l107 -291h174l-471 1290h-172zM375 451l219 604l219 -604h-438zM545 1419h96l162 193h-162z" />
<glyph unicode="&#xe2;" horiz-adv-x="1187" d="M39 0h170l106 291h555l107 -291h174l-471 1290h-172zM375 451l219 604l219 -604h-438zM399 1419h97l98 117l96 -117h96l-129 193h-129z" />
<glyph unicode="&#xe3;" horiz-adv-x="1187" d="M39 0h170l106 291h555l107 -291h174l-471 1290h-172zM350 1475l90 -50q20 80 54 80q41 0 110 -45q35 -20 60.5 -30.5t48.5 -10.5q84 1 125 142l-88 49q-20 -78 -56 -78q-37 0 -108 41q-70 45 -109 45q-84 0 -127 -143zM375 451l219 604l219 -604h-438z" />
<glyph unicode="&#xe4;" horiz-adv-x="1187" d="M39 0h170l106 291h555l107 -291h174l-471 1290h-172zM352 1499q0 -35 23.5 -57.5t58.5 -22.5t57.5 22.5t22.5 57.5t-22.5 58.5t-57.5 23.5t-58.5 -23.5t-23.5 -58.5zM375 451l219 604l219 -604h-438zM676 1499q0 -35 22.5 -57.5t57.5 -22.5t58.5 22.5t23.5 57.5 t-23.5 58.5t-58.5 23.5t-57.5 -23.5t-22.5 -58.5z" />
<glyph unicode="&#xe5;" horiz-adv-x="1187" d="M39 0h170l106 291h555l107 -291h174l-457 1255q76 55 76 148q0 74 -53 123q-49 55 -123 55q-72 0 -127 -55q-51 -51 -51 -123q0 -94 78 -150zM375 451l219 604l219 -604h-438zM479 1403q0 47 34 80t81 33t80 -33t33 -80t-33 -80t-80 -33t-81 33t-34 80z" />
<glyph unicode="&#xe6;" horiz-adv-x="1839" d="M39 0h170l106 291h555l107 -291h741v162h-579v403h417v160h-417v403h579v162h-741v-815l-297 815h-172zM375 451l219 604l219 -604h-438z" />
<glyph unicode="&#xe7;" horiz-adv-x="1339" d="M78 645q0 -260 174 -452q176 -195 432 -222l-25 -116h50q33 0 56 -24t23 -56q0 -33 -23.5 -57.5t-55.5 -24.5h-115l-14 -47h129q53 0 91 37.5t38 91.5q0 45 -29 79.5t-76 45.5l17 67q282 -4 485 199l-115 113q-150 -150 -364 -150q-213 0 -363 152q-154 150 -153 364 q0 213 153 365q152 152 363 151q211 0 364 -149l115 112q-199 199 -479 199q-281 0 -477 -201q-201 -197 -201 -477z" />
<glyph unicode="&#xe8;" horiz-adv-x="1140" d="M121 0h903v162h-743v403h581v160h-581v403h743v162h-903v-1290zM362 1612l160 -193h99l-99 193h-160z" />
<glyph unicode="&#xe9;" horiz-adv-x="1140" d="M121 0h903v162h-743v403h581v160h-581v403h743v162h-903v-1290zM522 1419h99l159 193h-159z" />
<glyph unicode="&#xea;" horiz-adv-x="1140" d="M121 0h903v162h-743v403h581v160h-581v403h743v162h-903v-1290zM379 1419h96l96 117l97 -117h98l-129 193h-129z" />
<glyph unicode="&#xeb;" horiz-adv-x="1140" d="M121 0h903v162h-743v403h581v160h-581v403h743v162h-903v-1290zM330 1499q0 -35 22.5 -57.5t57.5 -22.5t58.5 22.5t23.5 57.5t-24 58.5t-58 23.5q-35 0 -57.5 -23.5t-22.5 -58.5zM651 1499q0 -35 23.5 -57.5t58.5 -22.5t57.5 22.5t22.5 57.5t-22.5 58.5t-57.5 23.5 t-58.5 -23.5t-23.5 -58.5z" />
<glyph unicode="&#xec;" horiz-adv-x="399" d="M-8 1612l160 -193h98l-98 193h-160zM121 0h160v1290h-160v-1290z" />
<glyph unicode="&#xed;" horiz-adv-x="399" d="M121 0h160v1290h-160v-1290zM152 1419h98l160 193h-160z" />
<glyph unicode="&#xee;" horiz-adv-x="399" d="M6 1419h98l97 117l96 -117h96l-129 193h-129zM121 0h160v1290h-160v-1290z" />
<glyph unicode="&#xef;" horiz-adv-x="399" d="M-41 1499q0 -35 22.5 -57.5t57.5 -22.5t58.5 22.5t23.5 57.5t-23.5 58.5t-58.5 23.5t-57.5 -23.5t-22.5 -58.5zM121 0h160v1290h-160v-1290zM281 1499q0 -35 23.5 -57.5t57.5 -22.5q35 0 57.5 22.5t22.5 57.5t-22.5 58.5t-57.5 23.5t-58 -23.5t-23 -58.5z" />
<glyph unicode="&#xf0;" horiz-adv-x="1472" d="M78 596h162v-596h483q264 0 457 188q188 189 188 457t-188 455q-190 190 -457 190h-483v-565h-162v-129zM401 162v434h322v129h-322v403h322q199 0 344 -141q141 -141 141 -342t-141 -342t-344 -141h-322z" />
<glyph unicode="&#xf1;" horiz-adv-x="1269" d="M121 0h160v999l710 -999h162v1290h-162v-999l-710 999h-160v-1290zM393 1475l88 -50q20 80 56 80q43 0 108 -45q72 -41 109 -41q84 1 127 142l-88 49q-20 -78 -56 -78q-39 0 -110 41q-66 45 -107 45q-88 0 -127 -143z" />
<glyph unicode="&#xf2;" horiz-adv-x="1511" d="M78 645q0 -283 201 -479q199 -199 477 -199q281 0 479 199q199 196 199 479q0 281 -199 479.5t-479 198.5q-279 0 -477 -199q-201 -201 -201 -479zM240 645q0 213 153 365q152 152 363 151q213 0 364 -151q152 -150 152 -365t-152 -364q-150 -152 -364 -152 q-213 0 -363 152q-154 150 -153 364zM547 1612l162 -193h96l-96 193h-162z" />
<glyph unicode="&#xf3;" horiz-adv-x="1511" d="M78 645q0 -283 201 -479q199 -199 477 -199q281 0 479 199q199 196 199 479q0 281 -199 479.5t-479 198.5q-279 0 -477 -199q-201 -201 -201 -479zM240 645q0 213 153 365q152 152 363 151q213 0 364 -151q152 -150 152 -365t-152 -364q-150 -152 -364 -152 q-213 0 -363 152q-154 150 -153 364zM709 1419h96l162 193h-162z" />
<glyph unicode="&#xf4;" horiz-adv-x="1511" d="M78 645q0 -283 201 -479q199 -199 477 -199q281 0 479 199q199 196 199 479q0 281 -199 479.5t-479 198.5q-279 0 -477 -199q-201 -201 -201 -479zM240 645q0 213 153 365q152 152 363 151q213 0 364 -151q152 -150 152 -365t-152 -364q-150 -152 -364 -152 q-213 0 -363 152q-154 150 -153 364zM563 1419h96l97 117l96 -117h98l-129 193h-129z" />
<glyph unicode="&#xf5;" horiz-adv-x="1511" d="M78 645q0 -283 201 -479q199 -199 477 -199q281 0 479 199q199 196 199 479q0 281 -199 479.5t-479 198.5q-279 0 -477 -199q-201 -201 -201 -479zM240 645q0 213 153 365q152 152 363 151q213 0 364 -151q152 -150 152 -365t-152 -364q-150 -152 -364 -152 q-213 0 -363 152q-154 150 -153 364zM512 1475l92 -50q20 80 53 80q43 0 109 -45q72 -41 111 -41q83 1 124 142l-90 49q-20 -78 -53 -78q-39 0 -108 41q-70 45 -111 45q-88 0 -127 -143z" />
<glyph unicode="&#xf6;" horiz-adv-x="1511" d="M78 645q0 -283 201 -479q199 -199 477 -199q281 0 479 199q199 196 199 479q0 281 -199 479.5t-479 198.5q-279 0 -477 -199q-201 -201 -201 -479zM240 645q0 213 153 365q152 152 363 151q213 0 364 -151q152 -150 152 -365t-152 -364q-150 -152 -364 -152 q-213 0 -363 152q-154 150 -153 364zM514 1499q0 -35 23.5 -57.5t56.5 -22.5q35 0 58.5 22.5t23.5 57.5t-23.5 58.5t-58.5 23.5q-33 0 -56.5 -23.5t-23.5 -58.5zM838 1499q0 -35 22.5 -57.5t57.5 -22.5t57 22.5t22 57.5t-22.5 58.5t-56.5 23.5q-35 0 -57.5 -23.5 t-22.5 -58.5z" />
<glyph unicode="&#xf7;" d="M133 465h717v143h-717v-143zM365 125q0 -53 36.5 -89t90.5 -36q53 0 88.5 36t35.5 89t-35.5 89t-88.5 36t-90 -36t-37 -89zM365 950q0 -53 36.5 -90t90.5 -37q53 0 88.5 37t35.5 90t-35.5 89t-88.5 36t-90 -35.5t-37 -89.5z" />
<glyph unicode="&#xf8;" horiz-adv-x="1511" d="M39 49l49 -49l188 168q201 -201 480 -201q281 0 479 199q199 197 199 479q0 238 -152 426l193 170l-50 49l-188 -170q-203 203 -481 203q-279 0 -477 -199q-201 -201 -201 -479q0 -240 153 -426zM240 645q0 213 153 365q152 152 363 151q210 0 362 -147l-768 -686 q-53 72 -81.5 149.5t-28.5 167.5zM393 276l770 687q109 -144 109 -318q0 -215 -152 -364q-150 -152 -364 -152q-213 0 -363 147z" />
<glyph unicode="&#xf9;" horiz-adv-x="1239" d="M104 483q0 -215 150 -362q154 -154 367 -154q209 0 362 154q154 149 154 362v807h-162v-807q0 -147 -107 -250q-104 -104 -247 -104q-150 0 -254 104q-102 100 -103 250v807h-160v-807zM410 1612l161 -193h97l-97 193h-161z" />
<glyph unicode="&#xfa;" horiz-adv-x="1239" d="M104 483q0 -215 150 -362q154 -154 367 -154q209 0 362 154q154 149 154 362v807h-162v-807q0 -147 -107 -250q-104 -104 -247 -104q-150 0 -254 104q-102 100 -103 250v807h-160v-807zM571 1419h97l161 193h-161z" />
<glyph unicode="&#xfb;" horiz-adv-x="1239" d="M104 483q0 -215 150 -362q154 -154 367 -154q209 0 362 154q154 149 154 362v807h-162v-807q0 -147 -107 -250q-104 -104 -247 -104q-150 0 -254 104q-102 100 -103 250v807h-160v-807zM426 1419h96l99 117l96 -117h96l-129 193h-129z" />
<glyph unicode="&#xfc;" horiz-adv-x="1239" d="M104 483q0 -215 150 -362q154 -154 367 -154q209 0 362 154q154 149 154 362v807h-162v-807q0 -147 -107 -250q-104 -104 -247 -104q-150 0 -254 104q-102 100 -103 250v807h-160v-807zM379 1499q0 -35 22.5 -57.5t57.5 -22.5t57.5 22.5t22.5 57.5t-22.5 58.5t-57.5 23.5 t-57.5 -23.5t-22.5 -58.5zM700 1499q0 -35 22.5 -57.5t57.5 -22.5t58.5 22.5t23.5 57.5t-23.5 58.5t-58.5 23.5t-57.5 -23.5t-22.5 -58.5z" />
<glyph unicode="&#xfd;" horiz-adv-x="1185" d="M39 1290l473 -672v-618h162v618l475 672h-201l-354 -504l-356 504h-199zM545 1419h96l162 193h-162z" />
<glyph unicode="&#xfe;" horiz-adv-x="1134" d="M121 0h160v281h387q156 0 280 102q123 104 123 262q0 156 -125 264q-121 98 -278 99h-387v282h-160v-1290zM281 442v404h387q94 0 163 -51q78 -62 78 -150t-78 -149q-72 -53 -163 -54h-387z" />
<glyph unicode="&#xff;" horiz-adv-x="1185" d="M39 1290l473 -672v-618h162v618l475 672h-201l-354 -504l-356 504h-199zM350 1499q0 -35 23.5 -57.5t58.5 -22.5t57.5 22.5t22.5 57.5t-22.5 58.5t-57.5 23.5t-58.5 -23.5t-23.5 -58.5zM674 1499q0 -35 22.5 -57.5t57.5 -22.5t58.5 22.5t23.5 57.5t-24 58.5t-58 23.5 q-35 0 -57.5 -23.5t-22.5 -58.5z" />
<glyph unicode="&#x152;" horiz-adv-x="2371" d="M88 717q0 -309 219 -533q221 -221 533 -221q350 0 573 266v-229h825v178h-645v449h465v180h-465v446h645v181h-825v-230q-221 264 -573 264q-313 0 -533 -219q-219 -223 -219 -532zM266 717q0 238 170 405q168 168 404 168q238 0 405.5 -167.5t167.5 -405.5t-168 -406 t-405 -168q-236 0 -404 168q-170 168 -170 406z" />
<glyph unicode="&#x153;" horiz-adv-x="2134" d="M78 645q0 -283 201 -479q199 -199 477 -199q313 0 516 240v-207h741v162h-579v403h419v160h-419v403h579v162h-741v-207q-203 240 -516 240q-279 0 -477 -199q-201 -201 -201 -479zM240 645q0 213 153 365q152 152 363 151q213 0 364 -151q152 -150 152 -365t-152 -364 q-150 -152 -364 -152q-213 0 -363 152q-154 150 -153 364z" />
<glyph unicode="&#x178;" horiz-adv-x="1318" d="M43 1434l526 -748v-686h181v686l526 748h-223l-394 -560l-395 560h-221zM391 1667q0 -39 25.5 -64.5t62.5 -25.5q39 0 64.5 25.5t25.5 64.5q0 37 -25.5 62.5t-64.5 25.5q-37 0 -62.5 -25.5t-25.5 -62.5zM750 1667q0 -39 25.5 -64.5t62.5 -25.5q39 0 64.5 25.5t25.5 64.5 q0 37 -25.5 62.5t-64.5 25.5q-37 0 -62.5 -25.5t-25.5 -62.5z" />
<glyph unicode="&#x2c6;" horiz-adv-x="694" d="M133 1219h107l108 129l107 -129h108l-143 215h-144z" />
<glyph unicode="&#x2dc;" horiz-adv-x="808" d="M133 1276l100 -53q25 86 60 86q47 0 121 -49q78 -47 123 -48q92 0 139 158l-98 55q-25 -86 -62 -86q-45 0 -123 45q-74 49 -119 50q-96 0 -141 -158z" />
<glyph unicode="&#x2000;" horiz-adv-x="899" />
<glyph unicode="&#x2001;" horiz-adv-x="1798" />
<glyph unicode="&#x2002;" horiz-adv-x="899" />
<glyph unicode="&#x2003;" horiz-adv-x="1798" />
<glyph unicode="&#x2004;" horiz-adv-x="599" />
<glyph unicode="&#x2005;" horiz-adv-x="449" />
<glyph unicode="&#x2006;" horiz-adv-x="299" />
<glyph unicode="&#x2007;" horiz-adv-x="299" />
<glyph unicode="&#x2008;" horiz-adv-x="224" />
<glyph unicode="&#x2009;" horiz-adv-x="359" />
<glyph unicode="&#x200a;" horiz-adv-x="99" />
<glyph unicode="&#x2010;" d="M133 465h717v143h-717v-143z" />
<glyph unicode="&#x2011;" d="M133 465h717v143h-717v-143z" />
<glyph unicode="&#x2012;" d="M133 465h717v143h-717v-143z" />
<glyph unicode="&#x2013;" horiz-adv-x="802" d="M133 465h537v143h-537v-143z" />
<glyph unicode="&#x2014;" horiz-adv-x="1161" d="M133 465h895v143h-895v-143z" />
<glyph unicode="&#x2018;" horiz-adv-x="516" d="M133 932h250v250h-178q0 76 30.5 128t75.5 52v72q-72 0 -127 -74q-51 -72 -51 -178v-250z" />
<glyph unicode="&#x2019;" horiz-adv-x="516" d="M133 1182h178q0 -74 -30.5 -126t-75.5 -52v-72q72 0 125 74q53 72 53 176v252h-250v-252z" />
<glyph unicode="&#x201a;" horiz-adv-x="516" d="M133 0h178q0 -74 -30.5 -127t-75.5 -53v-72q70 0 125 74q53 76 53 178v250h-250v-250z" />
<glyph unicode="&#x201c;" horiz-adv-x="909" d="M133 932h250v250h-178q0 76 30.5 128t75.5 52v72q-72 0 -127 -74q-51 -72 -51 -178v-250zM526 932h252v250h-180q0 76 32 128t77 52v72q-76 0 -127 -74q-53 -76 -54 -178v-250z" />
<glyph unicode="&#x201d;" horiz-adv-x="909" d="M133 1182h178q0 -74 -30.5 -126t-75.5 -52v-72q72 0 125 74q53 72 53 176v252h-250v-252zM526 1182h181q0 -74 -32 -126t-77 -52v-72q76 0 125 74q55 70 55 176v252h-252v-252z" />
<glyph unicode="&#x201e;" horiz-adv-x="909" d="M133 0h178q0 -74 -30.5 -127t-75.5 -53v-72q70 0 125 74q53 76 53 178v250h-250v-250zM526 0h181q0 -74 -32 -127t-77 -53v-72q74 0 125 74q55 74 55 178v250h-252v-250z" />
<glyph unicode="&#x2022;" horiz-adv-x="909" d="M133 537q0 -133 94 -228q98 -94 228 -94q135 0 227 92q96 97 96 230t-96 229q-94 94 -227 94q-129 0 -228 -94q-94 -94 -94 -229z" />
<glyph unicode="&#x2026;" horiz-adv-x="1447" d="M133 125q0 -53 36 -89t89 -36t89 36t36 89t-36 89t-89 36t-89 -36t-36 -89zM598 125q0 -53 36 -89t89 -36t90 36t37 89t-37 89t-90 36t-89 -36t-36 -89zM1065 125q0 -53 36 -89t89 -36t89 36t36 89t-36 89t-89 36t-89 -36t-36 -89z" />
<glyph unicode="&#x202f;" horiz-adv-x="359" />
<glyph unicode="&#x2039;" horiz-adv-x="765" d="M133 551l420 -285l80 121l-348 236l348 233l-80 121l-420 -283v-143z" />
<glyph unicode="&#x203a;" horiz-adv-x="765" d="M133 387l78 -121l422 285v143l-422 283l-78 -121l346 -233z" />
<glyph unicode="&#x205f;" horiz-adv-x="449" />
<glyph unicode="&#x20ac;" horiz-adv-x="1632" d="M133 483h207q76 -229 272 -377q203 -143 443 -143q203 0 381 105v219q-168 -143 -381 -144q-170 0 -312 93q-141 94 -211 247h662l51 144h-756q-8 41 -8 90t8 90h822l53 143h-832q72 154 211 246q139 94 312 94q213 0 381 -143l63 178q-195 143 -444 143 q-244 0 -443 -143q-195 -143 -272 -375h-154l-53 -143h174q-2 -23 -3 -45.5t-1 -44.5q0 -23 1 -45.5t3 -44.5h-121z" />
<glyph unicode="&#x2122;" horiz-adv-x="1568" d="M133 1309h232v-629h127v629h196v-629h125v520l188 -520h123l187 518v-518h127v754h-174l-201 -553l-201 553h-729v-125z" />
<glyph unicode="&#x25fc;" horiz-adv-x="1290" d="M0 0v1290h1290v-1290h-1290z" />
</font>
</defs>
</svg>
